STARTFONT 2.1
COMMENT 
COMMENT Converted from OpenType font "LiberationSansNarrow-Bold.ttf" by "otf2bdf 3.0".
COMMENT 
FONT -FreeType-Liberation Sans Narrow-Bold-R-Normal--26-190-100-100-P-121-ISO10646-1
SIZE 19 100 100
FONTBOUNDINGBOX 30 35 -4 -8
STARTPROPERTIES 20
FOUNDRY "FreeType"
FAMILY_NAME "Liberation Sans Narrow"
WEIGHT_NAME "Bold"
SLANT "R"
SETWIDTH_NAME "Normal"
ADD_STYLE_NAME ""
PIXEL_SIZE 26
POINT_SIZE 190
RESOLUTION_X 100
RESOLUTION_Y 100
SPACING "P"
AVERAGE_WIDTH 121
CHARSET_REGISTRY "ISO10646"
CHARSET_ENCODING "1"
FONT_ASCENT 24
FONT_DESCENT 5
COPYRIGHT "Copyright 2010 Oracle and/or its affiliates"
_OTF_FONTFILE "LiberationSansNarrow-Bold.ttf"
_OTF_PSNAME "LiberationSansNarrow-Bold"
_GBDFED_INFO "Edited with gbdfed 1.6."
ENDPROPERTIES
CHARS 661
STARTCHAR 0020
ENCODING 32
SWIDTH 454 0
DWIDTH 12 0
BBX 0 0 0 0
BITMAP
ENDCHAR
STARTCHAR 0021
ENCODING 33
SWIDTH 265 0
DWIDTH 7 0
BBX 3 18 2 0
BITMAP
E0
E0
E0
E0
E0
E0
E0
E0
E0
E0
E0
E0
E0
00
00
E0
E0
E0
ENDCHAR
STARTCHAR 0022
ENCODING 34
SWIDTH 378 0
DWIDTH 10 0
BBX 8 6 1 12
BITMAP
E7
E7
67
67
66
66
ENDCHAR
STARTCHAR 0023
ENCODING 35
SWIDTH 454 0
DWIDTH 12 0
BBX 12 17 0 0
BITMAP
0C60
0C40
08C0
18C0
7FF0
7FF0
1880
1080
1180
3180
FFE0
FFE0
3100
2100
2300
6300
6300
ENDCHAR
STARTCHAR 0024
ENCODING 36
SWIDTH 454 0
DWIDTH 12 0
BBX 12 21 0 -2
BITMAP
0600
0600
1F80
7FC0
77E0
76E0
7600
7600
7E00
3F80
1FC0
07E0
06E0
2670
E670
76E0
7FE0
3FC0
1F00
0600
0600
ENDCHAR
STARTCHAR 0025
ENCODING 37
SWIDTH 720 0
DWIDTH 19 0
BBX 17 18 1 0
BITMAP
780C00
FC1C00
CC1800
CE3000
C63000
C66000
C66000
C6CF00
CEDF80
FDB980
79B180
033180
033180
063180
0E3180
0C3980
1C1F00
180E00
ENDCHAR
STARTCHAR 0026
ENCODING 38
SWIDTH 568 0
DWIDTH 15 0
BBX 14 18 1 0
BITMAP
0F80
1FC0
18C0
18C0
18C0
19C0
1F80
1F00
3C30
7E30
E630
E770
E3E0
E1E0
E1E0
F3FC
7FFC
3E3C
ENDCHAR
STARTCHAR 0027
ENCODING 39
SWIDTH 189 0
DWIDTH 5 0
BBX 3 6 1 12
BITMAP
E0
E0
E0
E0
E0
E0
ENDCHAR
STARTCHAR 0028
ENCODING 40
SWIDTH 265 0
DWIDTH 7 0
BBX 6 24 1 -5
BITMAP
1C
38
38
70
70
70
60
E0
E0
E0
E0
E0
E0
E0
E0
E0
E0
60
70
70
70
38
38
1C
ENDCHAR
STARTCHAR 0029
ENCODING 41
SWIDTH 265 0
DWIDTH 7 0
BBX 6 24 0 -5
BITMAP
E0
70
70
38
38
38
18
1C
1C
1C
1C
1C
1C
1C
1C
1C
1C
1C
38
38
38
70
70
E0
ENDCHAR
STARTCHAR 002A
ENCODING 42
SWIDTH 303 0
DWIDTH 8 0
BBX 8 10 0 8
BITMAP
18
18
19
FF
FF
1C
3C
76
66
20
ENDCHAR
STARTCHAR 002B
ENCODING 43
SWIDTH 454 0
DWIDTH 12 0
BBX 11 13 1 2
BITMAP
0C00
0C00
0C00
0C00
0C00
FFE0
FFE0
FFE0
0C00
0C00
0C00
0C00
0C00
ENDCHAR
STARTCHAR 002C
ENCODING 44
SWIDTH 227 0
DWIDTH 6 0
BBX 4 8 1 -4
BITMAP
F0
F0
F0
E0
20
20
60
60
ENDCHAR
STARTCHAR 002D
ENCODING 45
SWIDTH 265 0
DWIDTH 7 0
BBX 5 3 1 5
BITMAP
F8
F8
F8
ENDCHAR
STARTCHAR 002E
ENCODING 46
SWIDTH 227 0
DWIDTH 6 0
BBX 3 4 1 0
BITMAP
E0
E0
E0
E0
ENDCHAR
STARTCHAR 002F
ENCODING 47
SWIDTH 227 0
DWIDTH 6 0
BBX 6 20 0 -1
BITMAP
1C
1C
18
18
18
38
38
38
30
30
30
70
70
70
70
60
60
E0
E0
20
ENDCHAR
STARTCHAR 0030
ENCODING 48
SWIDTH 454 0
DWIDTH 12 0
BBX 10 18 1 0
BITMAP
1E00
3F00
7F80
F380
E1C0
E1C0
E1C0
E1C0
E1C0
E1C0
E1C0
E1C0
E1C0
E1C0
7380
7F80
3F00
1E00
ENDCHAR
STARTCHAR 0031
ENCODING 49
SWIDTH 454 0
DWIDTH 12 0
BBX 7 18 4 0
BITMAP
0E
1E
3E
FE
FE
0E
0E
0E
0E
0E
0E
0E
0E
0E
0E
0E
0E
0E
ENDCHAR
STARTCHAR 0032
ENCODING 50
SWIDTH 454 0
DWIDTH 12 0
BBX 10 18 1 0
BITMAP
1E00
7F80
7F80
F3C0
E1C0
01C0
03C0
0380
0780
0F00
1E00
3C00
7800
7000
E000
FFC0
FFC0
FFC0
ENDCHAR
STARTCHAR 0033
ENCODING 51
SWIDTH 454 0
DWIDTH 12 0
BBX 10 18 1 0
BITMAP
3E00
7F80
FF80
E3C0
E1C0
01C0
0380
1F00
1E00
1F80
03C0
01C0
01C0
E1C0
E3C0
FFC0
7F80
3E00
ENDCHAR
STARTCHAR 0034
ENCODING 52
SWIDTH 454 0
DWIDTH 12 0
BBX 12 18 0 0
BITMAP
03C0
03C0
07C0
07C0
0FC0
0FC0
1DC0
19C0
39C0
71C0
71C0
E1C0
FFF0
FFF0
FFF0
01C0
01C0
01C0
ENDCHAR
STARTCHAR 0035
ENCODING 53
SWIDTH 454 0
DWIDTH 12 0
BBX 10 18 1 0
BITMAP
FF80
FF80
FF80
E000
E000
E000
FF00
FF80
FFC0
E3C0
01C0
01C0
01C0
E1C0
E3C0
FF80
7F80
3E00
ENDCHAR
STARTCHAR 0036
ENCODING 54
SWIDTH 416 0
DWIDTH 11 0
BBX 10 18 1 0
BITMAP
1F00
3F80
7FC0
71C0
E1C0
E000
EF00
FF80
FF80
F3C0
E1C0
E1C0
E1C0
E1C0
73C0
7F80
3F80
1E00
ENDCHAR
STARTCHAR 0037
ENCODING 55
SWIDTH 454 0
DWIDTH 12 0
BBX 10 18 1 0
BITMAP
FFC0
FFC0
FFC0
01C0
0380
0380
0700
0700
0E00
0E00
1C00
1C00
1C00
1C00
3800
3800
3800
3800
ENDCHAR
STARTCHAR 0038
ENCODING 56
SWIDTH 454 0
DWIDTH 12 0
BBX 10 18 1 0
BITMAP
1E00
3F00
7F80
F3C0
E1C0
E1C0
F3C0
7F80
3F00
7F80
F3C0
E1C0
E1C0
E1C0
F3C0
FFC0
7F80
3F00
ENDCHAR
STARTCHAR 0039
ENCODING 57
SWIDTH 454 0
DWIDTH 12 0
BBX 10 18 1 0
BITMAP
1E00
3F00
7F80
F3C0
E1C0
E1C0
E1C0
E1C0
F3C0
7FC0
3FC0
1DC0
01C0
01C0
E3C0
FF80
7F00
3E00
ENDCHAR
STARTCHAR 003A
ENCODING 58
SWIDTH 189 0
DWIDTH 5 0
BBX 3 14 1 0
BITMAP
E0
E0
E0
E0
00
00
00
00
00
00
E0
E0
E0
E0
ENDCHAR
STARTCHAR 003B
ENCODING 59
SWIDTH 265 0
DWIDTH 7 0
BBX 3 18 2 -4
BITMAP
E0
E0
E0
E0
00
00
00
00
00
00
E0
E0
E0
E0
60
60
60
C0
ENDCHAR
STARTCHAR 003C
ENCODING 60
SWIDTH 454 0
DWIDTH 12 0
BBX 11 14 1 2
BITMAP
0020
00E0
03E0
0FC0
3F00
FC00
F000
C000
F000
FC00
3F00
0FE0
03E0
0060
ENDCHAR
STARTCHAR 003D
ENCODING 61
SWIDTH 454 0
DWIDTH 12 0
BBX 11 10 1 4
BITMAP
FFE0
FFE0
FFE0
0000
0000
0000
0000
FFE0
FFE0
FFE0
ENDCHAR
STARTCHAR 003E
ENCODING 62
SWIDTH 454 0
DWIDTH 12 0
BBX 11 13 1 3
BITMAP
C000
F000
FE00
3F80
0FE0
01E0
00E0
03E0
0FC0
3F00
FC00
F000
C000
ENDCHAR
STARTCHAR 003F
ENCODING 63
SWIDTH 492 0
DWIDTH 13 0
BBX 11 18 1 0
BITMAP
1F00
3F80
7FC0
F1E0
E0E0
E0E0
00E0
01C0
03C0
0780
0F00
0E00
0C00
0000
0000
0E00
0E00
0E00
ENDCHAR
STARTCHAR 0040
ENCODING 64
SWIDTH 795 0
DWIDTH 21 0
BBX 19 23 1 -4
BITMAP
01F800
07FE00
0F0700
1C0180
3801C0
30E0C0
61F4C0
631440
660C60
460C60
C60C60
C40840
CC1840
CC18C0
C438C0
C66980
47EF00
63CE00
600000
300200
1C0E00
0FFC00
03F000
ENDCHAR
STARTCHAR 0041
ENCODING 65
SWIDTH 568 0
DWIDTH 15 0
BBX 14 18 1 0
BITMAP
0780
0F80
0F80
0FC0
0DC0
1DC0
1CC0
1CE0
38E0
38E0
3870
7FF0
7FF0
7FF8
7038
E038
E038
E01C
ENDCHAR
STARTCHAR 0042
ENCODING 66
SWIDTH 568 0
DWIDTH 15 0
BBX 13 18 1 0
BITMAP
FFC0
FFF0
FFF0
F070
F078
F070
F070
FFE0
FFC0
FFF0
F078
F038
F038
F038
F078
FFF8
FFF0
FFC0
ENDCHAR
STARTCHAR 0043
ENCODING 67
SWIDTH 568 0
DWIDTH 15 0
BBX 14 18 1 0
BITMAP
0FC0
1FF0
3FF8
7878
7038
F010
E000
E000
E000
E000
E000
E000
F018
703C
7878
3FF8
1FF0
0FC0
ENDCHAR
STARTCHAR 0044
ENCODING 68
SWIDTH 568 0
DWIDTH 15 0
BBX 13 18 1 0
BITMAP
FF80
FFE0
FFF0
F0F0
F078
F038
F038
F038
F038
F038
F038
F038
F038
F078
F0F0
FFF0
FFE0
FF80
ENDCHAR
STARTCHAR 0045
ENCODING 69
SWIDTH 530 0
DWIDTH 14 0
BBX 12 18 1 0
BITMAP
FFF0
FFF0
FFF0
F000
F000
F000
F000
FFE0
FFE0
FFE0
F000
F000
F000
F000
F000
FFF0
FFF0
FFF0
ENDCHAR
STARTCHAR 0046
ENCODING 70
SWIDTH 492 0
DWIDTH 13 0
BBX 11 18 1 0
BITMAP
FFE0
FFE0
FFE0
F000
F000
F000
F000
F000
FFE0
FFE0
FFE0
F000
F000
F000
F000
F000
F000
F000
ENDCHAR
STARTCHAR 0047
ENCODING 71
SWIDTH 644 0
DWIDTH 17 0
BBX 14 18 1 0
BITMAP
0FC0
1FF0
3FF8
7878
703C
F010
E000
E000
E000
E0FC
E0FC
E0FC
F01C
F01C
783C
3FFC
1FF0
0FC0
ENDCHAR
STARTCHAR 0048
ENCODING 72
SWIDTH 568 0
DWIDTH 15 0
BBX 13 18 1 0
BITMAP
F038
F038
F038
F038
F038
F038
F038
FFF8
FFF8
FFF8
F038
F038
F038
F038
F038
F038
F038
F038
ENDCHAR
STARTCHAR 0049
ENCODING 73
SWIDTH 227 0
DWIDTH 6 0
BBX 4 18 1 0
BITMAP
F0
F0
F0
F0
F0
F0
F0
F0
F0
F0
F0
F0
F0
F0
F0
F0
F0
F0
ENDCHAR
STARTCHAR 004A
ENCODING 74
SWIDTH 454 0
DWIDTH 12 0
BBX 10 18 0 0
BITMAP
0FC0
0FC0
0FC0
01C0
01C0
01C0
01C0
01C0
01C0
01C0
01C0
01C0
21C0
F1C0
71C0
7FC0
3F80
1F00
ENDCHAR
STARTCHAR 004B
ENCODING 75
SWIDTH 568 0
DWIDTH 15 0
BBX 14 18 1 0
BITMAP
F038
F070
F0F0
F1E0
F3C0
F380
F700
FF00
FF00
FF80
FB80
F3C0
F1E0
F0E0
F0F0
F078
F038
F03C
ENDCHAR
STARTCHAR 004C
ENCODING 76
SWIDTH 492 0
DWIDTH 13 0
BBX 11 18 1 0
BITMAP
F000
F000
F000
F000
F000
F000
F000
F000
F000
F000
F000
F000
F000
F000
F000
FFE0
FFE0
FFE0
ENDCHAR
STARTCHAR 004D
ENCODING 77
SWIDTH 682 0
DWIDTH 18 0
BBX 15 18 1 0
BITMAP
F81E
F81E
F81E
F83E
FC36
EC36
EC36
EC76
EE76
E666
E666
E6E6
E7C6
E3C6
E3C6
E3C6
E386
E186
ENDCHAR
STARTCHAR 004E
ENCODING 78
SWIDTH 568 0
DWIDTH 15 0
BBX 13 18 1 0
BITMAP
F038
F838
F838
FC38
FC38
EC38
EE38
EE38
E738
E738
E3B8
E3B8
E1F8
E1F8
E0F8
E0F8
E078
E078
ENDCHAR
STARTCHAR 004F
ENCODING 79
SWIDTH 644 0
DWIDTH 17 0
BBX 15 18 1 0
BITMAP
0FC0
1FF0
3FF8
7878
703C
F01C
E01C
E01E
E00E
E00E
E01E
E01C
F01C
703C
7878
3FF8
1FF0
0FC0
ENDCHAR
STARTCHAR 0050
ENCODING 80
SWIDTH 530 0
DWIDTH 14 0
BBX 12 18 1 0
BITMAP
FFC0
FFE0
FFF0
F0F0
F070
F070
F070
F070
F0F0
FFF0
FFE0
FFC0
F000
F000
F000
F000
F000
F000
ENDCHAR
STARTCHAR 0051
ENCODING 81
SWIDTH 644 0
DWIDTH 17 0
BBX 15 23 1 -5
BITMAP
07C0
1FF0
3FF8
7878
703C
F01C
E01C
E01E
E00E
E00E
E01E
E01C
F01C
703C
7878
3FF8
1FF0
0FC0
03C0
01C0
01F8
00F8
0078
ENDCHAR
STARTCHAR 0052
ENCODING 82
SWIDTH 568 0
DWIDTH 15 0
BBX 14 18 1 0
BITMAP
FFC0
FFF0
FFF8
F078
F038
F038
F038
F078
FFF0
FFF0
FFC0
F1E0
F0E0
F0F0
F070
F078
F038
F03C
ENDCHAR
STARTCHAR 0053
ENCODING 83
SWIDTH 530 0
DWIDTH 14 0
BBX 12 18 1 0
BITMAP
1F80
3FE0
7FE0
F0F0
E070
E000
F000
7E00
3FC0
1FE0
01F0
0070
0070
E070
F070
7FF0
7FE0
1F80
ENDCHAR
STARTCHAR 0054
ENCODING 84
SWIDTH 492 0
DWIDTH 13 0
BBX 13 18 0 0
BITMAP
FFF8
FFF8
FFF8
0700
0700
0700
0700
0700
0700
0700
0700
0700
0700
0700
0700
0700
0700
0700
ENDCHAR
STARTCHAR 0055
ENCODING 85
SWIDTH 568 0
DWIDTH 15 0
BBX 13 18 1 0
BITMAP
E038
E038
E038
E038
E038
E038
E038
E038
E038
E038
E038
E038
F038
7078
78F0
7FF0
3FE0
0F80
ENDCHAR
STARTCHAR 0056
ENCODING 86
SWIDTH 530 0
DWIDTH 14 0
BBX 14 18 0 0
BITMAP
E01C
703C
7038
7038
7838
3870
3870
3870
1C70
1CE0
1CE0
0CE0
0EC0
0FC0
07C0
0780
0780
0780
ENDCHAR
STARTCHAR 0057
ENCODING 87
SWIDTH 757 0
DWIDTH 20 0
BBX 20 18 0 0
BITMAP
E0F070
E0F070
70F070
70F0E0
70F8E0
71F8E0
71F8E0
3998E0
3999C0
399DC0
3B9DC0
3B9DC0
1B0D80
1F0D80
1F0F80
1F0F80
1F0F80
0F0700
ENDCHAR
STARTCHAR 0058
ENCODING 88
SWIDTH 530 0
DWIDTH 14 0
BBX 14 18 0 0
BITMAP
7038
7838
3870
1C70
1CE0
0EE0
0FC0
07C0
0780
07C0
0FC0
0FE0
1CE0
1CF0
3870
3838
7038
F01C
ENDCHAR
STARTCHAR 0059
ENCODING 89
SWIDTH 530 0
DWIDTH 14 0
BBX 13 18 1 0
BITMAP
E078
E070
70F0
70E0
38E0
39C0
1DC0
1F80
0F80
0F00
0700
0700
0700
0700
0700
0700
0700
0700
ENDCHAR
STARTCHAR 005A
ENCODING 90
SWIDTH 492 0
DWIDTH 13 0
BBX 11 18 1 0
BITMAP
FFE0
FFE0
FFE0
01C0
01C0
0380
0780
0700
0E00
1E00
1C00
3800
7800
7000
E000
FFE0
FFE0
FFE0
ENDCHAR
STARTCHAR 005B
ENCODING 91
SWIDTH 265 0
DWIDTH 7 0
BBX 6 25 1 -6
BITMAP
FC
FC
E0
E0
E0
E0
E0
E0
E0
E0
E0
E0
E0
E0
E0
E0
E0
E0
E0
E0
E0
E0
E0
FC
FC
ENDCHAR
STARTCHAR 005C
ENCODING 92
SWIDTH 227 0
DWIDTH 6 0
BBX 6 19 0 -1
BITMAP
E0
E0
60
60
60
70
70
70
30
30
30
38
38
38
38
18
18
18
1C
ENDCHAR
STARTCHAR 005D
ENCODING 93
SWIDTH 265 0
DWIDTH 7 0
BBX 6 25 0 -6
BITMAP
FC
FC
1C
1C
1C
1C
1C
1C
1C
1C
1C
1C
1C
1C
1C
1C
1C
1C
1C
1C
1C
1C
1C
FC
FC
ENDCHAR
STARTCHAR 005E
ENCODING 94
SWIDTH 454 0
DWIDTH 12 0
BBX 11 11 1 7
BITMAP
1E00
1E00
1F00
3B00
3380
3380
7180
61C0
60C0
E0C0
C0E0
ENDCHAR
STARTCHAR 005F
ENCODING 95
SWIDTH 454 0
DWIDTH 12 0
BBX 12 1 0 -3
BITMAP
FFF0
ENDCHAR
STARTCHAR 0060
ENCODING 96
SWIDTH 265 0
DWIDTH 7 0
BBX 5 4 1 15
BITMAP
E0
60
30
18
ENDCHAR
STARTCHAR 0061
ENCODING 97
SWIDTH 454 0
DWIDTH 12 0
BBX 11 14 1 0
BITMAP
3E00
7F80
F380
E380
0380
3F80
7F80
E380
E380
E380
E380
E7C0
FDE0
78E0
ENDCHAR
STARTCHAR 0062
ENCODING 98
SWIDTH 492 0
DWIDTH 13 0
BBX 11 19 1 0
BITMAP
E000
E000
E000
E000
E000
E780
EFC0
F9C0
F0E0
F0E0
E0E0
E0E0
E0E0
E0E0
F0E0
F0E0
F9C0
EFC0
E780
ENDCHAR
STARTCHAR 0063
ENCODING 99
SWIDTH 454 0
DWIDTH 12 0
BBX 10 14 1 0
BITMAP
1F00
3F80
73C0
E1C0
E000
E000
E000
E000
E000
E1C0
E1C0
73C0
7F80
1F00
ENDCHAR
STARTCHAR 0064
ENCODING 100
SWIDTH 492 0
DWIDTH 13 0
BBX 11 19 1 0
BITMAP
00E0
00E0
00E0
00E0
00E0
3CE0
7EE0
73E0
E1E0
E1E0
E0E0
E0E0
E0E0
E0E0
E1E0
E1E0
73E0
7EE0
3CE0
ENDCHAR
STARTCHAR 0065
ENCODING 101
SWIDTH 454 0
DWIDTH 12 0
BBX 10 14 1 0
BITMAP
1E00
3F00
7380
E1C0
E1C0
E1C0
FFC0
FFC0
E000
E000
E180
71C0
7F80
1F00
ENDCHAR
STARTCHAR 0066
ENCODING 102
SWIDTH 265 0
DWIDTH 7 0
BBX 7 19 0 0
BITMAP
1E
3E
38
38
38
FE
FE
38
38
38
38
38
38
38
38
38
38
38
38
ENDCHAR
STARTCHAR 0067
ENCODING 103
SWIDTH 492 0
DWIDTH 13 0
BBX 11 20 1 -6
BITMAP
3CE0
7EE0
73E0
E1E0
E1E0
E0E0
E0E0
E0E0
E0E0
E1E0
E1E0
73E0
7EE0
3CE0
00E0
01C0
E1C0
71C0
7F80
1F00
ENDCHAR
STARTCHAR 0068
ENCODING 104
SWIDTH 492 0
DWIDTH 13 0
BBX 11 19 1 0
BITMAP
E000
E000
E000
E000
E000
E780
EFC0
EFC0
F9E0
F0E0
F0E0
E0E0
E0E0
E0E0
E0E0
E0E0
E0E0
E0E0
E0E0
ENDCHAR
STARTCHAR 0069
ENCODING 105
SWIDTH 227 0
DWIDTH 6 0
BBX 3 19 1 0
BITMAP
E0
E0
E0
00
00
E0
E0
E0
E0
E0
E0
E0
E0
E0
E0
E0
E0
E0
E0
ENDCHAR
STARTCHAR 006A
ENCODING 106
SWIDTH 227 0
DWIDTH 6 0
BBX 4 25 0 -6
BITMAP
70
70
70
00
00
70
70
70
70
70
70
70
70
70
70
70
70
70
70
70
70
70
F0
F0
E0
ENDCHAR
STARTCHAR 006B
ENCODING 107
SWIDTH 454 0
DWIDTH 12 0
BBX 11 19 1 0
BITMAP
E000
E000
E000
E000
E000
E1C0
E3C0
E380
E700
EE00
EE00
FE00
FF00
F700
E780
E380
E3C0
E1C0
E1E0
ENDCHAR
STARTCHAR 006C
ENCODING 108
SWIDTH 227 0
DWIDTH 6 0
BBX 3 19 1 0
BITMAP
E0
E0
E0
E0
E0
E0
E0
E0
E0
E0
E0
E0
E0
E0
E0
E0
E0
E0
E0
ENDCHAR
STARTCHAR 006D
ENCODING 109
SWIDTH 720 0
DWIDTH 19 0
BBX 17 14 1 0
BITMAP
E70E00
EF9F00
EFFF00
F3E780
F1C380
F1C380
E1C380
E1C380
E1C380
E1C380
E1C380
E1C380
E1C380
E1C380
ENDCHAR
STARTCHAR 006E
ENCODING 110
SWIDTH 492 0
DWIDTH 13 0
BBX 11 14 1 0
BITMAP
E780
EFC0
EFC0
F9E0
F0E0
F0E0
E0E0
E0E0
E0E0
E0E0
E0E0
E0E0
E0E0
E0E0
ENDCHAR
STARTCHAR 006F
ENCODING 111
SWIDTH 492 0
DWIDTH 13 0
BBX 11 14 1 0
BITMAP
1F00
3F80
71C0
E0E0
E0E0
E0E0
E0E0
E0E0
E0E0
E0E0
E0E0
71C0
3F80
1F00
ENDCHAR
STARTCHAR 0070
ENCODING 112
SWIDTH 492 0
DWIDTH 13 0
BBX 11 19 1 -5
BITMAP
E780
EFC0
F9C0
F0E0
F0E0
E0E0
E0E0
E0E0
E0E0
F0E0
F0E0
F9C0
EFC0
E780
E000
E000
E000
E000
E000
ENDCHAR
STARTCHAR 0071
ENCODING 113
SWIDTH 492 0
DWIDTH 13 0
BBX 11 19 1 -5
BITMAP
3CE0
7EE0
73E0
E1E0
E1E0
E0E0
E0E0
E0E0
E0E0
E1E0
E1E0
73E0
7EE0
3CE0
00E0
00E0
00E0
00E0
00E0
ENDCHAR
STARTCHAR 0072
ENCODING 114
SWIDTH 303 0
DWIDTH 8 0
BBX 7 14 1 0
BITMAP
E6
EE
EE
F8
F0
F0
E0
E0
E0
E0
E0
E0
E0
E0
ENDCHAR
STARTCHAR 0073
ENCODING 115
SWIDTH 454 0
DWIDTH 12 0
BBX 10 14 1 0
BITMAP
3F00
7F80
E180
E180
E000
F800
7F00
3F80
07C0
01C0
C1C0
E1C0
7F80
3F00
ENDCHAR
STARTCHAR 0074
ENCODING 116
SWIDTH 265 0
DWIDTH 7 0
BBX 7 17 0 0
BITMAP
18
38
38
FE
FE
38
38
38
38
38
38
38
38
38
38
3E
1E
ENDCHAR
STARTCHAR 0075
ENCODING 117
SWIDTH 492 0
DWIDTH 13 0
BBX 11 14 1 0
BITMAP
E0E0
E0E0
E0E0
E0E0
E0E0
E0E0
E0E0
E0E0
E1E0
E1E0
F3E0
7EE0
7EE0
3CE0
ENDCHAR
STARTCHAR 0076
ENCODING 118
SWIDTH 454 0
DWIDTH 12 0
BBX 12 14 0 0
BITMAP
E070
70E0
70E0
70E0
70C0
39C0
39C0
39C0
1980
1F80
1F80
1F00
0F00
0F00
ENDCHAR
STARTCHAR 0077
ENCODING 119
SWIDTH 644 0
DWIDTH 17 0
BBX 17 14 0 0
BITMAP
E1C380
E3C300
E3C700
63E700
636700
736600
776600
766600
367E00
363E00
3E3C00
3C3C00
1C3C00
1C3C00
ENDCHAR
STARTCHAR 0078
ENCODING 120
SWIDTH 454 0
DWIDTH 12 0
BBX 11 14 0 0
BITMAP
70E0
70E0
39C0
3B80
1F80
0F00
0F00
0F00
1F80
1F80
39C0
39C0
70E0
F0E0
ENDCHAR
STARTCHAR 0079
ENCODING 121
SWIDTH 454 0
DWIDTH 12 0
BBX 12 20 0 -6
BITMAP
E070
70E0
70E0
70E0
30C0
39C0
39C0
1980
1D80
1F80
0F80
0F00
0F00
0700
0E00
0E00
1E00
7C00
7C00
7800
ENDCHAR
STARTCHAR 007A
ENCODING 122
SWIDTH 416 0
DWIDTH 11 0
BBX 9 14 1 0
BITMAP
FF80
FF80
FF80
0700
0E00
0E00
1C00
3800
3800
7000
E000
FF80
FF80
FF80
ENDCHAR
STARTCHAR 007B
ENCODING 123
SWIDTH 303 0
DWIDTH 8 0
BBX 8 25 0 -6
BITMAP
0F
1F
1C
1C
18
18
18
18
18
38
38
F0
F0
38
38
18
18
18
18
18
18
1C
1C
1F
0F
ENDCHAR
STARTCHAR 007C
ENCODING 124
SWIDTH 227 0
DWIDTH 6 0
BBX 2 25 2 -6
BITMAP
C0
C0
C0
C0
C0
C0
C0
C0
C0
C0
C0
C0
C0
C0
C0
C0
C0
C0
C0
C0
C0
C0
C0
C0
C0
ENDCHAR
STARTCHAR 007D
ENCODING 125
SWIDTH 303 0
DWIDTH 8 0
BBX 8 25 0 -6
BITMAP
F0
F8
38
1C
1C
1C
1C
1C
1C
1C
1C
0F
0F
1E
1C
1C
1C
1C
1C
1C
1C
1C
38
F8
F0
ENDCHAR
STARTCHAR 007E
ENCODING 126
SWIDTH 454 0
DWIDTH 12 0
BBX 11 4 1 7
BITMAP
7820
FFE0
DFE0
07C0
ENDCHAR
STARTCHAR 00A0
ENCODING 160
SWIDTH 227 0
DWIDTH 6 0
BBX 0 0 0 0
BITMAP
ENDCHAR
STARTCHAR 00A1
ENCODING 161
SWIDTH 265 0
DWIDTH 7 0
BBX 3 18 2 -4
BITMAP
E0
E0
E0
00
00
00
E0
E0
E0
E0
E0
E0
E0
E0
E0
E0
E0
E0
ENDCHAR
STARTCHAR 00A2
ENCODING 162
SWIDTH 454 0
DWIDTH 12 0
BBX 10 18 1 0
BITMAP
0C00
0C00
0C00
3F80
7F80
EDC0
EDC0
EC00
EC00
CC00
EC00
EDC0
EDC0
7FC0
7F80
1E00
0C00
0C00
ENDCHAR
STARTCHAR 00A3
ENCODING 163
SWIDTH 454 0
DWIDTH 12 0
BBX 12 18 0 0
BITMAP
0F80
1FC0
38C0
38C0
3800
3800
3800
3800
FF00
FF00
3800
3800
3800
3070
70E0
FFE0
FFC0
FF80
ENDCHAR
STARTCHAR 00A4
ENCODING 164
SWIDTH 454 0
DWIDTH 12 0
BBX 10 13 1 2
BITMAP
4080
DFC0
FFC0
7F80
7380
E180
E180
E180
7380
7F80
FFC0
DFC0
4080
ENDCHAR
STARTCHAR 00A5
ENCODING 165
SWIDTH 454 0
DWIDTH 12 0
BBX 12 18 0 0
BITMAP
E070
70E0
70E0
31C0
39C0
3980
1F80
1F80
0F00
7FE0
7FE0
0E00
0E00
7FE0
7FE0
0E00
0E00
0E00
ENDCHAR
STARTCHAR 00A6
ENCODING 166
SWIDTH 227 0
DWIDTH 6 0
BBX 2 24 2 -6
BITMAP
C0
C0
C0
C0
C0
C0
C0
C0
C0
00
00
00
00
00
C0
C0
C0
C0
C0
C0
C0
C0
C0
C0
ENDCHAR
STARTCHAR 00A7
ENCODING 167
SWIDTH 454 0
DWIDTH 12 0
BBX 10 21 1 -3
BITMAP
3F00
7F80
E180
E180
E000
7800
7F00
7F80
E3C0
E1C0
E1C0
F1C0
7F80
3F00
0F80
01C0
01C0
C1C0
E1C0
FF80
3E00
ENDCHAR
STARTCHAR 00A8
ENCODING 168
SWIDTH 265 0
DWIDTH 7 0
BBX 7 3 0 15
BITMAP
C6
C6
C6
ENDCHAR
STARTCHAR 00A9
ENCODING 169
SWIDTH 606 0
DWIDTH 16 0
BBX 15 18 0 0
BITMAP
07C0
0C30
1008
200C
63C4
47E2
4C62
CC02
CC02
CC02
CC02
4E62
47E2
63C4
200C
1008
0C30
07C0
ENDCHAR
STARTCHAR 00AA
ENCODING 170
SWIDTH 303 0
DWIDTH 8 0
BBX 8 9 0 9
BITMAP
3C
7C
66
06
7E
66
EE
7F
73
ENDCHAR
STARTCHAR 00AB
ENCODING 171
SWIDTH 454 0
DWIDTH 12 0
BBX 10 10 1 2
BITMAP
39C0
3980
7380
6700
E700
E600
E700
7380
3380
39C0
ENDCHAR
STARTCHAR 00AC
ENCODING 172
SWIDTH 454 0
DWIDTH 12 0
BBX 11 8 1 2
BITMAP
FFE0
FFE0
FFE0
00E0
00E0
00E0
00E0
00E0
ENDCHAR
STARTCHAR 00AD
ENCODING 173
SWIDTH 265 0
DWIDTH 7 0
BBX 5 3 1 5
BITMAP
F8
F8
F8
ENDCHAR
STARTCHAR 00AE
ENCODING 174
SWIDTH 606 0
DWIDTH 16 0
BBX 15 18 0 0
BITMAP
07C0
0C30
1018
200C
67C4
47E6
4662
C662
C662
C7E2
C7C2
46C2
4662
6664
2004
1008
0C30
07C0
ENDCHAR
STARTCHAR 00AF
ENCODING 175
SWIDTH 265 0
DWIDTH 7 0
BBX 7 1 0 18
BITMAP
FE
ENDCHAR
STARTCHAR 00B0
ENCODING 176
SWIDTH 378 0
DWIDTH 10 0
BBX 8 8 1 10
BITMAP
3C
7E
E3
C3
C3
E3
7E
3C
ENDCHAR
STARTCHAR 00B1
ENCODING 177
SWIDTH 530 0
DWIDTH 14 0
BBX 13 16 1 0
BITMAP
0700
0700
0700
0700
FFF8
FFF8
FFF8
0700
0700
0700
0700
0000
0000
FFF8
FFF8
FFF8
ENDCHAR
STARTCHAR 00B2
ENCODING 178
SWIDTH 265 0
DWIDTH 7 0
BBX 6 9 1 9
BITMAP
70
F8
D8
18
38
70
C0
FC
FC
ENDCHAR
STARTCHAR 00B3
ENCODING 179
SWIDTH 265 0
DWIDTH 7 0
BBX 7 9 0 9
BITMAP
38
7C
2C
1C
1C
06
E6
7C
3C
ENDCHAR
STARTCHAR 00B4
ENCODING 180
SWIDTH 265 0
DWIDTH 7 0
BBX 5 4 1 15
BITMAP
38
70
60
C0
ENDCHAR
STARTCHAR 00B5
ENCODING 181
SWIDTH 492 0
DWIDTH 13 0
BBX 11 19 1 -5
BITMAP
F1E0
F1E0
F1E0
F1E0
F1E0
F1E0
F1E0
F1E0
F1E0
F1E0
F1E0
FFE0
FEE0
FEE0
F000
F000
F000
F000
F000
ENDCHAR
STARTCHAR 00B6
ENCODING 182
SWIDTH 454 0
DWIDTH 12 0
BBX 10 21 1 -3
BITMAP
3FC0
7FC0
F980
F980
F980
F980
F980
F980
3980
0980
0980
0980
0980
0980
0980
0980
0980
0980
0980
0980
0980
ENDCHAR
STARTCHAR 00B7
ENCODING 183
SWIDTH 265 0
DWIDTH 7 0
BBX 3 4 2 7
BITMAP
E0
E0
E0
E0
ENDCHAR
STARTCHAR 00B8
ENCODING 184
SWIDTH 265 0
DWIDTH 7 0
BBX 4 6 1 -6
BITMAP
40
70
30
30
30
E0
ENDCHAR
STARTCHAR 00B9
ENCODING 185
SWIDTH 265 0
DWIDTH 7 0
BBX 5 9 1 9
BITMAP
70
F0
30
30
30
30
30
F8
F8
ENDCHAR
STARTCHAR 00BA
ENCODING 186
SWIDTH 303 0
DWIDTH 8 0
BBX 7 9 0 9
BITMAP
3C
7E
66
66
E6
66
66
7E
3C
ENDCHAR
STARTCHAR 00BB
ENCODING 187
SWIDTH 454 0
DWIDTH 12 0
BBX 10 10 1 2
BITMAP
E600
6700
7380
3380
39C0
39C0
3980
7380
6700
E700
ENDCHAR
STARTCHAR 00BC
ENCODING 188
SWIDTH 682 0
DWIDTH 18 0
BBX 18 18 1 0
BITMAP
700600
F00600
B00C00
300C00
301800
301800
303000
FC3000
FC6000
006380
00C380
00C780
018D80
018980
031FC0
071FC0
060180
0E0000
ENDCHAR
STARTCHAR 00BD
ENCODING 189
SWIDTH 682 0
DWIDTH 18 0
BBX 18 18 1 0
BITMAP
700600
F00600
B00C00
301C00
301800
303800
303000
FC7000
FC6000
00C780
00CFC0
018CC0
0180C0
030180
030700
060E00
060FC0
0C0FC0
ENDCHAR
STARTCHAR 00BE
ENCODING 190
SWIDTH 682 0
DWIDTH 18 0
BBX 18 18 1 0
BITMAP
380600
7C0600
0C0C00
3C0C00
3C1800
0C1800
CC3000
7C3000
786000
006380
00C380
00C780
018D80
018980
031FC0
071FC0
060180
0E0000
ENDCHAR
STARTCHAR 00BF
ENCODING 191
SWIDTH 492 0
DWIDTH 13 0
BBX 11 18 1 -4
BITMAP
0E00
0E00
0E00
0000
0000
0E00
0E00
1E00
3C00
7800
7000
E000
E0E0
E0E0
F1E0
7FC0
7F80
1F00
ENDCHAR
STARTCHAR 00C0
ENCODING 192
SWIDTH 568 0
DWIDTH 15 0
BBX 14 23 1 0
BITMAP
0E00
0700
0380
0180
0000
0780
0F80
0F80
0FC0
0DC0
1DC0
1CC0
1CE0
38E0
38E0
3870
7FF0
7FF0
7FF8
7038
E038
E038
E01C
ENDCHAR
STARTCHAR 00C1
ENCODING 193
SWIDTH 568 0
DWIDTH 15 0
BBX 14 23 1 0
BITMAP
00E0
00C0
0180
0300
0000
0780
0F80
0F80
0FC0
0DC0
1DC0
1CC0
1CE0
38E0
38E0
3870
7FF0
7FF0
7FF8
7038
E038
E038
E01C
ENDCHAR
STARTCHAR 00C2
ENCODING 194
SWIDTH 568 0
DWIDTH 15 0
BBX 14 23 1 0
BITMAP
0380
07C0
06E0
0C60
0000
0780
0F80
0F80
0FC0
0DC0
1DC0
1CC0
1CE0
38E0
38E0
3870
7FF0
7FF0
7FF8
7038
E038
E038
E01C
ENDCHAR
STARTCHAR 00C3
ENCODING 195
SWIDTH 568 0
DWIDTH 15 0
BBX 14 23 1 0
BITMAP
0F30
0FE0
09E0
0000
0000
0780
0F80
0F80
0FC0
0DC0
1DC0
1CC0
1CE0
38E0
38E0
3870
7FF0
7FF0
7FF8
7038
E038
E038
E01C
ENDCHAR
STARTCHAR 00C4
ENCODING 196
SWIDTH 568 0
DWIDTH 15 0
BBX 14 22 1 0
BITMAP
0C60
0C60
0C60
0000
0780
0F80
0F80
0FC0
0DC0
1DC0
1CC0
1CE0
38E0
38E0
3870
7FF0
7FF0
7FF8
7038
E038
E038
E01C
ENDCHAR
STARTCHAR 00C5
ENCODING 197
SWIDTH 568 0
DWIDTH 15 0
BBX 14 23 1 0
BITMAP
0380
03C0
0640
0440
0640
07C0
0F80
0F80
0FC0
0DC0
1DC0
1CC0
1CE0
38E0
38E0
3870
7FF0
7FF0
7FF8
7038
E038
E038
E01C
ENDCHAR
STARTCHAR 00C6
ENCODING 198
SWIDTH 795 0
DWIDTH 21 0
BBX 20 18 0 0
BITMAP
01FFF0
01FFF0
03FFF0
03B800
073800
073800
073800
0E3FE0
0E3FE0
1E3FE0
1C3800
1FF800
3FF800
3FF800
783800
703FF0
703FF0
E03FF0
ENDCHAR
STARTCHAR 00C7
ENCODING 199
SWIDTH 568 0
DWIDTH 15 0
BBX 14 24 1 -6
BITMAP
0FC0
1FF0
3FF8
7878
7038
F010
E000
E000
E000
E000
E000
E000
F018
703C
7878
3FF8
1FF0
0FC0
0180
01C0
00C0
00C0
00C0
0380
ENDCHAR
STARTCHAR 00C8
ENCODING 200
SWIDTH 530 0
DWIDTH 14 0
BBX 12 23 1 0
BITMAP
0E00
0700
0300
0180
0000
FFF0
FFF0
FFF0
F000
F000
F000
F000
FFE0
FFE0
FFE0
F000
F000
F000
F000
F000
FFF0
FFF0
FFF0
ENDCHAR
STARTCHAR 00C9
ENCODING 201
SWIDTH 530 0
DWIDTH 14 0
BBX 12 23 1 0
BITMAP
00E0
01C0
0380
0700
0000
FFF0
FFF0
FFF0
F000
F000
F000
F000
FFE0
FFE0
FFE0
F000
F000
F000
F000
F000
FFF0
FFF0
FFF0
ENDCHAR
STARTCHAR 00CA
ENCODING 202
SWIDTH 530 0
DWIDTH 14 0
BBX 12 23 1 0
BITMAP
0380
07C0
0EC0
0C60
0000
FFF0
FFF0
FFF0
F000
F000
F000
F000
FFE0
FFE0
FFE0
F000
F000
F000
F000
F000
FFF0
FFF0
FFF0
ENDCHAR
STARTCHAR 00CB
ENCODING 203
SWIDTH 530 0
DWIDTH 14 0
BBX 12 22 1 0
BITMAP
0C60
0C60
0C60
0000
FFF0
FFF0
FFF0
F000
F000
F000
F000
FFE0
FFE0
FFE0
F000
F000
F000
F000
F000
FFF0
FFF0
FFF0
ENDCHAR
STARTCHAR 00CC
ENCODING 204
SWIDTH 227 0
DWIDTH 6 0
BBX 6 23 -1 0
BITMAP
E0
70
38
1C
00
3C
3C
3C
3C
3C
3C
3C
3C
3C
3C
3C
3C
3C
3C
3C
3C
3C
3C
ENDCHAR
STARTCHAR 00CD
ENCODING 205
SWIDTH 227 0
DWIDTH 6 0
BBX 5 23 1 0
BITMAP
38
38
60
C0
00
F0
F0
F0
F0
F0
F0
F0
F0
F0
F0
F0
F0
F0
F0
F0
F0
F0
F0
ENDCHAR
STARTCHAR 00CE
ENCODING 206
SWIDTH 227 0
DWIDTH 6 0
BBX 8 23 -1 0
BITMAP
38
3C
6E
C7
00
3C
3C
3C
3C
3C
3C
3C
3C
3C
3C
3C
3C
3C
3C
3C
3C
3C
3C
ENDCHAR
STARTCHAR 00CF
ENCODING 207
SWIDTH 227 0
DWIDTH 6 0
BBX 7 22 -1 0
BITMAP
C6
C6
C6
00
3C
3C
3C
3C
3C
3C
3C
3C
3C
3C
3C
3C
3C
3C
3C
3C
3C
3C
ENDCHAR
STARTCHAR 00D0
ENCODING 208
SWIDTH 568 0
DWIDTH 15 0
BBX 15 18 0 0
BITMAP
7FC0
7FE0
7FF8
7878
783C
781C
781C
781C
FF1C
FF1E
FF1C
781C
781C
783C
7878
7FF8
7FF0
7FC0
ENDCHAR
STARTCHAR 00D1
ENCODING 209
SWIDTH 568 0
DWIDTH 15 0
BBX 13 23 1 0
BITMAP
0F30
0FE0
09E0
0000
0000
F038
F838
F838
FC38
FC38
EC38
EE38
EE38
E738
E738
E3B8
E3B8
E1F8
E1F8
E0F8
E0F8
E078
E078
ENDCHAR
STARTCHAR 00D2
ENCODING 210
SWIDTH 644 0
DWIDTH 17 0
BBX 15 23 1 0
BITMAP
0380
01C0
00C0
0060
0000
0FC0
1FF0
3FF8
7878
703C
F01C
E01C
E01E
E00E
E00E
E01E
E01C
F01C
703C
7878
3FF8
1FF0
0FC0
ENDCHAR
STARTCHAR 00D3
ENCODING 211
SWIDTH 644 0
DWIDTH 17 0
BBX 15 23 1 0
BITMAP
0070
00E0
00C0
0180
0000
0FC0
1FF0
3FF8
7878
703C
F01C
E01C
E01E
E00E
E00E
E01E
E01C
F01C
703C
7878
3FF8
1FF0
0FC0
ENDCHAR
STARTCHAR 00D4
ENCODING 212
SWIDTH 644 0
DWIDTH 17 0
BBX 15 23 1 0
BITMAP
01C0
03E0
0760
0630
0000
0FC0
1FF0
3FF8
7878
703C
F01C
E01C
E01E
E00E
E00E
E01E
E01C
F01C
703C
7878
3FF8
1FF0
0FC0
ENDCHAR
STARTCHAR 00D5
ENCODING 213
SWIDTH 644 0
DWIDTH 17 0
BBX 15 23 1 0
BITMAP
0710
0FF0
0CE0
0000
0000
0FC0
1FF0
3FF8
7878
703C
F01C
E01C
E01E
E00E
E00E
E01E
E01C
F01C
703C
7878
3FF8
1FF0
0FC0
ENDCHAR
STARTCHAR 00D6
ENCODING 214
SWIDTH 644 0
DWIDTH 17 0
BBX 15 22 1 0
BITMAP
0630
0630
0630
0000
0FC0
1FF0
3FF8
7878
703C
F01C
E01C
E01E
E00E
E00E
E01E
E01C
F01C
703C
7878
3FF8
1FF0
0FC0
ENDCHAR
STARTCHAR 00D7
ENCODING 215
SWIDTH 454 0
DWIDTH 12 0
BBX 10 13 1 2
BITMAP
4080
E0C0
F1C0
7380
3F00
1F00
0E00
1F00
3F80
7380
F1C0
E0C0
4080
ENDCHAR
STARTCHAR 00D8
ENCODING 216
SWIDTH 644 0
DWIDTH 17 0
BBX 15 20 1 -1
BITMAP
000C
0FD8
1FF8
3FF8
787C
707C
F0DC
E0DE
E19E
E18E
E30E
E61E
E61C
FC1C
7C3C
7878
3FF8
3FF0
6FC0
6000
ENDCHAR
STARTCHAR 00D9
ENCODING 217
SWIDTH 568 0
DWIDTH 15 0
BBX 13 23 1 0
BITMAP
0E00
0700
0380
0180
0000
E038
E038
E038
E038
E038
E038
E038
E038
E038
E038
E038
E038
F038
7078
78F0
7FF0
3FE0
0F80
ENDCHAR
STARTCHAR 00DA
ENCODING 218
SWIDTH 568 0
DWIDTH 15 0
BBX 13 23 1 0
BITMAP
0070
00E0
01C0
0380
0000
E038
E038
E038
E038
E038
E038
E038
E038
E038
E038
E038
E038
F038
7078
78F0
7FF0
3FE0
0F80
ENDCHAR
STARTCHAR 00DB
ENCODING 219
SWIDTH 568 0
DWIDTH 15 0
BBX 13 23 1 0
BITMAP
0380
07C0
06E0
0C60
0000
E038
E038
E038
E038
E038
E038
E038
E038
E038
E038
E038
E038
F038
7078
78F0
7FF0
3FE0
0F80
ENDCHAR
STARTCHAR 00DC
ENCODING 220
SWIDTH 568 0
DWIDTH 15 0
BBX 13 22 1 0
BITMAP
0C60
0C60
0C60
0000
E038
E038
E038
E038
E038
E038
E038
E038
E038
E038
E038
E038
F038
7078
78F0
7FF0
3FE0
0F80
ENDCHAR
STARTCHAR 00DD
ENCODING 221
SWIDTH 530 0
DWIDTH 14 0
BBX 13 23 1 0
BITMAP
00E0
01C0
0380
0700
0000
E078
E070
70F0
70E0
38E0
39C0
1DC0
1F80
0F80
0F00
0700
0700
0700
0700
0700
0700
0700
0700
ENDCHAR
STARTCHAR 00DE
ENCODING 222
SWIDTH 530 0
DWIDTH 14 0
BBX 12 18 1 0
BITMAP
F000
F000
F000
FFC0
FFE0
FFF0
F0F0
F070
F070
F070
F070
F0F0
FFF0
FFE0
FFC0
F000
F000
F000
ENDCHAR
STARTCHAR 00DF
ENCODING 223
SWIDTH 492 0
DWIDTH 13 0
BBX 11 19 1 0
BITMAP
1F00
3F80
7FC0
71C0
71C0
F1C0
E1C0
E380
E700
E700
E780
E3C0
E1E0
E0E0
E0E0
E060
E0E0
E7E0
E7C0
ENDCHAR
STARTCHAR 00E0
ENCODING 224
SWIDTH 454 0
DWIDTH 12 0
BBX 11 19 1 0
BITMAP
3800
1C00
0C00
0600
0000
3E00
7F00
E380
E380
0380
3F80
7F80
E380
E380
E380
E380
E7C0
FDE0
79E0
ENDCHAR
STARTCHAR 00E1
ENCODING 225
SWIDTH 454 0
DWIDTH 12 0
BBX 11 19 1 0
BITMAP
0380
0700
0E00
0C00
0000
3E00
7F00
E380
E380
0380
3F80
7F80
E380
E380
E380
E380
E7C0
FDE0
79E0
ENDCHAR
STARTCHAR 00E2
ENCODING 226
SWIDTH 454 0
DWIDTH 12 0
BBX 11 19 1 0
BITMAP
0E00
1F00
3B00
3180
0000
3E00
7F00
E380
E380
0380
3F80
7F80
E380
E380
E380
E380
E7C0
FDE0
79E0
ENDCHAR
STARTCHAR 00E3
ENCODING 227
SWIDTH 454 0
DWIDTH 12 0
BBX 11 19 1 0
BITMAP
3880
7F80
6700
0000
0000
3E00
7F00
E380
E380
0380
3F80
7F80
E380
E380
E380
E380
E7C0
FDE0
79E0
ENDCHAR
STARTCHAR 00E4
ENCODING 228
SWIDTH 454 0
DWIDTH 12 0
BBX 11 18 1 0
BITMAP
3380
3380
3380
0000
3E00
7F00
E380
E380
0380
3F80
7F80
E380
E380
E380
E380
E7C0
FDE0
79E0
ENDCHAR
STARTCHAR 00E5
ENCODING 229
SWIDTH 454 0
DWIDTH 12 0
BBX 11 22 1 0
BITMAP
0E00
1F00
1300
1100
1300
1F00
0E00
0000
3E00
7F00
E380
E380
0380
3F80
7F80
E380
E380
E380
E380
E7C0
FDE0
79E0
ENDCHAR
STARTCHAR 00E6
ENCODING 230
SWIDTH 720 0
DWIDTH 19 0
BBX 17 14 1 0
BITMAP
1F3C00
7FFE00
73E700
E1C300
01C380
01C380
3FFF80
7FFF80
E1C000
E1C000
E3C200
E7E380
FEFF00
7C7E00
ENDCHAR
STARTCHAR 00E7
ENCODING 231
SWIDTH 454 0
DWIDTH 12 0
BBX 10 20 1 -6
BITMAP
1F00
3F80
73C0
E1C0
E000
E000
E000
E000
E000
E1C0
E1C0
73C0
7F80
1F00
0400
0E00
0300
0300
0300
0E00
ENDCHAR
STARTCHAR 00E8
ENCODING 232
SWIDTH 454 0
DWIDTH 12 0
BBX 10 19 1 0
BITMAP
3C00
1C00
0E00
0300
0000
1E00
3F00
7380
E1C0
E1C0
E1C0
FFC0
FFC0
E000
E000
E180
71C0
7F80
1F00
ENDCHAR
STARTCHAR 00E9
ENCODING 233
SWIDTH 454 0
DWIDTH 12 0
BBX 10 19 1 0
BITMAP
0380
0300
0600
0C00
0000
1E00
3F00
7380
E1C0
E1C0
E1C0
FFC0
FFC0
E000
E000
E180
71C0
7F80
1F00
ENDCHAR
STARTCHAR 00EA
ENCODING 234
SWIDTH 454 0
DWIDTH 12 0
BBX 10 19 1 0
BITMAP
0E00
1F00
1B80
3180
0000
1E00
3F00
7380
E1C0
E1C0
E1C0
FFC0
FFC0
E000
E000
E180
71C0
7F80
1F00
ENDCHAR
STARTCHAR 00EB
ENCODING 235
SWIDTH 454 0
DWIDTH 12 0
BBX 10 18 1 0
BITMAP
3980
3980
3980
0000
1E00
3F00
7380
E1C0
E1C0
E1C0
FFC0
FFC0
E000
E000
E180
71C0
7F80
1F00
ENDCHAR
STARTCHAR 00EC
ENCODING 236
SWIDTH 227 0
DWIDTH 6 0
BBX 5 19 -1 0
BITMAP
E0
70
38
18
00
18
18
18
18
18
18
18
18
18
18
18
18
18
18
ENDCHAR
STARTCHAR 00ED
ENCODING 237
SWIDTH 227 0
DWIDTH 6 0
BBX 6 19 1 0
BITMAP
3C
38
70
E0
00
60
60
60
60
60
60
60
60
60
60
60
60
60
60
ENDCHAR
STARTCHAR 00EE
ENCODING 238
SWIDTH 227 0
DWIDTH 6 0
BBX 8 19 -1 0
BITMAP
38
3C
66
C7
00
18
18
18
18
18
18
18
18
18
18
18
18
18
18
ENDCHAR
STARTCHAR 00EF
ENCODING 239
SWIDTH 227 0
DWIDTH 6 0
BBX 7 18 -1 0
BITMAP
E6
E6
E6
00
18
18
18
18
18
18
18
18
18
18
18
18
18
18
ENDCHAR
STARTCHAR 00F0
ENCODING 240
SWIDTH 492 0
DWIDTH 13 0
BBX 11 19 1 0
BITMAP
3880
1F80
0F80
1F00
1B80
03C0
01C0
1FC0
7FE0
71E0
E0E0
E0E0
E0E0
E0E0
E0E0
E0E0
71C0
7F80
1F00
ENDCHAR
STARTCHAR 00F1
ENCODING 241
SWIDTH 492 0
DWIDTH 13 0
BBX 11 19 1 0
BITMAP
1C40
3FC0
3380
0000
0000
E780
EFC0
EFC0
F9E0
F0E0
F0E0
E0E0
E0E0
E0E0
E0E0
E0E0
E0E0
E0E0
E0E0
ENDCHAR
STARTCHAR 00F2
ENCODING 242
SWIDTH 492 0
DWIDTH 13 0
BBX 11 19 1 0
BITMAP
1C00
0E00
0700
0300
0000
1F00
3F80
71C0
E0E0
E0E0
E0E0
E0E0
E0E0
E0E0
E0E0
E0E0
71C0
3F80
1F00
ENDCHAR
STARTCHAR 00F3
ENCODING 243
SWIDTH 492 0
DWIDTH 13 0
BBX 11 19 1 0
BITMAP
01C0
0380
0700
0600
0000
1F00
3F80
71C0
E0E0
E0E0
E0E0
E0E0
E0E0
E0E0
E0E0
E0E0
71C0
3F80
1F00
ENDCHAR
STARTCHAR 00F4
ENCODING 244
SWIDTH 492 0
DWIDTH 13 0
BBX 11 19 1 0
BITMAP
0700
0F00
1980
30C0
0000
1F00
3F80
71C0
E0E0
E0E0
E0E0
E0E0
E0E0
E0E0
E0E0
E0E0
71C0
3F80
1F00
ENDCHAR
STARTCHAR 00F5
ENCODING 245
SWIDTH 492 0
DWIDTH 13 0
BBX 11 19 1 0
BITMAP
1C40
3FC0
3380
0000
0000
1F00
3F80
71C0
E0E0
E0E0
E0E0
E0E0
E0E0
E0E0
E0E0
E0E0
71C0
3F80
1F00
ENDCHAR
STARTCHAR 00F6
ENCODING 246
SWIDTH 492 0
DWIDTH 13 0
BBX 11 18 1 0
BITMAP
19C0
19C0
19C0
0000
1F00
3F80
71C0
E0E0
E0E0
E0E0
E0E0
E0E0
E0E0
E0E0
E0E0
71C0
3F80
1F00
ENDCHAR
STARTCHAR 00F7
ENCODING 247
SWIDTH 530 0
DWIDTH 14 0
BBX 13 13 1 2
BITMAP
0700
0700
0700
0000
0000
FFF8
FFF8
FFF8
0000
0000
0700
0700
0700
ENDCHAR
STARTCHAR 00F8
ENCODING 248
SWIDTH 492 0
DWIDTH 13 0
BBX 12 15 0 -1
BITMAP
0FB0
1FF0
38E0
70F0
71F0
71F0
7370
7670
7470
7C70
7870
38E0
3FC0
6F80
C000
ENDCHAR
STARTCHAR 00F9
ENCODING 249
SWIDTH 492 0
DWIDTH 13 0
BBX 11 19 1 0
BITMAP
3800
1C00
0E00
0700
0000
E0E0
E0E0
E0E0
E0E0
E0E0
E0E0
E0E0
E0E0
E1E0
E1E0
F3E0
7EE0
7EE0
3CE0
ENDCHAR
STARTCHAR 00FA
ENCODING 250
SWIDTH 492 0
DWIDTH 13 0
BBX 11 19 1 0
BITMAP
01C0
0380
0700
0600
0000
E0E0
E0E0
E0E0
E0E0
E0E0
E0E0
E0E0
E0E0
E1E0
E1E0
F3E0
7EE0
7EE0
3CE0
ENDCHAR
STARTCHAR 00FB
ENCODING 251
SWIDTH 492 0
DWIDTH 13 0
BBX 11 19 1 0
BITMAP
0700
0F00
1980
30C0
0000
E0E0
E0E0
E0E0
E0E0
E0E0
E0E0
E0E0
E0E0
E1E0
E1E0
F3E0
7EE0
7EE0
3CE0
ENDCHAR
STARTCHAR 00FC
ENCODING 252
SWIDTH 492 0
DWIDTH 13 0
BBX 11 18 1 0
BITMAP
19C0
19C0
19C0
0000
E0E0
E0E0
E0E0
E0E0
E0E0
E0E0
E0E0
E0E0
E1E0
E1E0
F3E0
7EE0
7EE0
3CE0
ENDCHAR
STARTCHAR 00FD
ENCODING 253
SWIDTH 454 0
DWIDTH 12 0
BBX 12 25 0 -6
BITMAP
01C0
0180
0300
0600
0000
E070
70E0
70E0
70E0
30C0
39C0
39C0
1980
1D80
1F80
0F80
0F00
0F00
0700
0E00
0E00
1E00
7C00
7C00
7800
ENDCHAR
STARTCHAR 00FE
ENCODING 254
SWIDTH 492 0
DWIDTH 13 0
BBX 11 24 1 -5
BITMAP
E000
E000
E000
E000
E000
E000
E780
EFC0
F9C0
F0E0
F0E0
E0E0
E0E0
E0E0
F0E0
F0E0
F1C0
EFC0
E780
E000
E000
E000
E000
E000
ENDCHAR
STARTCHAR 00FF
ENCODING 255
SWIDTH 454 0
DWIDTH 12 0
BBX 12 24 0 -6
BITMAP
18C0
18C0
18C0
0000
E070
70E0
70E0
70E0
30C0
39C0
39C0
1980
1D80
1F80
0F80
0F00
0F00
0700
0E00
0E00
1E00
7C00
7C00
7800
ENDCHAR
STARTCHAR 0100
ENCODING 256
SWIDTH 568 0
DWIDTH 15 0
BBX 16 21 1 0
BITMAP
07FF
07FF
0000
0780
0F80
0F80
0FC0
0DC0
1DC0
1CC0
1CE0
38E0
38E0
3870
7FF0
7FF0
7FF8
7038
E038
E038
E01C
ENDCHAR
STARTCHAR 0101
ENCODING 257
SWIDTH 454 0
DWIDTH 12 0
BBX 14 17 1 0
BITMAP
1FFC
1FFC
0000
3E00
7F80
F380
E380
0380
3F80
7F80
E380
E380
E380
E380
E7C0
FDE0
78E0
ENDCHAR
STARTCHAR 0102
ENCODING 258
SWIDTH 568 0
DWIDTH 15 0
BBX 14 22 1 0
BITMAP
0C60
0FE0
03C0
0000
0780
0F80
0F80
0FC0
0DC0
1DC0
1CC0
1CE0
38E0
38E0
3870
7FF0
7FF0
7FF8
7038
E038
E038
E01C
ENDCHAR
STARTCHAR 0103
ENCODING 259
SWIDTH 454 0
DWIDTH 12 0
BBX 11 19 1 0
BITMAP
3080
3180
1F80
0F00
0000
3E00
7F80
F380
E380
0380
3F80
7F80
E380
E380
E380
E380
E7C0
FDE0
78E0
ENDCHAR
STARTCHAR 0104
ENCODING 260
SWIDTH 568 0
DWIDTH 15 0
BBX 16 24 1 -6
BITMAP
0780
0F80
0F80
0FC0
0DC0
1DC0
1CC0
1CE0
38E0
38E0
3870
7FF0
7FF0
7FF8
7038
E038
E038
E01C
0006
000C
000C
000C
000F
0007
ENDCHAR
STARTCHAR 0105
ENCODING 261
SWIDTH 454 0
DWIDTH 12 0
BBX 12 20 1 -6
BITMAP
3E00
7F80
F380
E380
0380
3F80
7F80
E380
E380
E380
E380
E7C0
FDE0
78E0
0040
00C0
0080
00C0
00F0
00F0
ENDCHAR
STARTCHAR 0106
ENCODING 262
SWIDTH 568 0
DWIDTH 15 0
BBX 14 23 1 0
BITMAP
0070
0060
00C0
0180
0000
0FC0
1FF0
3FF8
7878
7038
F010
E000
E000
E000
E000
E000
E000
F018
703C
7878
3FF8
1FF0
0FC0
ENDCHAR
STARTCHAR 0107
ENCODING 263
SWIDTH 454 0
DWIDTH 12 0
BBX 10 19 1 0
BITMAP
01C0
0380
0700
0600
0000
1F00
3F80
73C0
E1C0
E000
E000
E000
E000
E000
E1C0
E1C0
73C0
7F80
1F00
ENDCHAR
STARTCHAR 0108
ENCODING 264
SWIDTH 568 0
DWIDTH 15 0
BBX 14 23 1 0
BITMAP
01C0
03E0
0760
0630
0000
0FC0
1FF0
3FF8
7878
7038
F010
E000
E000
E000
E000
E000
E000
F018
703C
7878
3FF8
1FF0
0FC0
ENDCHAR
STARTCHAR 0109
ENCODING 265
SWIDTH 454 0
DWIDTH 12 0
BBX 10 19 1 0
BITMAP
0E00
1F00
1B80
3180
0000
1F00
3F80
73C0
E1C0
E000
E000
E000
E000
E000
E1C0
E1C0
73C0
7F80
1F00
ENDCHAR
STARTCHAR 010A
ENCODING 266
SWIDTH 568 0
DWIDTH 15 0
BBX 14 22 1 0
BITMAP
01C0
01C0
01C0
0000
0FC0
1FF0
3FF8
7878
7038
F010
E000
E000
E000
E000
E000
E000
F018
703C
7878
3FF8
1FF0
0FC0
ENDCHAR
STARTCHAR 010B
ENCODING 267
SWIDTH 454 0
DWIDTH 12 0
BBX 10 19 1 0
BITMAP
0E00
0E00
0E00
0000
0000
1F00
3F80
73C0
E1C0
E000
E000
E000
E000
E000
E1C0
E1C0
73C0
7F80
1F00
ENDCHAR
STARTCHAR 010C
ENCODING 268
SWIDTH 568 0
DWIDTH 15 0
BBX 14 23 1 0
BITMAP
0E30
0760
03C0
01C0
0000
0FC0
1FF0
3FF8
7878
7038
F010
E000
E000
E000
E000
E000
E000
F018
703C
7878
3FF8
1FF0
0FC0
ENDCHAR
STARTCHAR 010D
ENCODING 269
SWIDTH 454 0
DWIDTH 12 0
BBX 10 19 1 0
BITMAP
3180
1B80
1F00
0E00
0000
1F00
3F80
73C0
E1C0
E000
E000
E000
E000
E000
E1C0
E1C0
73C0
7F80
1F00
ENDCHAR
STARTCHAR 010E
ENCODING 270
SWIDTH 568 0
DWIDTH 15 0
BBX 13 23 1 0
BITMAP
1860
0EC0
0780
0380
0000
FF80
FFE0
FFF0
F0F0
F078
F038
F038
F038
F038
F038
F038
F038
F038
F078
F0F0
FFF0
FFE0
FF80
ENDCHAR
STARTCHAR 010F
ENCODING 271
SWIDTH 568 0
DWIDTH 15 0
BBX 17 19 1 0
BITMAP
00E380
00E380
00E380
00E180
00E100
3CE000
7EE000
73E000
E1E000
E1E000
E0E000
E0E000
E0E000
E0E000
E1E000
E1E000
73E000
7EE000
3CE000
ENDCHAR
STARTCHAR 0110
ENCODING 272
SWIDTH 568 0
DWIDTH 15 0
BBX 15 18 0 0
BITMAP
7FC0
7FE0
7FF8
7878
783C
781C
781C
781C
FF1C
FF1E
FF1C
781C
781C
783C
7878
7FF8
7FF0
7FC0
ENDCHAR
STARTCHAR 0111
ENCODING 273
SWIDTH 492 0
DWIDTH 13 0
BBX 12 19 1 0
BITMAP
00E0
00E0
07F0
07F0
00E0
00E0
3CE0
7EE0
71E0
E1E0
E0E0
E0E0
E0E0
E0E0
E1E0
E1E0
71E0
7EE0
3CE0
ENDCHAR
STARTCHAR 0112
ENCODING 274
SWIDTH 530 0
DWIDTH 14 0
BBX 16 21 1 0
BITMAP
0FFF
0FFF
0000
FFF0
FFF0
FFF0
F000
F000
F000
F000
FFE0
FFE0
FFE0
F000
F000
F000
F000
F000
FFF0
FFF0
FFF0
ENDCHAR
STARTCHAR 0113
ENCODING 275
SWIDTH 454 0
DWIDTH 12 0
BBX 14 17 1 0
BITMAP
1FFC
1FFC
0000
1E00
3F00
7380
E1C0
E1C0
E1C0
FFC0
FFC0
E000
E000
E180
71C0
7F80
1F00
ENDCHAR
STARTCHAR 0114
ENCODING 276
SWIDTH 530 0
DWIDTH 14 0
BBX 12 22 1 0
BITMAP
0C60
0FC0
0780
0000
FFF0
FFF0
FFF0
F000
F000
F000
F000
FFE0
FFE0
FFE0
F000
F000
F000
F000
F000
FFF0
FFF0
FFF0
ENDCHAR
STARTCHAR 0115
ENCODING 277
SWIDTH 454 0
DWIDTH 12 0
BBX 10 19 1 0
BITMAP
3180
3180
1F00
0E00
0000
1E00
3F00
7380
E1C0
E1C0
E1C0
FFC0
FFC0
E000
E000
E180
71C0
7F80
1F00
ENDCHAR
STARTCHAR 0116
ENCODING 278
SWIDTH 530 0
DWIDTH 14 0
BBX 12 22 1 0
BITMAP
0380
0380
0380
0000
FFF0
FFF0
FFF0
F000
F000
F000
F000
FFE0
FFE0
FFE0
F000
F000
F000
F000
F000
FFF0
FFF0
FFF0
ENDCHAR
STARTCHAR 0117
ENCODING 279
SWIDTH 454 0
DWIDTH 12 0
BBX 10 19 1 0
BITMAP
0E00
0E00
0E00
0000
0000
1E00
3F00
7380
E1C0
E1C0
E1C0
FFC0
FFC0
E000
E000
E180
71C0
7F80
1F00
ENDCHAR
STARTCHAR 0118
ENCODING 280
SWIDTH 530 0
DWIDTH 14 0
BBX 13 24 1 -6
BITMAP
FFF0
FFF0
FFF0
F000
F000
F000
F000
FFE0
FFE0
FFE0
F000
F000
F000
F000
F000
FFF0
FFF0
FFF0
0010
0030
0060
0060
0038
0038
ENDCHAR
STARTCHAR 0119
ENCODING 281
SWIDTH 454 0
DWIDTH 12 0
BBX 10 20 1 -6
BITMAP
1E00
3F00
7380
E1C0
E1C0
E1C0
FFC0
FFC0
E000
E000
E180
71C0
7F80
1F00
0180
0300
0300
0300
03C0
01C0
ENDCHAR
STARTCHAR 011A
ENCODING 282
SWIDTH 530 0
DWIDTH 14 0
BBX 12 23 1 0
BITMAP
1C60
0EC0
07C0
0380
0000
FFF0
FFF0
FFF0
F000
F000
F000
F000
FFE0
FFE0
FFE0
F000
F000
F000
F000
F000
FFF0
FFF0
FFF0
ENDCHAR
STARTCHAR 011B
ENCODING 283
SWIDTH 454 0
DWIDTH 12 0
BBX 10 19 1 0
BITMAP
3180
1B80
1F00
0E00
0000
1E00
3F00
7380
E1C0
E1C0
E1C0
FFC0
FFC0
E000
E000
E180
71C0
7F80
1F00
ENDCHAR
STARTCHAR 011C
ENCODING 284
SWIDTH 644 0
DWIDTH 17 0
BBX 14 23 1 0
BITMAP
01C0
03E0
0760
0630
0000
0FC0
1FF0
3FF8
7878
703C
F010
E000
E000
E000
E0FC
E0FC
E0FC
F01C
F01C
783C
3FFC
1FF0
0FC0
ENDCHAR
STARTCHAR 011D
ENCODING 285
SWIDTH 492 0
DWIDTH 13 0
BBX 11 25 1 -6
BITMAP
0E00
0F00
1980
31C0
0000
3CE0
7EE0
73E0
E1E0
E1E0
E0E0
E0E0
E0E0
E0E0
E1E0
E1E0
73E0
7EE0
3CE0
00E0
01C0
E1C0
71C0
7F80
1F00
ENDCHAR
STARTCHAR 011E
ENCODING 286
SWIDTH 644 0
DWIDTH 17 0
BBX 14 22 1 0
BITMAP
0630
07F0
03E0
0000
0FC0
1FF0
3FF8
7878
703C
F010
E000
E000
E000
E0FC
E0FC
E0FC
F01C
F01C
783C
3FFC
1FF0
0FC0
ENDCHAR
STARTCHAR 011F
ENCODING 287
SWIDTH 492 0
DWIDTH 13 0
BBX 11 25 1 -6
BITMAP
30C0
1980
1F80
0F00
0000
3CE0
7EE0
73E0
E1E0
E1E0
E0E0
E0E0
E0E0
E0E0
E1E0
E1E0
73E0
7EE0
3CE0
00E0
01C0
E1C0
71C0
7F80
1F00
ENDCHAR
STARTCHAR 0120
ENCODING 288
SWIDTH 644 0
DWIDTH 17 0
BBX 14 22 1 0
BITMAP
01C0
01C0
01C0
0000
0FC0
1FF0
3FF8
7878
703C
F010
E000
E000
E000
E0FC
E0FC
E0FC
F01C
F01C
783C
3FFC
1FF0
0FC0
ENDCHAR
STARTCHAR 0121
ENCODING 289
SWIDTH 492 0
DWIDTH 13 0
BBX 11 25 1 -6
BITMAP
0700
0700
0700
0000
0000
3CE0
7EE0
73E0
E1E0
E1E0
E0E0
E0E0
E0E0
E0E0
E1E0
E1E0
73E0
7EE0
3CE0
00E0
01C0
E1C0
71C0
7F80
1F00
ENDCHAR
STARTCHAR 0122
ENCODING 290
SWIDTH 644 0
DWIDTH 17 0
BBX 14 23 1 -5
BITMAP
0FC0
1FF0
3FF8
7878
703C
F010
E000
E000
E000
E0FC
E0FC
E0FC
F01C
F01C
783C
3FFC
1FF0
0FC0
0000
00C0
00C0
00C0
00C0
ENDCHAR
STARTCHAR 0123
ENCODING 291
SWIDTH 492 0
DWIDTH 13 0
BBX 11 26 1 -6
BITMAP
0200
0600
0700
0700
0700
0000
3CE0
7EE0
73E0
E1E0
E1E0
E0E0
E0E0
E0E0
E0E0
E1E0
E1E0
73E0
7EE0
3CE0
00E0
01C0
E1C0
71C0
7F80
1F00
ENDCHAR
STARTCHAR 0124
ENCODING 292
SWIDTH 568 0
DWIDTH 15 0
BBX 13 23 1 0
BITMAP
0380
07C0
06E0
0C60
0000
F038
F038
F038
F038
F038
F038
F038
FFF8
FFF8
FFF8
F038
F038
F038
F038
F038
F038
F038
F038
ENDCHAR
STARTCHAR 0125
ENCODING 293
SWIDTH 492 0
DWIDTH 13 0
BBX 11 24 1 0
BITMAP
0700
0F80
1D80
18C0
0000
E000
E000
E000
E000
E000
E780
EFC0
EFC0
F9E0
F0E0
F0E0
E0E0
E0E0
E0E0
E0E0
E0E0
E0E0
E0E0
E0E0
ENDCHAR
STARTCHAR 0126
ENCODING 294
SWIDTH 568 0
DWIDTH 15 0
BBX 15 18 0 0
BITMAP
781C
781C
781C
FFFE
FFFE
781C
781C
7FFC
7FFC
7FFC
781C
781C
781C
781C
781C
781C
781C
781C
ENDCHAR
STARTCHAR 0127
ENCODING 295
SWIDTH 492 0
DWIDTH 13 0
BBX 12 19 0 0
BITMAP
7000
7000
FF00
FF00
7000
73C0
77E0
77E0
7CF0
7870
7870
7070
7070
7070
7070
7070
7070
7070
7070
ENDCHAR
STARTCHAR 0128
ENCODING 296
SWIDTH 227 0
DWIDTH 6 0
BBX 8 23 -1 0
BITMAP
73
FF
8E
00
00
3C
3C
3C
3C
3C
3C
3C
3C
3C
3C
3C
3C
3C
3C
3C
3C
3C
3C
ENDCHAR
STARTCHAR 0129
ENCODING 297
SWIDTH 227 0
DWIDTH 6 0
BBX 8 19 -1 0
BITMAP
73
FF
8E
00
00
18
18
18
18
18
18
18
18
18
18
18
18
18
18
ENDCHAR
STARTCHAR 012A
ENCODING 298
SWIDTH 227 0
DWIDTH 6 0
BBX 12 21 0 0
BITMAP
FFF0
FFF0
0000
7800
7800
7800
7800
7800
7800
7800
7800
7800
7800
7800
7800
7800
7800
7800
7800
7800
7800
ENDCHAR
STARTCHAR 012B
ENCODING 299
SWIDTH 227 0
DWIDTH 6 0
BBX 12 17 0 0
BITMAP
FFF0
FFF0
0000
3000
3000
3000
3000
3000
3000
3000
3000
3000
3000
3000
3000
3000
3000
ENDCHAR
STARTCHAR 012C
ENCODING 300
SWIDTH 227 0
DWIDTH 6 0
BBX 7 22 -1 0
BITMAP
C6
7E
3C
00
3C
3C
3C
3C
3C
3C
3C
3C
3C
3C
3C
3C
3C
3C
3C
3C
3C
3C
ENDCHAR
STARTCHAR 012D
ENCODING 301
SWIDTH 227 0
DWIDTH 6 0
BBX 8 19 -1 0
BITMAP
C3
66
7E
3C
00
18
18
18
18
18
18
18
18
18
18
18
18
18
18
ENDCHAR
STARTCHAR 012E
ENCODING 302
SWIDTH 227 0
DWIDTH 6 0
BBX 4 24 1 -6
BITMAP
F0
F0
F0
F0
F0
F0
F0
F0
F0
F0
F0
F0
F0
F0
F0
F0
F0
F0
60
C0
C0
C0
F0
70
ENDCHAR
STARTCHAR 012F
ENCODING 303
SWIDTH 227 0
DWIDTH 6 0
BBX 4 25 1 -6
BITMAP
E0
E0
E0
00
00
E0
E0
E0
E0
E0
E0
E0
E0
E0
E0
E0
E0
E0
E0
60
C0
C0
C0
F0
70
ENDCHAR
STARTCHAR 0130
ENCODING 304
SWIDTH 227 0
DWIDTH 6 0
BBX 4 22 1 0
BITMAP
E0
E0
E0
00
F0
F0
F0
F0
F0
F0
F0
F0
F0
F0
F0
F0
F0
F0
F0
F0
F0
F0
ENDCHAR
STARTCHAR 0131
ENCODING 305
SWIDTH 227 0
DWIDTH 6 0
BBX 2 14 2 0
BITMAP
C0
C0
C0
C0
C0
C0
C0
C0
C0
C0
C0
C0
C0
C0
ENDCHAR
STARTCHAR 0132
ENCODING 306
SWIDTH 682 0
DWIDTH 18 0
BBX 15 18 1 0
BITMAP
F07E
F07E
F07E
F00E
F00E
F00E
F00E
F00E
F00E
F00E
F00E
F00E
F10E
F78E
F38E
F3FE
F1FC
F0F8
ENDCHAR
STARTCHAR 0133
ENCODING 307
SWIDTH 454 0
DWIDTH 12 0
BBX 11 25 1 -6
BITMAP
E0E0
E0E0
E0E0
0000
0000
E0E0
E0E0
E0E0
E0E0
E0E0
E0E0
E0E0
E0E0
E0E0
E0E0
E0E0
E0E0
E0E0
E0E0
00E0
00E0
01E0
03E0
03C0
0380
ENDCHAR
STARTCHAR 0134
ENCODING 308
SWIDTH 454 0
DWIDTH 12 0
BBX 12 23 0 0
BITMAP
03C0
03C0
0660
0C30
0000
0FC0
0FC0
0FC0
01C0
01C0
01C0
01C0
01C0
01C0
01C0
01C0
01C0
21C0
F1C0
71C0
7FC0
3F80
1F00
ENDCHAR
STARTCHAR 0135
ENCODING 309
SWIDTH 227 0
DWIDTH 6 0
BBX 8 25 -1 -6
BITMAP
3C
7C
66
C3
00
38
38
38
38
38
38
38
38
38
38
38
38
38
38
38
38
38
78
78
70
ENDCHAR
STARTCHAR 0136
ENCODING 310
SWIDTH 568 0
DWIDTH 15 0
BBX 14 23 1 -5
BITMAP
F038
F070
F0F0
F1E0
F3C0
F380
F700
FF00
FF00
FF80
FB80
F3C0
F1E0
F0E0
F0F0
F078
F038
F03C
0000
0180
0180
0180
0080
ENDCHAR
STARTCHAR 0137
ENCODING 311
SWIDTH 454 0
DWIDTH 12 0
BBX 11 24 1 -5
BITMAP
E000
E000
E000
E000
E000
E1C0
E3C0
E380
E700
EE00
EE00
FE00
FF00
F700
E780
E380
E3C0
E1C0
E1E0
0000
0600
0600
0600
0200
ENDCHAR
STARTCHAR 0138
ENCODING 312
SWIDTH 454 0
DWIDTH 12 0
BBX 11 14 1 0
BITMAP
E1C0
E3C0
E380
E700
EE00
EE00
FE00
FF00
F700
E380
E380
E3C0
E1C0
E1E0
ENDCHAR
STARTCHAR 0139
ENCODING 313
SWIDTH 492 0
DWIDTH 13 0
BBX 11 23 1 0
BITMAP
0E00
0E00
1800
3000
0000
F000
F000
F000
F000
F000
F000
F000
F000
F000
F000
F000
F000
F000
F000
F000
FFE0
FFE0
FFE0
ENDCHAR
STARTCHAR 013A
ENCODING 314
SWIDTH 227 0
DWIDTH 6 0
BBX 5 24 1 0
BITMAP
38
38
70
C0
00
E0
E0
E0
E0
E0
E0
E0
E0
E0
E0
E0
E0
E0
E0
E0
E0
E0
E0
E0
ENDCHAR
STARTCHAR 013B
ENCODING 315
SWIDTH 492 0
DWIDTH 13 0
BBX 11 23 1 -5
BITMAP
F000
F000
F000
F000
F000
F000
F000
F000
F000
F000
F000
F000
F000
F000
F000
FFE0
FFE0
FFE0
0000
0700
0700
0700
0200
ENDCHAR
STARTCHAR 013C
ENCODING 316
SWIDTH 227 0
DWIDTH 6 0
BBX 3 24 1 -5
BITMAP
E0
E0
E0
E0
E0
E0
E0
E0
E0
E0
E0
E0
E0
E0
E0
E0
E0
E0
E0
00
60
60
60
20
ENDCHAR
STARTCHAR 013D
ENCODING 317
SWIDTH 492 0
DWIDTH 13 0
BBX 11 18 1 0
BITMAP
F0E0
F0E0
F0E0
F040
F040
F000
F000
F000
F000
F000
F000
F000
F000
F000
F000
FFE0
FFE0
FFE0
ENDCHAR
STARTCHAR 013E
ENCODING 318
SWIDTH 303 0
DWIDTH 8 0
BBX 8 19 1 0
BITMAP
E3
E3
E3
E1
E3
E0
E0
E0
E0
E0
E0
E0
E0
E0
E0
E0
E0
E0
E0
ENDCHAR
STARTCHAR 013F
ENCODING 319
SWIDTH 492 0
DWIDTH 13 0
BBX 11 18 1 0
BITMAP
F000
F000
F000
F000
F000
F000
F000
F1C0
F1C0
F1C0
F000
F000
F000
F000
F000
FFE0
FFE0
FFE0
ENDCHAR
STARTCHAR 0140
ENCODING 320
SWIDTH 341 0
DWIDTH 9 0
BBX 9 19 1 0
BITMAP
E000
E000
E000
E000
E000
E000
E000
E000
E380
E380
E380
E000
E000
E000
E000
E000
E000
E000
E000
ENDCHAR
STARTCHAR 0141
ENCODING 321
SWIDTH 492 0
DWIDTH 13 0
BBX 12 18 0 0
BITMAP
7800
7800
7800
7800
7800
7900
7B00
7F00
7E00
F800
F800
F800
7800
7800
7800
7FF0
7FF0
7FF0
ENDCHAR
STARTCHAR 0142
ENCODING 322
SWIDTH 227 0
DWIDTH 6 0
BBX 6 19 0 0
BITMAP
70
70
70
70
70
70
74
7C
7C
78
F0
F0
70
70
70
70
70
70
70
ENDCHAR
STARTCHAR 0143
ENCODING 323
SWIDTH 568 0
DWIDTH 15 0
BBX 13 23 1 0
BITMAP
00E0
00C0
0180
0300
0000
F038
F838
F838
FC38
FC38
EC38
EE38
EE38
E738
E738
E3B8
E3B8
E1F8
E1F8
E0F8
E0F8
E078
E078
ENDCHAR
STARTCHAR 0144
ENCODING 324
SWIDTH 492 0
DWIDTH 13 0
BBX 11 19 1 0
BITMAP
01C0
0380
0300
0600
0000
E780
EFC0
EFC0
F9E0
F0E0
F0E0
E0E0
E0E0
E0E0
E0E0
E0E0
E0E0
E0E0
E0E0
ENDCHAR
STARTCHAR 0145
ENCODING 325
SWIDTH 568 0
DWIDTH 15 0
BBX 13 23 1 -5
BITMAP
F038
F838
F838
FC38
FC38
EC38
EE38
EE38
E738
E738
E3B8
E3B8
E1F8
E1F8
E0F8
E0F8
E078
E078
0000
0180
0180
0180
0100
ENDCHAR
STARTCHAR 0146
ENCODING 326
SWIDTH 492 0
DWIDTH 13 0
BBX 11 19 1 -5
BITMAP
E780
EFC0
EFC0
F9E0
F0E0
F0E0
E0E0
E0E0
E0E0
E0E0
E0E0
E0E0
E0E0
E0E0
0000
0700
0700
0700
0200
ENDCHAR
STARTCHAR 0147
ENCODING 327
SWIDTH 568 0
DWIDTH 15 0
BBX 13 23 1 0
BITMAP
0C60
06E0
07C0
0380
0000
F038
F838
F838
FC38
FC38
EC38
EE38
EE38
E738
E738
E3B8
E3B8
E1F8
E1F8
E0F8
E0F8
E078
E078
ENDCHAR
STARTCHAR 0148
ENCODING 328
SWIDTH 492 0
DWIDTH 13 0
BBX 11 19 1 0
BITMAP
30C0
1980
0F00
0F00
0000
E780
EFC0
EFC0
F9E0
F0E0
F0E0
E0E0
E0E0
E0E0
E0E0
E0E0
E0E0
E0E0
E0E0
ENDCHAR
STARTCHAR 0149
ENCODING 329
SWIDTH 682 0
DWIDTH 18 0
BBX 15 18 -1 0
BITMAP
E000
E000
E000
2000
2738
677C
67FE
078E
070E
070E
070E
070E
070E
070E
070E
070E
070E
070E
ENDCHAR
STARTCHAR 014A
ENCODING 330
SWIDTH 568 0
DWIDTH 15 0
BBX 13 18 1 0
BITMAP
E3E0
E7F0
EFF0
EC78
F838
F038
F038
F038
F038
F038
F038
F038
F038
F038
F278
F7F0
F7F0
F3E0
ENDCHAR
STARTCHAR 014B
ENCODING 331
SWIDTH 492 0
DWIDTH 13 0
BBX 11 20 1 -6
BITMAP
E780
EFC0
EFC0
F9E0
F0E0
F0E0
E0E0
E0E0
E0E0
E0E0
E0E0
E0E0
E0E0
E0E0
00E0
00E0
00E0
03E0
03C0
0380
ENDCHAR
STARTCHAR 014C
ENCODING 332
SWIDTH 644 0
DWIDTH 17 0
BBX 17 21 1 0
BITMAP
07FF80
07FF80
000000
0FC000
1FF000
3FF800
787800
703C00
F01C00
E01C00
E01E00
E00E00
E00E00
E01E00
E01C00
F01C00
703C00
787800
3FF800
1FF000
0FC000
ENDCHAR
STARTCHAR 014D
ENCODING 333
SWIDTH 492 0
DWIDTH 13 0
BBX 15 17 1 0
BITMAP
1FFE
1FFE
0000
1F00
3F80
71C0
E0E0
E0E0
E0E0
E0E0
E0E0
E0E0
E0E0
E0E0
71C0
3F80
1F00
ENDCHAR
STARTCHAR 014E
ENCODING 334
SWIDTH 644 0
DWIDTH 17 0
BBX 15 22 1 0
BITMAP
0630
07E0
03C0
0000
0FC0
1FF0
3FF8
7878
703C
F01C
E01C
E01E
E00E
E00E
E01E
E01C
F01C
703C
7878
3FF8
1FF0
0FC0
ENDCHAR
STARTCHAR 014F
ENCODING 335
SWIDTH 492 0
DWIDTH 13 0
BBX 11 19 1 0
BITMAP
18C0
18C0
1F80
0F00
0000
1F00
3F80
71C0
E0E0
E0E0
E0E0
E0E0
E0E0
E0E0
E0E0
E0E0
71C0
3F80
1F00
ENDCHAR
STARTCHAR 0150
ENCODING 336
SWIDTH 644 0
DWIDTH 17 0
BBX 15 23 1 0
BITMAP
01DC
0198
0330
0620
0000
0FC0
1FF0
3FF8
7878
703C
F01C
E01C
E01E
E00E
E00E
E01E
E01C
F01C
703C
7878
3FF8
1FF0
0FC0
ENDCHAR
STARTCHAR 0151
ENCODING 337
SWIDTH 492 0
DWIDTH 13 0
BBX 12 19 1 0
BITMAP
0770
0EE0
0CC0
1980
0000
1F00
3F80
71C0
E0E0
E0E0
E0E0
E0E0
E0E0
E0E0
E0E0
E0E0
71C0
3F80
1F00
ENDCHAR
STARTCHAR 0152
ENCODING 338
SWIDTH 795 0
DWIDTH 21 0
BBX 19 18 1 0
BITMAP
0FFFE0
1FFFE0
3FFFE0
787000
707000
F07000
E07000
E07FC0
E07FC0
E07FC0
E07000
E07000
F07000
707000
787000
3FFFE0
1FFFE0
0FFFE0
ENDCHAR
STARTCHAR 0153
ENCODING 339
SWIDTH 757 0
DWIDTH 20 0
BBX 18 14 1 0
BITMAP
1F1F00
3FBF80
71F180
E0F1C0
E0E1C0
E0E0C0
E0FFC0
E0FFC0
E0E000
E0E000
E0F180
71F1C0
3FBF80
1F1F00
ENDCHAR
STARTCHAR 0154
ENCODING 340
SWIDTH 568 0
DWIDTH 15 0
BBX 14 23 1 0
BITMAP
00E0
01C0
0180
0300
0000
FFC0
FFF0
FFF8
F078
F038
F038
F038
F078
FFF0
FFF0
FFC0
F1E0
F0E0
F0F0
F070
F078
F038
F03C
ENDCHAR
STARTCHAR 0155
ENCODING 341
SWIDTH 303 0
DWIDTH 8 0
BBX 8 19 1 0
BITMAP
0F
0E
1C
38
00
E6
EE
EE
F8
F0
F0
E0
E0
E0
E0
E0
E0
E0
E0
ENDCHAR
STARTCHAR 0156
ENCODING 342
SWIDTH 568 0
DWIDTH 15 0
BBX 14 23 1 -5
BITMAP
FFC0
FFF0
FFF8
F078
F038
F038
F038
F078
FFF0
FFF0
FFC0
F1E0
F0E0
F0F0
F070
F078
F038
F03C
0000
0180
0180
0180
0180
ENDCHAR
STARTCHAR 0157
ENCODING 343
SWIDTH 303 0
DWIDTH 8 0
BBX 7 19 1 -5
BITMAP
E6
EE
EE
F8
F0
F0
E0
E0
E0
E0
E0
E0
E0
E0
00
60
60
60
20
ENDCHAR
STARTCHAR 0158
ENCODING 344
SWIDTH 568 0
DWIDTH 15 0
BBX 14 23 1 0
BITMAP
1860
0EC0
0780
0380
0000
FFC0
FFF0
FFF8
F078
F038
F038
F038
F078
FFF0
FFF0
FFC0
F1E0
F0E0
F0F0
F070
F078
F038
F03C
ENDCHAR
STARTCHAR 0159
ENCODING 345
SWIDTH 303 0
DWIDTH 8 0
BBX 7 19 1 0
BITMAP
C6
6E
7C
38
00
E6
EE
EE
F8
F0
F0
E0
E0
E0
E0
E0
E0
E0
E0
ENDCHAR
STARTCHAR 015A
ENCODING 346
SWIDTH 530 0
DWIDTH 14 0
BBX 12 23 1 0
BITMAP
00E0
01C0
0180
0300
0000
1F80
3FE0
7FE0
F0F0
E070
E000
F000
7E00
3FC0
1FE0
01F0
0070
0070
E070
F070
7FF0
7FE0
1F80
ENDCHAR
STARTCHAR 015B
ENCODING 347
SWIDTH 454 0
DWIDTH 12 0
BBX 10 19 1 0
BITMAP
0380
0700
0600
0C00
0000
3F00
7F80
E180
E180
E000
F800
7F00
3F80
07C0
01C0
C1C0
E1C0
7F80
3F00
ENDCHAR
STARTCHAR 015C
ENCODING 348
SWIDTH 530 0
DWIDTH 14 0
BBX 12 23 1 0
BITMAP
0380
07C0
0EC0
1C60
0000
1F80
3FE0
7FE0
F0F0
E070
E000
F000
7E00
3FC0
1FE0
01F0
0070
0070
E070
F070
7FF0
7FE0
1F80
ENDCHAR
STARTCHAR 015D
ENCODING 349
SWIDTH 454 0
DWIDTH 12 0
BBX 10 19 1 0
BITMAP
0E00
1F00
3B00
3180
0000
3F00
7F80
E180
E180
E000
F800
7F00
3F80
07C0
01C0
C1C0
E1C0
7F80
3F00
ENDCHAR
STARTCHAR 015E
ENCODING 350
SWIDTH 530 0
DWIDTH 14 0
BBX 12 24 1 -6
BITMAP
1F80
3FE0
7FE0
F0F0
E070
E000
F000
7E00
3FC0
1FE0
01F0
0070
0070
E070
F070
7FF0
7FE0
1F80
0400
0E00
0300
0300
0300
0E00
ENDCHAR
STARTCHAR 015F
ENCODING 351
SWIDTH 454 0
DWIDTH 12 0
BBX 10 20 1 -6
BITMAP
3F00
7F80
E180
E180
E000
F800
7F00
3F80
07C0
01C0
C1C0
E1C0
7F80
3F00
0800
1C00
0600
0600
0600
1C00
ENDCHAR
STARTCHAR 0160
ENCODING 352
SWIDTH 530 0
DWIDTH 14 0
BBX 12 23 1 0
BITMAP
1860
0CC0
0780
0780
0000
1F80
3FE0
7FE0
F0F0
E070
E000
F000
7E00
3FC0
1FE0
01F0
0070
0070
E070
F070
7FF0
7FE0
1F80
ENDCHAR
STARTCHAR 0161
ENCODING 353
SWIDTH 454 0
DWIDTH 12 0
BBX 10 19 1 0
BITMAP
3180
3B00
1F00
0E00
0000
3F00
7F80
E180
E180
E000
F800
7F00
3F80
07C0
01C0
C1C0
E1C0
7F80
3F00
ENDCHAR
STARTCHAR 0162
ENCODING 354
SWIDTH 492 0
DWIDTH 13 0
BBX 13 24 0 -6
BITMAP
FFF8
FFF8
FFF8
0700
0700
0700
0700
0700
0700
0700
0700
0700
0700
0700
0700
0700
0700
0700
0600
0700
0380
0180
0300
0F00
ENDCHAR
STARTCHAR 0163
ENCODING 355
SWIDTH 265 0
DWIDTH 7 0
BBX 7 23 0 -6
BITMAP
18
38
38
FE
FE
38
38
38
38
38
38
38
38
38
38
3E
1E
08
1C
06
06
06
1C
ENDCHAR
STARTCHAR 0164
ENCODING 356
SWIDTH 492 0
DWIDTH 13 0
BBX 13 23 0 0
BITMAP
1C60
0EC0
07C0
0380
0000
FFF8
FFF8
FFF8
0700
0700
0700
0700
0700
0700
0700
0700
0700
0700
0700
0700
0700
0700
0700
ENDCHAR
STARTCHAR 0165
ENCODING 357
SWIDTH 378 0
DWIDTH 10 0
BBX 12 19 0 0
BITMAP
0070
0070
1870
3820
3820
FE00
FE00
3800
3800
3800
3800
3800
3800
3800
3800
3800
3800
3E00
1E00
ENDCHAR
STARTCHAR 0166
ENCODING 358
SWIDTH 492 0
DWIDTH 13 0
BBX 13 18 0 0
BITMAP
FFF8
FFF8
FFF8
0700
0700
0700
0700
0700
1FC0
1FC0
0700
0700
0700
0700
0700
0700
0700
0700
ENDCHAR
STARTCHAR 0167
ENCODING 359
SWIDTH 265 0
DWIDTH 7 0
BBX 7 17 0 0
BITMAP
18
38
38
FE
FE
38
38
38
FE
FE
38
38
38
38
38
3E
1E
ENDCHAR
STARTCHAR 0168
ENCODING 360
SWIDTH 568 0
DWIDTH 15 0
BBX 13 23 1 0
BITMAP
0F30
0FE0
09E0
0000
0000
E038
E038
E038
E038
E038
E038
E038
E038
E038
E038
E038
E038
F038
7078
78F0
7FF0
3FE0
0F80
ENDCHAR
STARTCHAR 0169
ENCODING 361
SWIDTH 492 0
DWIDTH 13 0
BBX 11 19 1 0
BITMAP
1CC0
3FC0
3380
0000
0000
E0E0
E0E0
E0E0
E0E0
E0E0
E0E0
E0E0
E0E0
E1E0
E1E0
F3E0
7EE0
7EE0
3CE0
ENDCHAR
STARTCHAR 016A
ENCODING 362
SWIDTH 568 0
DWIDTH 15 0
BBX 16 21 1 0
BITMAP
07FF
07FF
0000
E038
E038
E038
E038
E038
E038
E038
E038
E038
E038
E038
E038
F038
7078
78F0
7FF0
3FE0
0F80
ENDCHAR
STARTCHAR 016B
ENCODING 363
SWIDTH 492 0
DWIDTH 13 0
BBX 15 17 1 0
BITMAP
1FFE
1FFE
0000
E0E0
E0E0
E0E0
E0E0
E0E0
E0E0
E0E0
E0E0
E1E0
E1E0
F3E0
7EE0
7EE0
3CE0
ENDCHAR
STARTCHAR 016C
ENCODING 364
SWIDTH 568 0
DWIDTH 15 0
BBX 13 22 1 0
BITMAP
0C60
0FE0
03C0
0000
E038
E038
E038
E038
E038
E038
E038
E038
E038
E038
E038
E038
F038
7078
78F0
7FF0
3FE0
0F80
ENDCHAR
STARTCHAR 016D
ENCODING 365
SWIDTH 492 0
DWIDTH 13 0
BBX 11 19 1 0
BITMAP
10C0
19C0
1F80
0F00
0000
E0E0
E0E0
E0E0
E0E0
E0E0
E0E0
E0E0
E0E0
E1E0
E1E0
F3E0
7EE0
7EE0
3CE0
ENDCHAR
STARTCHAR 016E
ENCODING 366
SWIDTH 568 0
DWIDTH 15 0
BBX 13 25 1 0
BITMAP
0380
03C0
0640
0440
0640
03C0
0380
E038
E038
E038
E038
E038
E038
E038
E038
E038
E038
E038
E038
F038
7078
78F0
7FF0
3FE0
0F80
ENDCHAR
STARTCHAR 016F
ENCODING 367
SWIDTH 492 0
DWIDTH 13 0
BBX 11 21 1 0
BITMAP
0700
0F00
0980
0880
0980
0F00
0700
E0E0
E0E0
E0E0
E0E0
E0E0
E0E0
E0E0
E0E0
E1E0
E1E0
F3E0
7EE0
7EE0
3CE0
ENDCHAR
STARTCHAR 0170
ENCODING 368
SWIDTH 568 0
DWIDTH 15 0
BBX 13 23 1 0
BITMAP
03B8
0730
0660
0CC0
0000
E038
E038
E038
E038
E038
E038
E038
E038
E038
E038
E038
E038
F038
7078
78F0
7FF0
3FE0
0F80
ENDCHAR
STARTCHAR 0171
ENCODING 369
SWIDTH 492 0
DWIDTH 13 0
BBX 11 19 1 0
BITMAP
0E60
0CE0
19C0
1180
0000
E0E0
E0E0
E0E0
E0E0
E0E0
E0E0
E0E0
E0E0
E1E0
E1E0
F3E0
7EE0
7EE0
3CE0
ENDCHAR
STARTCHAR 0172
ENCODING 370
SWIDTH 568 0
DWIDTH 15 0
BBX 13 24 1 -6
BITMAP
E038
E038
E038
E038
E038
E038
E038
E038
E038
E038
E038
E038
F038
7078
78F0
7FF0
3FE0
0F80
00C0
0180
0180
0180
01E0
00E0
ENDCHAR
STARTCHAR 0173
ENCODING 371
SWIDTH 492 0
DWIDTH 13 0
BBX 12 20 1 -6
BITMAP
E0E0
E0E0
E0E0
E0E0
E0E0
E0E0
E0E0
E0E0
E1E0
E1E0
F3E0
7EE0
7EE0
3CE0
0060
00C0
00C0
00C0
00F0
0070
ENDCHAR
STARTCHAR 0174
ENCODING 372
SWIDTH 757 0
DWIDTH 20 0
BBX 20 23 0 0
BITMAP
003800
007C00
00EE00
00C600
000000
E0F070
E0F070
70F070
70F0E0
70F8E0
71F8E0
71F8E0
3998E0
3999C0
399DC0
3B9DC0
3B9DC0
1B0D80
1F0D80
1F0F80
1F0F80
1F0F80
0F0700
ENDCHAR
STARTCHAR 0175
ENCODING 373
SWIDTH 644 0
DWIDTH 17 0
BBX 17 19 0 0
BITMAP
00E000
01F000
03B000
031800
000000
E1C380
E3C300
E3C700
63E700
636700
736600
776600
766600
367E00
363E00
3E3C00
3C3C00
1C3C00
1C3C00
ENDCHAR
STARTCHAR 0176
ENCODING 374
SWIDTH 530 0
DWIDTH 14 0
BBX 13 23 1 0
BITMAP
0780
0780
0DC0
1860
0000
E078
E070
70F0
70E0
38E0
39C0
1DC0
1F80
0F80
0F00
0700
0700
0700
0700
0700
0700
0700
0700
ENDCHAR
STARTCHAR 0177
ENCODING 375
SWIDTH 454 0
DWIDTH 12 0
BBX 12 25 0 -6
BITMAP
0700
0F80
0DC0
18C0
0000
E070
70E0
70E0
70E0
30C0
39C0
39C0
1980
1D80
1F80
0F80
0F00
0F00
0700
0E00
0E00
1E00
7C00
7C00
7800
ENDCHAR
STARTCHAR 0178
ENCODING 376
SWIDTH 530 0
DWIDTH 14 0
BBX 13 22 1 0
BITMAP
18C0
18C0
18C0
0000
E078
E070
70F0
70E0
38E0
39C0
1DC0
1F80
0F80
0F00
0700
0700
0700
0700
0700
0700
0700
0700
ENDCHAR
STARTCHAR 0179
ENCODING 377
SWIDTH 492 0
DWIDTH 13 0
BBX 11 23 1 0
BITMAP
01C0
0380
0300
0600
0000
FFE0
FFE0
FFE0
01C0
01C0
0380
0780
0700
0E00
1E00
1C00
3800
7800
7000
E000
FFE0
FFE0
FFE0
ENDCHAR
STARTCHAR 017A
ENCODING 378
SWIDTH 416 0
DWIDTH 11 0
BBX 9 19 1 0
BITMAP
0700
0600
0C00
1800
0000
FF80
FF80
FF80
0700
0E00
0E00
1C00
3800
3800
7000
E000
FF80
FF80
FF80
ENDCHAR
STARTCHAR 017B
ENCODING 379
SWIDTH 492 0
DWIDTH 13 0
BBX 11 22 1 0
BITMAP
0700
0700
0700
0000
FFE0
FFE0
FFE0
01C0
01C0
0380
0780
0700
0E00
1E00
1C00
3800
7800
7000
E000
FFE0
FFE0
FFE0
ENDCHAR
STARTCHAR 017C
ENCODING 380
SWIDTH 416 0
DWIDTH 11 0
BBX 9 19 1 0
BITMAP
1C00
1C00
1C00
0000
0000
FF80
FF80
FF80
0700
0E00
0E00
1C00
3800
3800
7000
E000
FF80
FF80
FF80
ENDCHAR
STARTCHAR 017D
ENCODING 381
SWIDTH 492 0
DWIDTH 13 0
BBX 11 23 1 0
BITMAP
18C0
1D80
0F80
0700
0000
FFE0
FFE0
FFE0
01C0
01C0
0380
0780
0700
0E00
1E00
1C00
3800
7800
7000
E000
FFE0
FFE0
FFE0
ENDCHAR
STARTCHAR 017E
ENCODING 382
SWIDTH 416 0
DWIDTH 11 0
BBX 9 19 1 0
BITMAP
6300
3700
3E00
1C00
0000
FF80
FF80
FF80
0700
0E00
0E00
1C00
3800
3800
7000
E000
FF80
FF80
FF80
ENDCHAR
STARTCHAR 017F
ENCODING 383
SWIDTH 227 0
DWIDTH 6 0
BBX 6 19 1 0
BITMAP
3C
7C
70
E0
E0
E0
E0
E0
E0
E0
E0
E0
E0
E0
E0
E0
E0
E0
E0
ENDCHAR
STARTCHAR 0192
ENCODING 402
SWIDTH 454 0
DWIDTH 12 0
BBX 9 23 2 -5
BITMAP
0780
0F00
1C00
1C00
1C00
7F00
7F00
3800
3800
3800
3800
3800
7000
7000
7000
7000
7000
7000
E000
E000
E000
E000
E000
ENDCHAR
STARTCHAR 01FA
ENCODING 506
SWIDTH 568 0
DWIDTH 15 0
BBX 14 27 1 0
BITMAP
00F0
00E0
01C0
0380
0380
03C0
0640
0440
0640
07C0
0F80
0F80
0FC0
0DC0
1DC0
1CC0
1CE0
38E0
38E0
3870
7FF0
7FF0
7FF8
7038
E038
E038
E01C
ENDCHAR
STARTCHAR 01FB
ENCODING 507
SWIDTH 454 0
DWIDTH 12 0
BBX 11 25 1 0
BITMAP
01C0
0380
0700
0E00
0E00
1F00
1900
1100
1900
1F00
0E00
3E00
7F80
F380
E380
0380
3F80
7F80
E380
E380
E380
E380
E7C0
FDE0
78E0
ENDCHAR
STARTCHAR 01FC
ENCODING 508
SWIDTH 795 0
DWIDTH 21 0
BBX 20 23 0 0
BITMAP
0000E0
0001C0
000380
000300
000000
01FFF0
01FFF0
03FFF0
03B800
073800
073800
073800
0E3FE0
0E3FE0
1E3FE0
1C3800
1FF800
3FF800
3FF800
783800
703FF0
703FF0
E03FF0
ENDCHAR
STARTCHAR 01FD
ENCODING 509
SWIDTH 720 0
DWIDTH 19 0
BBX 17 19 1 0
BITMAP
001C00
003800
007000
006000
000000
1F3C00
7FFE00
73E700
E1C300
01C380
01C380
3FFF80
7FFF80
E1C000
E1C000
E3C200
E7E380
FEFF00
7C7E00
ENDCHAR
STARTCHAR 01FE
ENCODING 510
SWIDTH 644 0
DWIDTH 17 0
BBX 15 24 1 -1
BITMAP
0070
00E0
00C0
0180
000C
0FD8
1FF8
3FF8
787C
707C
F0DC
E0DE
E19E
E18E
E30E
E61E
E61C
FC1C
7C3C
7878
3FF8
3FF0
6FC0
6000
ENDCHAR
STARTCHAR 01FF
ENCODING 511
SWIDTH 492 0
DWIDTH 13 0
BBX 12 20 0 -1
BITMAP
00E0
01C0
0380
0300
0000
0FB0
1FF0
38E0
70F0
71F0
71F0
7370
7670
7470
7C70
7870
38E0
3FC0
6F80
C000
ENDCHAR
STARTCHAR 0218
ENCODING 536
SWIDTH 530 0
DWIDTH 14 0
BBX 12 23 1 -5
BITMAP
1F80
3FE0
7FE0
F0F0
E070
E000
F000
7E00
3FC0
1FE0
01F0
0070
0070
E070
F070
7FF0
7FE0
1F80
0000
0700
0700
0600
0200
ENDCHAR
STARTCHAR 0219
ENCODING 537
SWIDTH 454 0
DWIDTH 12 0
BBX 10 19 1 -5
BITMAP
3F00
7F80
E180
E180
E000
F800
7F00
3F80
07C0
01C0
C1C0
E1C0
7F80
3F00
0000
0E00
0E00
0C00
0400
ENDCHAR
STARTCHAR 021A
ENCODING 538
SWIDTH 492 0
DWIDTH 13 0
BBX 13 23 0 -5
BITMAP
FFF8
FFF8
FFF8
0700
0700
0700
0700
0700
0700
0700
0700
0700
0700
0700
0700
0700
0700
0700
0000
0700
0700
0700
0200
ENDCHAR
STARTCHAR 021B
ENCODING 539
SWIDTH 265 0
DWIDTH 7 0
BBX 7 22 0 -5
BITMAP
18
38
38
FE
FE
38
38
38
38
38
38
38
38
38
38
3E
1E
00
18
18
18
08
ENDCHAR
STARTCHAR 02C6
ENCODING 710
SWIDTH 265 0
DWIDTH 7 0
BBX 8 4 0 15
BITMAP
38
3C
66
C3
ENDCHAR
STARTCHAR 02C7
ENCODING 711
SWIDTH 265 0
DWIDTH 7 0
BBX 8 4 0 15
BITMAP
C3
66
3C
38
ENDCHAR
STARTCHAR 02C9
ENCODING 713
SWIDTH 492 0
DWIDTH 13 0
BBX 11 2 1 15
BITMAP
FFE0
FFE0
ENDCHAR
STARTCHAR 02D8
ENCODING 728
SWIDTH 265 0
DWIDTH 7 0
BBX 8 4 -1 15
BITMAP
C3
66
7E
3C
ENDCHAR
STARTCHAR 02D9
ENCODING 729
SWIDTH 265 0
DWIDTH 7 0
BBX 3 3 2 16
BITMAP
E0
E0
E0
ENDCHAR
STARTCHAR 02DA
ENCODING 730
SWIDTH 265 0
DWIDTH 7 0
BBX 6 7 0 14
BITMAP
30
78
CC
CC
4C
78
30
ENDCHAR
STARTCHAR 02DB
ENCODING 731
SWIDTH 265 0
DWIDTH 7 0
BBX 4 6 1 -6
BITMAP
60
C0
C0
C0
F0
70
ENDCHAR
STARTCHAR 02DC
ENCODING 732
SWIDTH 265 0
DWIDTH 7 0
BBX 8 3 0 16
BITMAP
73
FF
8E
ENDCHAR
STARTCHAR 02DD
ENCODING 733
SWIDTH 265 0
DWIDTH 7 0
BBX 9 4 -1 15
BITMAP
3B80
7300
6600
CC00
ENDCHAR
STARTCHAR 037E
ENCODING 894
SWIDTH 265 0
DWIDTH 7 0
BBX 3 18 2 -4
BITMAP
E0
E0
E0
E0
00
00
00
00
00
00
E0
E0
E0
E0
60
60
60
C0
ENDCHAR
STARTCHAR 0384
ENCODING 900
SWIDTH 265 0
DWIDTH 7 0
BBX 3 4 2 15
BITMAP
60
E0
C0
80
ENDCHAR
STARTCHAR 0385
ENCODING 901
SWIDTH 265 0
DWIDTH 7 0
BBX 5 6 1 15
BITMAP
30
30
A8
A8
A8
20
ENDCHAR
STARTCHAR 0386
ENCODING 902
SWIDTH 568 0
DWIDTH 15 0
BBX 15 18 0 0
BITMAP
63C0
E7C0
C7C0
87E0
06E0
0EE0
0E60
0E70
1C70
1C70
1C38
3FF8
3FF8
3FFC
381C
701C
701C
700E
ENDCHAR
STARTCHAR 0387
ENCODING 903
SWIDTH 265 0
DWIDTH 7 0
BBX 3 4 2 7
BITMAP
E0
E0
E0
E0
ENDCHAR
STARTCHAR 0388
ENCODING 904
SWIDTH 682 0
DWIDTH 18 0
BBX 18 18 0 0
BITMAP
73FFC0
63FFC0
C3FFC0
C38000
038000
038000
038000
03FF80
03FF80
03FF80
038000
038000
038000
038000
038000
03FFC0
03FFC0
03FFC0
ENDCHAR
STARTCHAR 0389
ENCODING 905
SWIDTH 720 0
DWIDTH 19 0
BBX 19 18 0 0
BITMAP
6380E0
E380E0
C380E0
8380E0
0380E0
0380E0
0380E0
03FFE0
03FFE0
03FFE0
0380E0
0380E0
0380E0
0380E0
0380E0
0380E0
0380E0
0380E0
ENDCHAR
STARTCHAR 038A
ENCODING 906
SWIDTH 378 0
DWIDTH 10 0
BBX 10 18 0 0
BITMAP
61C0
E1C0
C1C0
81C0
01C0
01C0
01C0
01C0
01C0
01C0
01C0
01C0
01C0
01C0
01C0
01C0
01C0
01C0
ENDCHAR
STARTCHAR 038C
ENCODING 908
SWIDTH 682 0
DWIDTH 18 0
BBX 18 18 -1 0
BITMAP
70F800
63FE00
C7FF00
CF0F80
0E0380
1E0380
1C01C0
1C01C0
1C01C0
1C01C0
1C01C0
1C03C0
0E0380
0E0380
0F8F80
07FF00
03FE00
00F800
ENDCHAR
STARTCHAR 038E
ENCODING 910
SWIDTH 757 0
DWIDTH 20 0
BBX 19 18 1 0
BITMAP
73C0E0
61C0E0
C1C1C0
C0E1C0
00E380
007380
007700
003F00
003E00
001E00
001C00
001C00
001C00
001C00
001C00
001C00
001C00
001C00
ENDCHAR
STARTCHAR 038F
ENCODING 911
SWIDTH 682 0
DWIDTH 18 0
BBX 18 18 -1 0
BITMAP
61FC00
E3FE00
C7FF00
8F0780
0E0380
1E03C0
1C01C0
1C01C0
1C01C0
1C01C0
1E0380
0E0380
0F0700
078F00
03DE00
1FDFC0
1FDFC0
1FDFC0
ENDCHAR
STARTCHAR 0390
ENCODING 912
SWIDTH 227 0
DWIDTH 6 0
BBX 7 21 -2 0
BITMAP
10
10
FC
FC
EC
20
00
1C
1C
1C
1C
1C
1C
1C
1C
1C
1C
1C
1C
0E
0E
ENDCHAR
STARTCHAR 0391
ENCODING 913
SWIDTH 568 0
DWIDTH 15 0
BBX 14 18 1 0
BITMAP
0780
0F80
0F80
0FC0
0DC0
1DC0
1CC0
1CE0
38E0
38E0
3870
7FF0
7FF0
7FF8
7038
E038
E038
E01C
ENDCHAR
STARTCHAR 0392
ENCODING 914
SWIDTH 568 0
DWIDTH 15 0
BBX 13 18 1 0
BITMAP
FFC0
FFF0
FFF0
F070
F078
F070
F070
FFE0
FFC0
FFF0
F078
F038
F038
F038
F078
FFF8
FFF0
FFC0
ENDCHAR
STARTCHAR 0393
ENCODING 915
SWIDTH 492 0
DWIDTH 13 0
BBX 11 18 1 0
BITMAP
FFE0
FFE0
FFE0
F000
F000
F000
F000
F000
F000
F000
F000
F000
F000
F000
F000
F000
F000
F000
ENDCHAR
STARTCHAR 0394
ENCODING 916
SWIDTH 568 0
DWIDTH 15 0
BBX 13 18 1 0
BITMAP
0780
0F80
0F80
0FC0
1DC0
1DC0
1CE0
38E0
38E0
3870
7070
7070
7038
F038
E038
FFF8
FFF8
FFF8
ENDCHAR
STARTCHAR 0395
ENCODING 917
SWIDTH 530 0
DWIDTH 14 0
BBX 12 18 1 0
BITMAP
FFF0
FFF0
FFF0
F000
F000
F000
F000
FFE0
FFE0
FFE0
F000
F000
F000
F000
F000
FFF0
FFF0
FFF0
ENDCHAR
STARTCHAR 0396
ENCODING 918
SWIDTH 492 0
DWIDTH 13 0
BBX 11 18 1 0
BITMAP
FFE0
FFE0
FFE0
01C0
01C0
0380
0780
0700
0E00
1E00
1C00
3800
7800
7000
E000
FFE0
FFE0
FFE0
ENDCHAR
STARTCHAR 0397
ENCODING 919
SWIDTH 568 0
DWIDTH 15 0
BBX 13 18 1 0
BITMAP
F038
F038
F038
F038
F038
F038
F038
FFF8
FFF8
FFF8
F038
F038
F038
F038
F038
F038
F038
F038
ENDCHAR
STARTCHAR 0398
ENCODING 920
SWIDTH 644 0
DWIDTH 17 0
BBX 15 18 1 0
BITMAP
0FC0
1FF0
3FF8
787C
703C
E01C
E01E
EFDE
EFCE
EFCE
E01E
E01C
F01C
703C
7878
3FF8
1FF0
0FC0
ENDCHAR
STARTCHAR 0399
ENCODING 921
SWIDTH 227 0
DWIDTH 6 0
BBX 4 18 1 0
BITMAP
F0
F0
F0
F0
F0
F0
F0
F0
F0
F0
F0
F0
F0
F0
F0
F0
F0
F0
ENDCHAR
STARTCHAR 039A
ENCODING 922
SWIDTH 568 0
DWIDTH 15 0
BBX 14 18 1 0
BITMAP
F038
F070
F0F0
F1E0
F3C0
F380
F700
FF00
FF00
FF80
FB80
F3C0
F1E0
F0E0
F0F0
F078
F038
F03C
ENDCHAR
STARTCHAR 039B
ENCODING 923
SWIDTH 530 0
DWIDTH 14 0
BBX 14 18 0 0
BITMAP
0780
0780
0780
07C0
0FC0
0EC0
0CE0
1CE0
1CE0
1C70
3870
3870
3870
7838
7038
7038
703C
F01C
ENDCHAR
STARTCHAR 039C
ENCODING 924
SWIDTH 682 0
DWIDTH 18 0
BBX 15 18 1 0
BITMAP
F81E
F81E
F81E
F83E
FC36
EC36
EC36
EC76
EE76
E666
E666
E6E6
E7C6
E3C6
E3C6
E3C6
E386
E186
ENDCHAR
STARTCHAR 039D
ENCODING 925
SWIDTH 568 0
DWIDTH 15 0
BBX 13 18 1 0
BITMAP
F038
F838
F838
FC38
FC38
EC38
EE38
EE38
E738
E738
E3B8
E3B8
E1F8
E1F8
E0F8
E0F8
E078
E078
ENDCHAR
STARTCHAR 039E
ENCODING 926
SWIDTH 530 0
DWIDTH 14 0
BBX 12 18 1 0
BITMAP
FFF0
FFF0
FFF0
0000
0000
0000
0000
7FC0
7FC0
7FC0
0000
0000
0000
0000
0000
FFF0
FFF0
FFF0
ENDCHAR
STARTCHAR 039F
ENCODING 927
SWIDTH 644 0
DWIDTH 17 0
BBX 15 18 1 0
BITMAP
0FC0
1FF0
3FF8
7878
703C
F01C
E01C
E01E
E00E
E00E
E01E
E01C
F01C
703C
7878
3FF8
1FF0
0FC0
ENDCHAR
STARTCHAR 03A0
ENCODING 928
SWIDTH 568 0
DWIDTH 15 0
BBX 13 18 1 0
BITMAP
FFF8
FFF8
FFF8
E038
E038
E038
E038
E038
E038
E038
E038
E038
E038
E038
E038
E038
E038
E038
ENDCHAR
STARTCHAR 03A1
ENCODING 929
SWIDTH 530 0
DWIDTH 14 0
BBX 12 18 1 0
BITMAP
FFC0
FFE0
FFF0
F0F0
F070
F070
F070
F070
F0F0
FFF0
FFE0
FFC0
F000
F000
F000
F000
F000
F000
ENDCHAR
STARTCHAR 03A3
ENCODING 931
SWIDTH 492 0
DWIDTH 13 0
BBX 11 18 1 0
BITMAP
FFE0
FFE0
FFE0
F000
7000
3800
1C00
0E00
0600
0E00
1C00
3C00
3800
7000
E000
FFE0
FFE0
FFE0
ENDCHAR
STARTCHAR 03A4
ENCODING 932
SWIDTH 492 0
DWIDTH 13 0
BBX 13 18 0 0
BITMAP
FFF8
FFF8
FFF8
0700
0700
0700
0700
0700
0700
0700
0700
0700
0700
0700
0700
0700
0700
0700
ENDCHAR
STARTCHAR 03A5
ENCODING 933
SWIDTH 530 0
DWIDTH 14 0
BBX 13 18 1 0
BITMAP
E078
E070
70F0
70E0
38E0
39C0
1DC0
1F80
0F80
0F00
0700
0700
0700
0700
0700
0700
0700
0700
ENDCHAR
STARTCHAR 03A6
ENCODING 934
SWIDTH 644 0
DWIDTH 17 0
BBX 16 18 1 0
BITMAP
0380
0380
1FF0
3FFC
7FFE
F39E
E38F
E387
E387
E387
E387
E38E
F39E
7FFE
3FFC
1FF0
0380
0380
ENDCHAR
STARTCHAR 03A7
ENCODING 935
SWIDTH 530 0
DWIDTH 14 0
BBX 14 18 0 0
BITMAP
7038
7838
3870
1C70
1CE0
0EE0
0FC0
07C0
0780
07C0
0FC0
0FE0
1CE0
1CF0
3870
3838
7038
F01C
ENDCHAR
STARTCHAR 03A8
ENCODING 936
SWIDTH 644 0
DWIDTH 17 0
BBX 15 18 1 0
BITMAP
E38E
E38E
E38E
E38E
E38E
E38E
E38E
E38E
E38E
F39E
7FFC
3FFC
1FF0
0380
0380
0380
0380
0380
ENDCHAR
STARTCHAR 03A9
ENCODING 937
SWIDTH 644 0
DWIDTH 17 0
BBX 15 18 1 0
BITMAP
0FE0
1FF0
3FF8
783C
701C
F01E
E00E
E00E
E00E
E00E
701E
701C
383C
3C78
1EF0
FEFE
FEFE
FEFE
ENDCHAR
STARTCHAR 03AA
ENCODING 938
SWIDTH 227 0
DWIDTH 6 0
BBX 7 22 -1 0
BITMAP
C6
C6
C6
00
3C
3C
3C
3C
3C
3C
3C
3C
3C
3C
3C
3C
3C
3C
3C
3C
3C
3C
ENDCHAR
STARTCHAR 03AB
ENCODING 939
SWIDTH 530 0
DWIDTH 14 0
BBX 13 22 1 0
BITMAP
18C0
18C0
18C0
0000
E078
E070
70F0
70E0
38E0
39C0
1DC0
1F80
0F80
0F00
0700
0700
0700
0700
0700
0700
0700
0700
ENDCHAR
STARTCHAR 03AC
ENCODING 940
SWIDTH 492 0
DWIDTH 13 0
BBX 12 19 1 0
BITMAP
0380
0300
0600
0600
0000
3C70
7F60
73E0
E3E0
E1E0
E1C0
E1C0
E1C0
E1C0
E1C0
E3E0
F3E0
7EE0
3C60
ENDCHAR
STARTCHAR 03AD
ENCODING 941
SWIDTH 378 0
DWIDTH 10 0
BBX 8 19 1 0
BITMAP
06
0E
0C
08
00
3E
7F
E3
E0
E0
70
7C
7C
F0
E0
E1
E3
FF
3E
ENDCHAR
STARTCHAR 03AE
ENCODING 942
SWIDTH 492 0
DWIDTH 13 0
BBX 11 24 1 -5
BITMAP
0380
0380
0300
0200
0000
E780
EFC0
EFC0
F9E0
F0E0
F0E0
E0E0
E0E0
E0E0
E0E0
E0E0
E0E0
E0E0
E0E0
00E0
00E0
00E0
00E0
00E0
ENDCHAR
STARTCHAR 03AF
ENCODING 943
SWIDTH 227 0
DWIDTH 6 0
BBX 4 19 1 0
BITMAP
70
70
60
40
00
E0
E0
E0
E0
E0
E0
E0
E0
E0
E0
E0
E0
70
70
ENDCHAR
STARTCHAR 03B0
ENCODING 944
SWIDTH 454 0
DWIDTH 12 0
BBX 11 21 1 0
BITMAP
0C00
0800
6E00
7E00
7E00
1000
0000
E380
E1C0
E1C0
E1C0
E0C0
E0E0
E0E0
E0C0
E1C0
E1C0
71C0
7FC0
7F80
1F00
ENDCHAR
STARTCHAR 03B1
ENCODING 945
SWIDTH 492 0
DWIDTH 13 0
BBX 12 14 1 0
BITMAP
3C70
7F60
73E0
E3E0
E1E0
E1C0
E1C0
E1C0
E1C0
E1C0
E3E0
F3E0
7EE0
3C60
ENDCHAR
STARTCHAR 03B2
ENCODING 946
SWIDTH 492 0
DWIDTH 13 0
BBX 11 24 1 -5
BITMAP
1F00
3F80
7FC0
71C0
71C0
E1C0
E3C0
E780
E780
E7C0
E1E0
E0E0
E0E0
E0E0
E0E0
E0E0
F1E0
FFC0
EF80
E000
E000
E000
E000
E000
ENDCHAR
STARTCHAR 03B3
ENCODING 947
SWIDTH 454 0
DWIDTH 12 0
BBX 12 19 0 -5
BITMAP
E070
70E0
70E0
70E0
70C0
39C0
39C0
3980
1B80
1F80
1F80
0F00
0F00
0F00
0E00
0E00
0E00
0E00
1C00
ENDCHAR
STARTCHAR 03B4
ENCODING 948
SWIDTH 492 0
DWIDTH 13 0
BBX 11 19 1 0
BITMAP
7FC0
7FC0
3C00
1C00
0E00
0700
1F80
3FC0
71C0
71E0
E0E0
E0E0
E0E0
E0E0
E0E0
E0E0
71C0
7F80
1F00
ENDCHAR
STARTCHAR 03B5
ENCODING 949
SWIDTH 378 0
DWIDTH 10 0
BBX 8 14 1 0
BITMAP
3E
7F
E3
E0
E0
70
7C
7C
F0
E0
E1
E3
FF
3E
ENDCHAR
STARTCHAR 03B6
ENCODING 950
SWIDTH 378 0
DWIDTH 10 0
BBX 8 24 1 -5
BITMAP
7F
7F
07
06
0E
1C
18
38
70
60
60
E0
C0
C0
C0
E0
F8
7E
3F
07
03
03
03
03
ENDCHAR
STARTCHAR 03B7
ENCODING 951
SWIDTH 492 0
DWIDTH 13 0
BBX 11 19 1 -5
BITMAP
E780
EFC0
EFC0
F9E0
F0E0
F0E0
E0E0
E0E0
E0E0
E0E0
E0E0
E0E0
E0E0
E0E0
00E0
00E0
00E0
00E0
00E0
ENDCHAR
STARTCHAR 03B8
ENCODING 952
SWIDTH 454 0
DWIDTH 12 0
BBX 10 19 1 0
BITMAP
1E00
3F00
7300
6380
E380
E180
E180
E180
E1C0
FFC0
FFC0
E1C0
E180
E180
E380
6380
7300
3F00
1E00
ENDCHAR
STARTCHAR 03B9
ENCODING 953
SWIDTH 227 0
DWIDTH 6 0
BBX 4 14 1 0
BITMAP
E0
E0
E0
E0
E0
E0
E0
E0
E0
E0
E0
E0
70
70
ENDCHAR
STARTCHAR 03BA
ENCODING 954
SWIDTH 454 0
DWIDTH 12 0
BBX 11 14 1 0
BITMAP
E1C0
E1C0
E380
E700
E700
EE00
FE00
FE00
F700
E700
E380
E3C0
E1C0
E1E0
ENDCHAR
STARTCHAR 03BB
ENCODING 955
SWIDTH 454 0
DWIDTH 12 0
BBX 11 20 0 0
BITMAP
7800
7C00
3C00
0E00
0E00
0E00
0700
0700
0700
0F80
0F80
1F80
1D80
19C0
39C0
39C0
70E0
70E0
70E0
E0E0
ENDCHAR
STARTCHAR 03BC
ENCODING 956
SWIDTH 492 0
DWIDTH 13 0
BBX 11 18 1 -4
BITMAP
E0E0
E0E0
E0E0
E0E0
E0E0
E0E0
E0E0
E0E0
E1E0
F1E0
F1E0
FFE0
FEE0
ECE0
E000
E000
E000
E000
ENDCHAR
STARTCHAR 03BD
ENCODING 957
SWIDTH 454 0
DWIDTH 12 0
BBX 11 14 0 0
BITMAP
E0E0
E0E0
70E0
70E0
70E0
30E0
38C0
39C0
39C0
1980
1F80
1F00
0F00
0E00
ENDCHAR
STARTCHAR 03BE
ENCODING 958
SWIDTH 378 0
DWIDTH 10 0
BBX 8 24 1 -5
BITMAP
7E
7E
18
30
70
70
78
3E
0E
3E
70
E0
C0
C0
C0
E0
F8
7E
3F
07
03
03
03
03
ENDCHAR
STARTCHAR 03BF
ENCODING 959
SWIDTH 492 0
DWIDTH 13 0
BBX 11 14 1 0
BITMAP
1F00
3F80
71C0
E0E0
E0E0
E0E0
E0E0
E0E0
E0E0
E0E0
E0E0
71C0
3F80
1F00
ENDCHAR
STARTCHAR 03C0
ENCODING 960
SWIDTH 606 0
DWIDTH 16 0
BBX 16 14 0 0
BITMAP
FFFF
FFFF
1C38
1C38
1C38
1C38
1C38
1C38
1C38
1C38
1C38
1C38
1C3E
381E
ENDCHAR
STARTCHAR 03C1
ENCODING 961
SWIDTH 492 0
DWIDTH 13 0
BBX 11 19 1 -5
BITMAP
1F00
3F80
71C0
70E0
F0E0
E0E0
E0E0
E0E0
E0E0
E0E0
E0E0
F9C0
FFC0
EF80
E000
E000
E000
E000
E000
ENDCHAR
STARTCHAR 03C2
ENCODING 962
SWIDTH 416 0
DWIDTH 11 0
BBX 9 18 1 -5
BITMAP
1F00
3F80
7100
7000
E000
E000
E000
E000
E000
E000
F000
7E00
7F00
1F80
0380
0180
0180
0380
ENDCHAR
STARTCHAR 03C3
ENCODING 963
SWIDTH 568 0
DWIDTH 15 0
BBX 13 14 1 0
BITMAP
0FF8
3FF8
79C0
F0C0
E0E0
E0E0
E0E0
E0E0
E0E0
E0E0
E0E0
71C0
3FC0
1F00
ENDCHAR
STARTCHAR 03C4
ENCODING 964
SWIDTH 378 0
DWIDTH 10 0
BBX 9 14 0 0
BITMAP
FF80
FF80
1C00
1C00
1C00
1C00
1C00
1C00
1C00
1C00
1C00
1F00
1F00
0F00
ENDCHAR
STARTCHAR 03C5
ENCODING 965
SWIDTH 454 0
DWIDTH 12 0
BBX 11 14 1 0
BITMAP
E380
E1C0
E1C0
E1C0
E0C0
E0E0
E0E0
E0C0
E1C0
E1C0
71C0
7FC0
7F80
1F00
ENDCHAR
STARTCHAR 03C6
ENCODING 966
SWIDTH 568 0
DWIDTH 15 0
BBX 13 19 1 -5
BITMAP
19E0
3BF0
7338
E738
E738
E718
E718
E718
E738
E738
E738
7770
3FF0
1FC0
0700
0700
0700
0700
0700
ENDCHAR
STARTCHAR 03C7
ENCODING 967
SWIDTH 454 0
DWIDTH 12 0
BBX 12 19 0 -5
BITMAP
F0F0
F8E0
F8E0
3DC0
1DC0
0D80
0F80
0F80
0700
0F00
0F80
0F80
1D80
1DC0
39C0
38E0
70E0
70F0
E070
ENDCHAR
STARTCHAR 03C8
ENCODING 968
SWIDTH 606 0
DWIDTH 16 0
BBX 14 22 1 -5
BITMAP
0300
0300
0300
E31C
E31C
E31C
E31C
E31C
E31C
E31C
E31C
E31C
E31C
7338
7FF8
3FF8
1FE0
0300
0300
0300
0300
0300
ENDCHAR
STARTCHAR 03C9
ENCODING 969
SWIDTH 682 0
DWIDTH 18 0
BBX 16 14 1 0
BITMAP
0810
381C
781E
F00F
E007
E007
E187
E187
E187
E3C7
F3CF
7FFE
7E7E
3C3C
ENDCHAR
STARTCHAR 03CA
ENCODING 970
SWIDTH 227 0
DWIDTH 6 0
BBX 7 18 -1 0
BITMAP
E6
E6
E6
00
38
38
38
38
38
38
38
38
38
38
38
38
1C
1C
ENDCHAR
STARTCHAR 03CB
ENCODING 971
SWIDTH 454 0
DWIDTH 12 0
BBX 11 18 1 0
BITMAP
3180
3180
3180
0000
E380
E1C0
E1C0
E1C0
E0C0
E0E0
E0E0
E0C0
E1C0
E1C0
71C0
7FC0
7F80
1F00
ENDCHAR
STARTCHAR 03CC
ENCODING 972
SWIDTH 492 0
DWIDTH 13 0
BBX 11 19 1 0
BITMAP
0380
0300
0600
0600
0000
1F00
3F80
71C0
E0E0
E0E0
E0E0
E0E0
E0E0
E0E0
E0E0
E0E0
71C0
3F80
1F00
ENDCHAR
STARTCHAR 03CD
ENCODING 973
SWIDTH 454 0
DWIDTH 12 0
BBX 11 19 1 0
BITMAP
0700
0600
0600
0400
0000
E380
E1C0
E1C0
E1C0
E0C0
E0E0
E0E0
E0C0
E1C0
E1C0
71C0
7FC0
7F80
1F00
ENDCHAR
STARTCHAR 03CE
ENCODING 974
SWIDTH 682 0
DWIDTH 18 0
BBX 16 19 1 0
BITMAP
0070
0060
0060
0040
0000
0810
381C
781E
F00F
E007
E007
E187
E187
E187
E3C7
F3CF
7FFE
7E7E
3C3C
ENDCHAR
STARTCHAR 0401
ENCODING 1025
SWIDTH 530 0
DWIDTH 14 0
BBX 12 22 1 0
BITMAP
0C60
0C60
0C60
0000
FFF0
FFF0
FFF0
F000
F000
F000
F000
FFE0
FFE0
FFE0
F000
F000
F000
F000
F000
FFF0
FFF0
FFF0
ENDCHAR
STARTCHAR 0402
ENCODING 1026
SWIDTH 720 0
DWIDTH 19 0
BBX 18 18 0 0
BITMAP
FFF800
FFF800
FFF800
070000
070000
070000
073F00
07FF80
07FF80
0783C0
0701C0
0701C0
0701C0
0701C0
0733C0
077F80
073F80
071F00
ENDCHAR
STARTCHAR 0403
ENCODING 1027
SWIDTH 492 0
DWIDTH 13 0
BBX 10 23 2 0
BITMAP
0380
0700
0E00
0C00
0000
FFC0
FFC0
FFC0
E000
E000
E000
E000
E000
E000
E000
E000
E000
E000
E000
E000
E000
E000
E000
ENDCHAR
STARTCHAR 0404
ENCODING 1028
SWIDTH 568 0
DWIDTH 15 0
BBX 13 18 1 0
BITMAP
0FC0
3FF0
7FF0
7878
F038
E000
E000
FF80
FF80
FF80
E000
E000
F018
7038
7878
3FF0
1FE0
0FC0
ENDCHAR
STARTCHAR 0405
ENCODING 1029
SWIDTH 530 0
DWIDTH 14 0
BBX 12 18 1 0
BITMAP
1F80
3FE0
7FE0
F0F0
E070
E000
F000
7E00
3FC0
1FE0
01F0
0070
0070
E070
F070
7FF0
7FE0
1F80
ENDCHAR
STARTCHAR 0406
ENCODING 1030
SWIDTH 227 0
DWIDTH 6 0
BBX 4 18 1 0
BITMAP
F0
F0
F0
F0
F0
F0
F0
F0
F0
F0
F0
F0
F0
F0
F0
F0
F0
F0
ENDCHAR
STARTCHAR 0407
ENCODING 1031
SWIDTH 227 0
DWIDTH 6 0
BBX 7 22 -1 0
BITMAP
C6
C6
C6
00
3C
3C
3C
3C
3C
3C
3C
3C
3C
3C
3C
3C
3C
3C
3C
3C
3C
3C
ENDCHAR
STARTCHAR 0408
ENCODING 1032
SWIDTH 454 0
DWIDTH 12 0
BBX 10 18 0 0
BITMAP
0FC0
0FC0
0FC0
01C0
01C0
01C0
01C0
01C0
01C0
01C0
01C0
01C0
21C0
F1C0
71C0
7FC0
3F80
1F00
ENDCHAR
STARTCHAR 0409
ENCODING 1033
SWIDTH 871 0
DWIDTH 23 0
BBX 23 18 0 0
BITMAP
0FF800
1FF800
1FF800
1C3800
1C3800
1C3800
1C3800
1C3FF0
1C3FF8
3C3FFC
38383C
38381E
38381E
38381E
78381C
F03FFC
F03FF8
E03FF0
ENDCHAR
STARTCHAR 040A
ENCODING 1034
SWIDTH 871 0
DWIDTH 23 0
BBX 21 18 1 0
BITMAP
F07000
F07000
F07000
F07000
F07000
F07000
F07000
FFFFC0
FFFFF0
FFFFF0
F07078
F07038
F07038
F07038
F07078
F07FF0
F07FE0
F07FC0
ENDCHAR
STARTCHAR 040B
ENCODING 1035
SWIDTH 720 0
DWIDTH 19 0
BBX 17 18 0 0
BITMAP
FFF800
FFF800
FFF800
070000
070000
070000
073E00
07FF00
07FF80
078780
070380
070380
070380
070380
070380
070380
070380
070380
ENDCHAR
STARTCHAR 040C
ENCODING 1036
SWIDTH 492 0
DWIDTH 13 0
BBX 12 23 1 0
BITMAP
00E0
01C0
0380
0700
0000
F0E0
F0E0
F1C0
F1C0
F380
F380
F700
FE00
FE00
FF00
F700
F380
F380
F1C0
F1C0
F0E0
F0E0
F0F0
ENDCHAR
STARTCHAR 040E
ENCODING 1038
SWIDTH 492 0
DWIDTH 13 0
BBX 13 23 0 0
BITMAP
1860
1C60
0FE0
07C0
0000
E038
7038
7070
3870
3870
1CE0
1CE0
0FC0
0FC0
07C0
0780
0780
0700
0700
0F00
7E00
7E00
7800
ENDCHAR
STARTCHAR 040F
ENCODING 1039
SWIDTH 568 0
DWIDTH 15 0
BBX 13 23 1 -5
BITMAP
F038
F038
F038
F038
F038
F038
F038
F038
F038
F038
F038
F038
F038
F038
F038
FFF8
FFF8
FFF8
0700
0700
0700
0700
0700
ENDCHAR
STARTCHAR 0410
ENCODING 1040
SWIDTH 568 0
DWIDTH 15 0
BBX 14 18 1 0
BITMAP
0780
0F80
0F80
0FC0
0DC0
1DC0
1CC0
1CE0
38E0
38E0
3870
7FF0
7FF0
7FF8
7038
E038
E038
E01C
ENDCHAR
STARTCHAR 0411
ENCODING 1041
SWIDTH 568 0
DWIDTH 15 0
BBX 14 18 1 0
BITMAP
FFE0
FFE0
FFE0
F000
F000
F000
F000
FFE0
FFF0
FFF8
F078
F03C
F03C
F03C
F038
FFF8
FFF0
FFE0
ENDCHAR
STARTCHAR 0412
ENCODING 1042
SWIDTH 568 0
DWIDTH 15 0
BBX 13 18 1 0
BITMAP
FFC0
FFF0
FFF0
F070
F078
F070
F070
FFE0
FFC0
FFF0
F078
F038
F038
F038
F078
FFF8
FFF0
FFC0
ENDCHAR
STARTCHAR 0413
ENCODING 1043
SWIDTH 492 0
DWIDTH 13 0
BBX 10 18 2 0
BITMAP
FFC0
FFC0
FFC0
E000
E000
E000
E000
E000
E000
E000
E000
E000
E000
E000
E000
E000
E000
E000
ENDCHAR
STARTCHAR 0414
ENCODING 1044
SWIDTH 568 0
DWIDTH 15 0
BBX 15 23 0 -5
BITMAP
07F8
0FF8
0FF8
0E38
0E38
0E38
0E38
0E38
0E38
1C38
1C38
1C38
1C38
3C38
3838
FFFE
FFFE
FFFE
E00E
E00E
E00E
E00E
E00E
ENDCHAR
STARTCHAR 0415
ENCODING 1045
SWIDTH 530 0
DWIDTH 14 0
BBX 12 18 1 0
BITMAP
FFF0
FFF0
FFF0
F000
F000
F000
F000
FFE0
FFE0
FFE0
F000
F000
F000
F000
F000
FFF0
FFF0
FFF0
ENDCHAR
STARTCHAR 0416
ENCODING 1046
SWIDTH 720 0
DWIDTH 19 0
BBX 19 18 0 0
BITMAP
70E0E0
70E1C0
38E1C0
38E380
1CE380
1CE700
0EEF00
0FFE00
0FFE00
0FFF00
0EE700
1CE700
1CE380
38E380
38E1C0
70E1C0
70E1E0
E0E0E0
ENDCHAR
STARTCHAR 0417
ENCODING 1047
SWIDTH 492 0
DWIDTH 13 0
BBX 11 18 1 0
BITMAP
1F00
3FC0
7FE0
F1E0
E0E0
20E0
01E0
0FC0
0F00
0FC0
01E0
00E0
40E0
E0E0
F1E0
7FE0
7FC0
1F00
ENDCHAR
STARTCHAR 0418
ENCODING 1048
SWIDTH 568 0
DWIDTH 15 0
BBX 13 18 1 0
BITMAP
E078
E078
E0F8
E0F8
E1F8
E1F8
E3B8
E3B8
E338
E738
E638
EE38
EC38
FC38
FC38
F838
F838
F038
ENDCHAR
STARTCHAR 0419
ENCODING 1049
SWIDTH 568 0
DWIDTH 15 0
BBX 13 23 1 0
BITMAP
1C70
0C70
0FE0
07C0
0000
E078
E078
E0F8
E0F8
E1F8
E1F8
E3B8
E3B8
E338
E738
E638
EE38
EC38
FC38
FC38
F838
F838
F038
ENDCHAR
STARTCHAR 041A
ENCODING 1050
SWIDTH 492 0
DWIDTH 13 0
BBX 12 18 1 0
BITMAP
F0E0
F0E0
F1C0
F1C0
F380
F380
F700
FE00
FE00
FF00
F700
F380
F380
F1C0
F1C0
F0E0
F0E0
F0F0
ENDCHAR
STARTCHAR 041B
ENCODING 1051
SWIDTH 568 0
DWIDTH 15 0
BBX 14 18 0 0
BITMAP
0FFC
1FFC
1FFC
1C1C
1C1C
1C1C
1C1C
1C1C
1C1C
3C1C
381C
381C
381C
381C
781C
F01C
F01C
E01C
ENDCHAR
STARTCHAR 041C
ENCODING 1052
SWIDTH 682 0
DWIDTH 18 0
BBX 15 18 1 0
BITMAP
F81E
F81E
F81E
F83E
FC36
EC36
EC36
EC76
EE76
E666
E666
E6E6
E7C6
E3C6
E3C6
E3C6
E386
E186
ENDCHAR
STARTCHAR 041D
ENCODING 1053
SWIDTH 568 0
DWIDTH 15 0
BBX 13 18 1 0
BITMAP
F038
F038
F038
F038
F038
F038
F038
FFF8
FFF8
FFF8
F038
F038
F038
F038
F038
F038
F038
F038
ENDCHAR
STARTCHAR 041E
ENCODING 1054
SWIDTH 644 0
DWIDTH 17 0
BBX 15 18 1 0
BITMAP
0FC0
1FF0
3FF8
7878
703C
F01C
E01C
E01E
E00E
E00E
E01E
E01C
F01C
703C
7878
3FF8
1FF0
0FC0
ENDCHAR
STARTCHAR 041F
ENCODING 1055
SWIDTH 568 0
DWIDTH 15 0
BBX 13 18 1 0
BITMAP
FFF8
FFF8
FFF8
F038
F038
F038
F038
F038
F038
F038
F038
F038
F038
F038
F038
F038
F038
F038
ENDCHAR
STARTCHAR 0420
ENCODING 1056
SWIDTH 530 0
DWIDTH 14 0
BBX 12 18 1 0
BITMAP
FFC0
FFE0
FFF0
F0F0
F070
F070
F070
F070
F0F0
FFF0
FFE0
FFC0
F000
F000
F000
F000
F000
F000
ENDCHAR
STARTCHAR 0421
ENCODING 1057
SWIDTH 568 0
DWIDTH 15 0
BBX 14 18 1 0
BITMAP
0FC0
1FF0
3FF8
7878
7038
F010
E000
E000
E000
E000
E000
E000
F018
703C
7878
3FF8
1FF0
0FC0
ENDCHAR
STARTCHAR 0422
ENCODING 1058
SWIDTH 492 0
DWIDTH 13 0
BBX 13 18 0 0
BITMAP
FFF8
FFF8
FFF8
0700
0700
0700
0700
0700
0700
0700
0700
0700
0700
0700
0700
0700
0700
0700
ENDCHAR
STARTCHAR 0423
ENCODING 1059
SWIDTH 492 0
DWIDTH 13 0
BBX 13 18 0 0
BITMAP
E038
7038
7070
3870
3870
1CE0
1CE0
0EE0
0FC0
07C0
0780
0380
0380
0700
0700
7E00
7E00
7C00
ENDCHAR
STARTCHAR 0424
ENCODING 1060
SWIDTH 682 0
DWIDTH 18 0
BBX 16 18 1 0
BITMAP
01C0
01C0
1FF8
3FFC
7FFE
F1CF
E1C7
E1C7
E1C7
E1C7
E1C7
E1C7
F1CF
7FFE
3FFC
1FF8
01C0
01C0
ENDCHAR
STARTCHAR 0425
ENCODING 1061
SWIDTH 530 0
DWIDTH 14 0
BBX 14 18 0 0
BITMAP
7038
7838
3870
1C70
1CE0
0EE0
0FC0
07C0
0780
07C0
0FC0
0FE0
1CE0
1CF0
3870
3838
7038
F01C
ENDCHAR
STARTCHAR 0426
ENCODING 1062
SWIDTH 606 0
DWIDTH 16 0
BBX 14 23 1 -5
BITMAP
F070
F070
F070
F070
F070
F070
F070
F070
F070
F070
F070
F070
F070
F070
F070
FFFC
FFFC
FFFC
000C
000C
000C
000C
000C
ENDCHAR
STARTCHAR 0427
ENCODING 1063
SWIDTH 568 0
DWIDTH 15 0
BBX 13 18 1 0
BITMAP
E078
E078
E078
E078
E078
E078
E078
E078
F078
7FF8
7FF8
3F78
0078
0078
0078
0078
0078
0078
ENDCHAR
STARTCHAR 0428
ENCODING 1064
SWIDTH 795 0
DWIDTH 21 0
BBX 19 18 1 0
BITMAP
E0E0E0
E0E0E0
E0E0E0
E0E0E0
E0E0E0
E0E0E0
E0E0E0
E0E0E0
E0E0E0
E0E0E0
E0E0E0
E0E0E0
E0E0E0
E0E0E0
E0E0E0
FFFFE0
FFFFE0
FFFFE0
ENDCHAR
STARTCHAR 0429
ENCODING 1065
SWIDTH 833 0
DWIDTH 22 0
BBX 21 23 1 -5
BITMAP
E0E0E0
E0E0E0
E0E0E0
E0E0E0
E0E0E0
E0E0E0
E0E0E0
E0E0E0
E0E0E0
E0E0E0
E0E0E0
E0E0E0
E0E0E0
E0E0E0
E0E0E0
FFFFF8
FFFFF8
FFFFF8
000038
000038
000038
000038
000038
ENDCHAR
STARTCHAR 042A
ENCODING 1066
SWIDTH 720 0
DWIDTH 19 0
BBX 18 18 0 0
BITMAP
FF0000
FF0000
FF0000
070000
070000
070000
070000
07FE00
07FF80
07FF80
0703C0
0701C0
0701C0
0701C0
070380
07FF80
07FF00
07FE00
ENDCHAR
STARTCHAR 042B
ENCODING 1067
SWIDTH 795 0
DWIDTH 21 0
BBX 19 18 1 0
BITMAP
F000E0
F000E0
F000E0
F000E0
F000E0
F000E0
F000E0
FFE0E0
FFF0E0
FFF8E0
F078E0
F038E0
F038E0
F038E0
F078E0
FFF8E0
FFF0E0
FFC0E0
ENDCHAR
STARTCHAR 042C
ENCODING 1068
SWIDTH 568 0
DWIDTH 15 0
BBX 14 18 1 0
BITMAP
F000
F000
F000
F000
F000
F000
F000
FFE0
FFF0
FFF8
F078
F03C
F03C
F03C
F038
FFF8
FFF0
FFE0
ENDCHAR
STARTCHAR 042D
ENCODING 1069
SWIDTH 568 0
DWIDTH 15 0
BBX 13 18 1 0
BITMAP
1F80
3FE0
7FF0
F0F0
E078
0038
0038
0FF8
0FF8
0FF8
0038
0038
E038
E070
F0F0
7FE0
3FC0
1F80
ENDCHAR
STARTCHAR 042E
ENCODING 1070
SWIDTH 833 0
DWIDTH 22 0
BBX 20 18 1 0
BITMAP
F01F00
F07F80
F0FFC0
F1E1E0
F1C0E0
F1C0F0
F3C070
FFC070
FF8070
FF8070
F3C070
F1C070
F1C0F0
F1E0E0
F0F1E0
F0FFC0
F07F80
F01F00
ENDCHAR
STARTCHAR 042F
ENCODING 1071
SWIDTH 568 0
DWIDTH 15 0
BBX 13 18 1 0
BITMAP
1FF8
7FF8
7FF8
F038
E038
E038
E038
F038
7FF8
3FF8
1FF8
1C38
3C38
3838
7838
7038
F038
E038
ENDCHAR
STARTCHAR 0430
ENCODING 1072
SWIDTH 454 0
DWIDTH 12 0
BBX 11 14 1 0
BITMAP
3E00
7F80
F380
E380
0380
3F80
7F80
E380
E380
E380
E380
E7C0
FDE0
78E0
ENDCHAR
STARTCHAR 0431
ENCODING 1073
SWIDTH 492 0
DWIDTH 13 0
BBX 11 19 1 0
BITMAP
01E0
0FE0
3FE0
3E00
7000
6000
CF80
DFC0
F1E0
F0E0
E0E0
E0E0
E0E0
E0E0
E0E0
60E0
71E0
3FC0
1F00
ENDCHAR
STARTCHAR 0432
ENCODING 1074
SWIDTH 492 0
DWIDTH 13 0
BBX 11 14 1 0
BITMAP
FF80
FFC0
E1E0
E0E0
E0E0
E1C0
FF80
FFC0
E0E0
E0E0
E0E0
E0E0
FFE0
FF80
ENDCHAR
STARTCHAR 0433
ENCODING 1075
SWIDTH 341 0
DWIDTH 9 0
BBX 7 14 1 0
BITMAP
FE
FE
E0
E0
E0
E0
E0
E0
E0
E0
E0
E0
E0
E0
ENDCHAR
STARTCHAR 0434
ENCODING 1076
SWIDTH 530 0
DWIDTH 14 0
BBX 13 19 0 -5
BITMAP
0FF0
0FF0
1C70
1C70
1C70
1C70
1C70
1C70
1870
3870
3870
3870
FFF8
FFF8
E018
E018
E018
E018
E018
ENDCHAR
STARTCHAR 0435
ENCODING 1077
SWIDTH 454 0
DWIDTH 12 0
BBX 10 14 1 0
BITMAP
1E00
3F00
7380
E1C0
E1C0
E1C0
FFC0
FFC0
E000
E000
E180
71C0
7F80
1F00
ENDCHAR
STARTCHAR 0436
ENCODING 1078
SWIDTH 568 0
DWIDTH 15 0
BBX 15 14 0 0
BITMAP
E38E
638E
739C
739C
3BB8
3BB8
1FF0
1FF0
3BB8
3BB8
739C
739C
E38E
E38E
ENDCHAR
STARTCHAR 0437
ENCODING 1079
SWIDTH 416 0
DWIDTH 11 0
BBX 9 14 1 0
BITMAP
3E00
7F00
E700
C380
0300
0700
1E00
1F00
0700
0380
C380
E780
7F00
3E00
ENDCHAR
STARTCHAR 0438
ENCODING 1080
SWIDTH 492 0
DWIDTH 13 0
BBX 11 14 1 0
BITMAP
E1E0
E1E0
E3E0
E3E0
E3E0
E7E0
E6E0
EEE0
ECE0
FCE0
F8E0
F8E0
F0E0
F0E0
ENDCHAR
STARTCHAR 0439
ENCODING 1081
SWIDTH 492 0
DWIDTH 13 0
BBX 11 19 1 0
BITMAP
30E0
38C0
1FC0
0F80
0000
E1E0
E1E0
E3E0
E3E0
E3E0
E7E0
E6E0
EEE0
ECE0
FCE0
F8E0
F8E0
F0E0
F0E0
ENDCHAR
STARTCHAR 043A
ENCODING 1082
SWIDTH 416 0
DWIDTH 11 0
BBX 9 14 1 0
BITMAP
E180
E380
E380
E700
E700
EE00
FE00
FE00
EE00
E700
E700
E380
E380
E380
ENDCHAR
STARTCHAR 043B
ENCODING 1083
SWIDTH 530 0
DWIDTH 14 0
BBX 12 14 0 0
BITMAP
1FF0
1FF0
1C70
1C70
1C70
1870
1870
1870
3870
3870
3870
3870
F070
E070
ENDCHAR
STARTCHAR 043C
ENCODING 1084
SWIDTH 606 0
DWIDTH 16 0
BBX 13 14 1 0
BITMAP
F878
F878
F878
F878
FCD8
ECD8
ECD8
ECD8
EF98
E798
E798
E798
E718
E318
ENDCHAR
STARTCHAR 043D
ENCODING 1085
SWIDTH 492 0
DWIDTH 13 0
BBX 10 14 1 0
BITMAP
E1C0
E1C0
E1C0
E1C0
E1C0
E1C0
FFC0
FFC0
E1C0
E1C0
E1C0
E1C0
E1C0
E1C0
ENDCHAR
STARTCHAR 043E
ENCODING 1086
SWIDTH 492 0
DWIDTH 13 0
BBX 11 14 1 0
BITMAP
1F00
3F80
71C0
E0E0
E0E0
E0E0
E0E0
E0E0
E0E0
E0E0
E0E0
71C0
3F80
1F00
ENDCHAR
STARTCHAR 043F
ENCODING 1087
SWIDTH 492 0
DWIDTH 13 0
BBX 10 14 1 0
BITMAP
FFC0
FFC0
E1C0
E1C0
E1C0
E1C0
E1C0
E1C0
E1C0
E1C0
E1C0
E1C0
E1C0
E1C0
ENDCHAR
STARTCHAR 0440
ENCODING 1088
SWIDTH 492 0
DWIDTH 13 0
BBX 11 19 1 -5
BITMAP
E780
EFC0
F9C0
F0E0
F0E0
E0E0
E0E0
E0E0
E0E0
F0E0
F0E0
F9C0
EFC0
E780
E000
E000
E000
E000
E000
ENDCHAR
STARTCHAR 0441
ENCODING 1089
SWIDTH 454 0
DWIDTH 12 0
BBX 10 14 1 0
BITMAP
1F00
3F80
73C0
E1C0
E000
E000
E000
E000
E000
E1C0
E1C0
73C0
7F80
1F00
ENDCHAR
STARTCHAR 0442
ENCODING 1090
SWIDTH 378 0
DWIDTH 10 0
BBX 9 14 1 0
BITMAP
FF80
FF80
1C00
1C00
1C00
1C00
1C00
1C00
1C00
1C00
1C00
1C00
1C00
1C00
ENDCHAR
STARTCHAR 0443
ENCODING 1091
SWIDTH 454 0
DWIDTH 12 0
BBX 12 20 0 -6
BITMAP
E070
70E0
70E0
70E0
30C0
39C0
39C0
1980
1D80
1F80
0F80
0F00
0F00
0700
0E00
0E00
1E00
7C00
7C00
7800
ENDCHAR
STARTCHAR 0444
ENCODING 1092
SWIDTH 720 0
DWIDTH 19 0
BBX 17 24 1 -5
BITMAP
01C000
01C000
01C000
01C000
01C000
3DDE00
7FFF00
73E700
E1C700
E1C380
E1C380
E1C380
E1C380
E1C380
E1C380
E3C700
73E700
7FFF00
3DDE00
01C000
01C000
01C000
01C000
01C000
ENDCHAR
STARTCHAR 0445
ENCODING 1093
SWIDTH 454 0
DWIDTH 12 0
BBX 11 14 0 0
BITMAP
70E0
70E0
39C0
3B80
1F80
0F00
0F00
0F00
1F80
1F80
39C0
39C0
70E0
F0E0
ENDCHAR
STARTCHAR 0446
ENCODING 1094
SWIDTH 492 0
DWIDTH 13 0
BBX 12 19 1 -5
BITMAP
E1C0
E1C0
E1C0
E1C0
E1C0
E1C0
E1C0
E1C0
E1C0
E1C0
E1C0
E1C0
FFF0
FFF0
0070
0070
0070
0070
0070
ENDCHAR
STARTCHAR 0447
ENCODING 1095
SWIDTH 454 0
DWIDTH 12 0
BBX 10 14 1 0
BITMAP
E1C0
E1C0
E1C0
E1C0
E1C0
E1C0
E1C0
FFC0
FFC0
79C0
01C0
01C0
01C0
01C0
ENDCHAR
STARTCHAR 0448
ENCODING 1096
SWIDTH 682 0
DWIDTH 18 0
BBX 15 14 1 0
BITMAP
E386
E386
E386
E386
E386
E386
E386
E386
E386
E386
E386
E386
FFFE
FFFE
ENDCHAR
STARTCHAR 0449
ENCODING 1097
SWIDTH 682 0
DWIDTH 18 0
BBX 17 19 1 -5
BITMAP
E18600
E18600
E18600
E18600
E18600
E18600
E18600
E18600
E18600
E18600
E18600
E18600
FFFF80
FFFF80
000380
000380
000380
000380
000380
ENDCHAR
STARTCHAR 044A
ENCODING 1098
SWIDTH 606 0
DWIDTH 16 0
BBX 15 14 0 0
BITMAP
FE00
FE00
0E00
0E00
0E00
0E00
0FF8
0FFC
0E1C
0E0E
0E0E
0E1C
0FFC
0FF8
ENDCHAR
STARTCHAR 044B
ENCODING 1099
SWIDTH 720 0
DWIDTH 19 0
BBX 15 14 2 0
BITMAP
E00E
E00E
E00E
E00E
E00E
E00E
FF8E
FFCE
E1EE
E0EE
E0EE
E1EE
FFCE
FF0E
ENDCHAR
STARTCHAR 044C
ENCODING 1100
SWIDTH 492 0
DWIDTH 13 0
BBX 11 14 1 0
BITMAP
E000
E000
E000
E000
E000
E000
FF80
FFE0
E0E0
E0E0
E0E0
E0E0
FFC0
FF80
ENDCHAR
STARTCHAR 044D
ENCODING 1101
SWIDTH 454 0
DWIDTH 12 0
BBX 10 14 1 0
BITMAP
3E00
7F00
E380
E380
E1C0
01C0
0FC0
0FC0
01C0
E1C0
E380
E380
7F00
3E00
ENDCHAR
STARTCHAR 044E
ENCODING 1102
SWIDTH 682 0
DWIDTH 18 0
BBX 16 14 1 0
BITMAP
E078
E1FE
E1CE
E387
E387
E387
FF87
FF87
E387
E387
E387
E3CE
E1FE
E078
ENDCHAR
STARTCHAR 044F
ENCODING 1103
SWIDTH 454 0
DWIDTH 12 0
BBX 11 14 0 0
BITMAP
1FE0
3FE0
70E0
70E0
70E0
70E0
3FE0
1FE0
1CE0
38E0
38E0
70E0
70E0
E0E0
ENDCHAR
STARTCHAR 0451
ENCODING 1105
SWIDTH 454 0
DWIDTH 12 0
BBX 10 18 1 0
BITMAP
3980
3980
3980
0000
1E00
3F00
7380
E1C0
E1C0
E1C0
FFC0
FFC0
E000
E000
E180
71C0
7F80
1F00
ENDCHAR
STARTCHAR 0452
ENCODING 1106
SWIDTH 492 0
DWIDTH 13 0
BBX 12 25 0 -6
BITMAP
7000
7000
FF00
FF00
7000
73C0
77E0
77E0
7CF0
78F0
7870
7070
7070
7070
7070
7070
7070
7070
7070
0070
0070
0070
01F0
01E0
01C0
ENDCHAR
STARTCHAR 0453
ENCODING 1107
SWIDTH 341 0
DWIDTH 9 0
BBX 8 19 1 0
BITMAP
07
0E
1C
18
00
FE
FE
E0
E0
E0
E0
E0
E0
E0
E0
E0
E0
E0
E0
ENDCHAR
STARTCHAR 0454
ENCODING 1108
SWIDTH 454 0
DWIDTH 12 0
BBX 10 14 1 0
BITMAP
1E00
3F80
73C0
E1C0
E1C0
E000
FC00
FC00
E000
E1C0
E1C0
73C0
7F80
1E00
ENDCHAR
STARTCHAR 0455
ENCODING 1109
SWIDTH 454 0
DWIDTH 12 0
BBX 10 14 1 0
BITMAP
3F00
7F80
E180
E180
E000
F800
7F00
3F80
07C0
01C0
C1C0
E1C0
7F80
3F00
ENDCHAR
STARTCHAR 0456
ENCODING 1110
SWIDTH 227 0
DWIDTH 6 0
BBX 3 19 1 0
BITMAP
E0
E0
E0
00
00
E0
E0
E0
E0
E0
E0
E0
E0
E0
E0
E0
E0
E0
E0
ENDCHAR
STARTCHAR 0457
ENCODING 1111
SWIDTH 227 0
DWIDTH 6 0
BBX 7 18 -1 0
BITMAP
E6
E6
E6
00
18
18
18
18
18
18
18
18
18
18
18
18
18
18
ENDCHAR
STARTCHAR 0458
ENCODING 1112
SWIDTH 227 0
DWIDTH 6 0
BBX 4 25 0 -6
BITMAP
70
70
70
00
00
70
70
70
70
70
70
70
70
70
70
70
70
70
70
70
70
70
F0
F0
E0
ENDCHAR
STARTCHAR 0459
ENCODING 1113
SWIDTH 795 0
DWIDTH 21 0
BBX 20 14 0 0
BITMAP
1FF000
1FF000
1C7000
1C7000
1C7000
187000
187FC0
187FE0
3870F0
387070
387070
3870F0
F07FE0
E07FC0
ENDCHAR
STARTCHAR 045A
ENCODING 1114
SWIDTH 720 0
DWIDTH 19 0
BBX 17 14 1 0
BITMAP
E1C000
E1C000
E1C000
E1C000
E1C000
E1C000
FFFE00
FFFF80
E1C380
E1C380
E1C380
E1C380
E1FF80
E1FE00
ENDCHAR
STARTCHAR 045B
ENCODING 1115
SWIDTH 492 0
DWIDTH 13 0
BBX 12 19 0 0
BITMAP
7000
7000
FF00
FF00
7000
73C0
77E0
77E0
7CF0
7870
7870
7070
7070
7070
7070
7070
7070
7070
7070
ENDCHAR
STARTCHAR 045C
ENCODING 1116
SWIDTH 416 0
DWIDTH 11 0
BBX 9 19 1 0
BITMAP
0380
0700
0600
0C00
0000
E180
E380
E380
E700
E700
EE00
FE00
FE00
EE00
E700
E700
E380
E380
E380
ENDCHAR
STARTCHAR 045E
ENCODING 1118
SWIDTH 454 0
DWIDTH 12 0
BBX 12 25 0 -6
BITMAP
38E0
38C0
1FC0
0F80
0000
E070
70E0
70E0
70E0
30C0
39C0
39C0
1980
1D80
1F80
0F80
0F00
0F00
0700
0E00
0E00
1E00
7C00
7C00
7800
ENDCHAR
STARTCHAR 045F
ENCODING 1119
SWIDTH 492 0
DWIDTH 13 0
BBX 10 19 1 -5
BITMAP
E1C0
E1C0
E1C0
E1C0
E1C0
E1C0
E1C0
E1C0
E1C0
E1C0
E1C0
E1C0
FFC0
FFC0
0E00
0E00
0E00
0E00
0E00
ENDCHAR
STARTCHAR 0490
ENCODING 1168
SWIDTH 454 0
DWIDTH 12 0
BBX 9 23 2 0
BITMAP
0380
0380
0380
0380
0380
FF80
FF80
FF80
E000
E000
E000
E000
E000
E000
E000
E000
E000
E000
E000
E000
E000
E000
E000
ENDCHAR
STARTCHAR 0491
ENCODING 1169
SWIDTH 341 0
DWIDTH 9 0
BBX 7 19 1 0
BITMAP
06
06
06
06
06
FE
FE
E0
E0
E0
E0
E0
E0
E0
E0
E0
E0
E0
E0
ENDCHAR
STARTCHAR 1E80
ENCODING 7808
SWIDTH 757 0
DWIDTH 20 0
BBX 20 23 0 0
BITMAP
00E000
007000
003800
001800
000000
E0F070
E0F070
70F070
70F0E0
70F8E0
71F8E0
71F8E0
3998E0
3999C0
399DC0
3B9DC0
3B9DC0
1B0D80
1F0D80
1F0F80
1F0F80
1F0F80
0F0700
ENDCHAR
STARTCHAR 1E81
ENCODING 7809
SWIDTH 644 0
DWIDTH 17 0
BBX 17 19 0 0
BITMAP
078000
038000
01C000
006000
000000
E1C380
E3C300
E3C700
63E700
636700
736600
776600
766600
367E00
363E00
3E3C00
3C3C00
1C3C00
1C3C00
ENDCHAR
STARTCHAR 1E82
ENCODING 7810
SWIDTH 757 0
DWIDTH 20 0
BBX 20 23 0 0
BITMAP
000F00
000E00
001C00
003800
000000
E0F070
E0F070
70F070
70F0E0
70F8E0
71F8E0
71F8E0
3998E0
3999C0
399DC0
3B9DC0
3B9DC0
1B0D80
1F0D80
1F0F80
1F0F80
1F0F80
0F0700
ENDCHAR
STARTCHAR 1E83
ENCODING 7811
SWIDTH 644 0
DWIDTH 17 0
BBX 17 19 0 0
BITMAP
003800
007000
006000
00C000
000000
E1C380
E3C300
E3C700
63E700
636700
736600
776600
766600
367E00
363E00
3E3C00
3C3C00
1C3C00
1C3C00
ENDCHAR
STARTCHAR 1E84
ENCODING 7812
SWIDTH 757 0
DWIDTH 20 0
BBX 20 22 0 0
BITMAP
00C600
00C600
00C600
000000
E0F070
E0F070
70F070
70F0E0
70F8E0
71F8E0
71F8E0
3998E0
3999C0
399DC0
3B9DC0
3B9DC0
1B0D80
1F0D80
1F0F80
1F0F80
1F0F80
0F0700
ENDCHAR
STARTCHAR 1E85
ENCODING 7813
SWIDTH 644 0
DWIDTH 17 0
BBX 17 18 0 0
BITMAP
033800
033800
033800
000000
E1C380
E3C300
E3C700
63E700
636700
736600
776600
766600
367E00
363E00
3E3C00
3C3C00
1C3C00
1C3C00
ENDCHAR
STARTCHAR 1EF2
ENCODING 7922
SWIDTH 530 0
DWIDTH 14 0
BBX 13 23 1 0
BITMAP
0E00
0E00
0300
0180
0000
E078
E070
70F0
70E0
38E0
39C0
1DC0
1F80
0F80
0F00
0700
0700
0700
0700
0700
0700
0700
0700
ENDCHAR
STARTCHAR 1EF3
ENCODING 7923
SWIDTH 454 0
DWIDTH 12 0
BBX 12 25 0 -6
BITMAP
3C00
1C00
0E00
0700
0000
E070
70E0
70E0
70E0
30C0
39C0
39C0
1980
1D80
1F80
0F80
0F00
0F00
0700
0E00
0E00
1E00
7C00
7C00
7800
ENDCHAR
STARTCHAR 2010
ENCODING 8208
SWIDTH 265 0
DWIDTH 7 0
BBX 5 3 1 5
BITMAP
F8
F8
F8
ENDCHAR
STARTCHAR 2011
ENCODING 8209
SWIDTH 265 0
DWIDTH 7 0
BBX 5 3 1 5
BITMAP
F8
F8
F8
ENDCHAR
STARTCHAR 2013
ENCODING 8211
SWIDTH 454 0
DWIDTH 12 0
BBX 10 3 1 6
BITMAP
FFC0
FFC0
FFC0
ENDCHAR
STARTCHAR 2014
ENCODING 8212
SWIDTH 795 0
DWIDTH 21 0
BBX 21 3 0 6
BITMAP
FFFFF8
FFFFF8
FFFFF8
ENDCHAR
STARTCHAR 2015
ENCODING 8213
SWIDTH 795 0
DWIDTH 21 0
BBX 21 3 0 6
BITMAP
FFFFF8
FFFFF8
FFFFF8
ENDCHAR
STARTCHAR 2017
ENCODING 8215
SWIDTH 492 0
DWIDTH 13 0
BBX 12 4 0 -6
BITMAP
FFF0
0000
0000
FFF0
ENDCHAR
STARTCHAR 2018
ENCODING 8216
SWIDTH 227 0
DWIDTH 6 0
BBX 3 7 1 11
BITMAP
60
60
40
C0
E0
E0
E0
ENDCHAR
STARTCHAR 2019
ENCODING 8217
SWIDTH 227 0
DWIDTH 6 0
BBX 3 7 1 11
BITMAP
E0
E0
E0
20
20
60
60
ENDCHAR
STARTCHAR 201A
ENCODING 8218
SWIDTH 227 0
DWIDTH 6 0
BBX 4 7 1 -4
BITMAP
F0
F0
F0
20
20
60
60
ENDCHAR
STARTCHAR 201B
ENCODING 8219
SWIDTH 227 0
DWIDTH 6 0
BBX 3 7 1 11
BITMAP
E0
E0
E0
C0
40
60
60
ENDCHAR
STARTCHAR 201C
ENCODING 8220
SWIDTH 416 0
DWIDTH 11 0
BBX 7 7 2 11
BITMAP
C6
CC
8C
8C
EE
EE
EE
ENDCHAR
STARTCHAR 201D
ENCODING 8221
SWIDTH 416 0
DWIDTH 11 0
BBX 7 7 2 11
BITMAP
EE
EE
EE
66
46
C6
CC
ENDCHAR
STARTCHAR 201E
ENCODING 8222
SWIDTH 416 0
DWIDTH 11 0
BBX 7 7 2 -4
BITMAP
EE
EE
EE
66
46
C6
CC
ENDCHAR
STARTCHAR 2020
ENCODING 8224
SWIDTH 454 0
DWIDTH 12 0
BBX 9 21 1 -2
BITMAP
0C00
0C00
0C00
0C00
CC00
FF80
FF80
0C00
0C00
0C00
0C00
0C00
0C00
0C00
0C00
0C00
0C00
0C00
0C00
0C00
0C00
ENDCHAR
STARTCHAR 2021
ENCODING 8225
SWIDTH 454 0
DWIDTH 12 0
BBX 9 21 1 -2
BITMAP
0C00
0C00
0C00
0C00
FF80
FF80
ED80
0C00
0C00
0C00
0C00
0C00
0C00
0C00
FF80
FF80
0C00
0C00
0C00
0C00
0C00
ENDCHAR
STARTCHAR 2022
ENCODING 8226
SWIDTH 265 0
DWIDTH 7 0
BBX 6 7 1 5
BITMAP
70
F8
FC
FC
FC
F8
70
ENDCHAR
STARTCHAR 2026
ENCODING 8230
SWIDTH 795 0
DWIDTH 21 0
BBX 17 4 2 0
BITMAP
E1C380
E1C380
E1C380
E1C380
ENDCHAR
STARTCHAR 2030
ENCODING 8240
SWIDTH 795 0
DWIDTH 21 0
BBX 21 18 0 0
BITMAP
383000
7C3000
6C6000
C46000
C4C000
CCC000
6D8000
7D8000
3B0000
0378F0
07F9F0
06CD98
06CD98
0CCD98
0CCD98
18CD98
1879F0
3078F0
ENDCHAR
STARTCHAR 2032
ENCODING 8242
SWIDTH 189 0
DWIDTH 5 0
BBX 4 7 1 11
BITMAP
F0
E0
E0
E0
E0
C0
C0
ENDCHAR
STARTCHAR 2033
ENCODING 8243
SWIDTH 378 0
DWIDTH 10 0
BBX 10 7 1 11
BITMAP
F1C0
E1C0
E380
E380
E380
C380
C300
ENDCHAR
STARTCHAR 2039
ENCODING 8249
SWIDTH 265 0
DWIDTH 7 0
BBX 5 10 1 2
BITMAP
38
38
70
60
E0
E0
E0
70
30
38
ENDCHAR
STARTCHAR 203A
ENCODING 8250
SWIDTH 265 0
DWIDTH 7 0
BBX 5 10 1 2
BITMAP
E0
60
70
30
38
38
38
70
60
E0
ENDCHAR
STARTCHAR 203C
ENCODING 8252
SWIDTH 530 0
DWIDTH 14 0
BBX 10 18 2 0
BITMAP
E1C0
E1C0
E1C0
E1C0
E1C0
E1C0
E1C0
E1C0
E1C0
E1C0
E1C0
E1C0
E1C0
0000
0000
E1C0
E1C0
E1C0
ENDCHAR
STARTCHAR 203E
ENCODING 8254
SWIDTH 265 0
DWIDTH 7 0
BBX 9 2 -1 18
BITMAP
FF80
FF80
ENDCHAR
STARTCHAR 2044
ENCODING 8260
SWIDTH 151 0
DWIDTH 4 0
BBX 11 18 -4 0
BITMAP
0060
0060
00C0
00C0
0180
0180
0300
0300
0600
0E00
0C00
1C00
1800
3800
3000
6000
6000
C000
ENDCHAR
STARTCHAR 207F
ENCODING 8319
SWIDTH 303 0
DWIDTH 8 0
BBX 6 9 1 6
BITMAP
DC
FC
EC
CC
C4
C4
C4
C4
C4
ENDCHAR
STARTCHAR 20A3
ENCODING 8355
SWIDTH 492 0
DWIDTH 13 0
BBX 13 18 0 0
BITMAP
3FF8
3FF8
3FF8
3800
3800
3800
3800
3800
3FF0
3FF0
3FF0
3800
3800
FF00
FF00
3800
3800
3800
ENDCHAR
STARTCHAR 20A4
ENCODING 8356
SWIDTH 454 0
DWIDTH 12 0
BBX 12 18 0 0
BITMAP
0F80
1FC0
38C0
38C0
3800
3800
FF00
FF00
3800
3800
FF00
FF00
3800
3870
70E0
FFE0
FFC0
FF80
ENDCHAR
STARTCHAR 20A7
ENCODING 8359
SWIDTH 947 0
DWIDTH 25 0
BBX 22 18 2 0
BITMAP
FC0000
FF0000
C70000
C38000
C38000
C39000
C3B000
C3B000
C7FDF8
FFFFFC
FC338C
C033C0
C031F8
C030FC
C0300C
C0330C
C03FFC
C03DF8
ENDCHAR
STARTCHAR 20AC
ENCODING 8364
SWIDTH 454 0
DWIDTH 12 0
BBX 11 18 0 0
BITMAP
0F80
1FC0
3FE0
38E0
38C0
7800
FF00
FF00
7000
7000
FF00
FF00
3800
3860
38E0
3FE0
1FC0
0F80
ENDCHAR
STARTCHAR 2105
ENCODING 8453
SWIDTH 795 0
DWIDTH 21 0
BBX 19 18 1 0
BITMAP
3C0600
7E0E00
E60C00
C61C00
C01800
C03000
C03000
C06780
E6EFC0
7EDCE0
3DD8E0
0198E0
0318E0
0718E0
061CE0
0E1CC0
0C0FC0
1C0780
ENDCHAR
STARTCHAR 2113
ENCODING 8467
SWIDTH 492 0
DWIDTH 13 0
BBX 11 18 1 0
BITMAP
0F80
3FC0
39E0
78E0
78E0
79C0
79C0
7B80
7F00
FE00
F800
F800
7800
7860
78C0
7FC0
3F80
1F00
ENDCHAR
STARTCHAR 2116
ENCODING 8470
SWIDTH 909 0
DWIDTH 24 0
BBX 22 18 1 0
BITMAP
F03800
F03800
F83800
F83800
FC3800
FC3800
EE38F0
EE39F8
E73998
E7399C
E3B99C
E1B99C
E1D998
E0D9F8
E0F8F0
E07800
E079F8
E039F8
ENDCHAR
STARTCHAR 2122
ENCODING 8482
SWIDTH 795 0
DWIDTH 21 0
BBX 18 8 1 10
BITMAP
FEE1C0
FEE1C0
18F3C0
18D2C0
18DEC0
18DEC0
18CCC0
18CCC0
ENDCHAR
STARTCHAR 2126
ENCODING 8486
SWIDTH 644 0
DWIDTH 17 0
BBX 15 18 1 0
BITMAP
07E0
1FF0
3FF8
7C3C
701C
F01E
F00E
E00E
E00E
F00E
701C
701C
3838
3C78
0EE0
FEFE
FEFE
FEFE
ENDCHAR
STARTCHAR 212E
ENCODING 8494
SWIDTH 606 0
DWIDTH 16 0
BBX 14 14 1 0
BITMAP
0FC0
3860
2010
6018
E018
E018
FFFC
E000
E000
6000
6008
2010
3860
0FC0
ENDCHAR
STARTCHAR 215B
ENCODING 8539
SWIDTH 682 0
DWIDTH 18 0
BBX 18 18 1 0
BITMAP
300600
F00600
B00C00
301C00
301800
303800
303000
FC7000
FC6000
00C780
00CFC0
018CC0
018780
030F80
030CC0
060CC0
060FC0
0C0780
ENDCHAR
STARTCHAR 215C
ENCODING 8540
SWIDTH 682 0
DWIDTH 18 0
BBX 18 18 1 0
BITMAP
780600
FC0C00
4C0C00
381800
381800
0C3000
CC3000
FC6000
786000
00C780
00CFC0
018CC0
018780
030F80
030CC0
060CC0
0E0FC0
0C0780
ENDCHAR
STARTCHAR 215D
ENCODING 8541
SWIDTH 682 0
DWIDTH 18 0
BBX 18 18 1 0
BITMAP
7C0600
7C0C00
400C00
F81800
FC1800
EC3000
CC3000
7C6000
786000
00C780
00CFC0
018CC0
018780
030F80
030CC0
060CC0
0E0FC0
0C0780
ENDCHAR
STARTCHAR 215E
ENCODING 8542
SWIDTH 682 0
DWIDTH 18 0
BBX 17 18 2 0
BITMAP
FC0C00
FC1800
0C3800
183000
107000
306000
30E000
30C000
618000
018F00
031F80
031980
060F00
061F00
0C1980
0C1980
181F80
180F00
ENDCHAR
STARTCHAR 2190
ENCODING 8592
SWIDTH 985 0
DWIDTH 26 0
BBX 16 7 5 1
BITMAP
0800
1000
3000
FFFF
3000
1000
0800
ENDCHAR
STARTCHAR 2191
ENCODING 8593
SWIDTH 492 0
DWIDTH 13 0
BBX 7 16 3 -1
BITMAP
10
10
38
7C
92
10
10
10
10
10
10
10
10
10
10
10
ENDCHAR
STARTCHAR 2192
ENCODING 8594
SWIDTH 985 0
DWIDTH 26 0
BBX 16 7 5 1
BITMAP
0010
0008
000C
FFFF
000C
0008
0010
ENDCHAR
STARTCHAR 2193
ENCODING 8595
SWIDTH 492 0
DWIDTH 13 0
BBX 7 16 3 -1
BITMAP
10
10
10
10
10
10
10
10
10
10
10
92
54
38
38
10
ENDCHAR
STARTCHAR 2194
ENCODING 8596
SWIDTH 985 0
DWIDTH 26 0
BBX 16 7 5 1
BITMAP
0810
1008
300C
FFFF
300C
1008
0810
ENDCHAR
STARTCHAR 2195
ENCODING 8597
SWIDTH 492 0
DWIDTH 13 0
BBX 7 16 3 -1
BITMAP
10
10
38
7C
92
10
10
10
10
10
10
92
54
38
38
10
ENDCHAR
STARTCHAR 21A8
ENCODING 8616
SWIDTH 492 0
DWIDTH 13 0
BBX 7 17 3 -2
BITMAP
10
10
38
7C
92
10
10
10
10
10
10
92
54
38
38
10
FE
ENDCHAR
STARTCHAR 2202
ENCODING 8706
SWIDTH 492 0
DWIDTH 13 0
BBX 11 18 1 0
BITMAP
1F00
1F80
01C0
00E0
00E0
00E0
1EE0
3FE0
71E0
F1E0
E0E0
E1C0
E1C0
E1C0
E380
E380
FF00
3C00
ENDCHAR
STARTCHAR 2206
ENCODING 8710
SWIDTH 606 0
DWIDTH 16 0
BBX 14 18 1 0
BITMAP
0F80
0FC0
0FC0
1FC0
1DE0
1CE0
3CE0
3CF0
3870
7870
7878
7038
F038
F03C
E03C
FFFC
FFFC
FFFC
ENDCHAR
STARTCHAR 220F
ENCODING 8719
SWIDTH 795 0
DWIDTH 21 0
BBX 16 23 3 -5
BITMAP
FFFF
FFFF
FFFF
E00F
E00F
E00F
E00F
E00F
E00F
E00F
E00F
E00F
E00F
E00F
E00F
E00F
E00F
E00F
E00F
E00F
E00F
E00F
E00F
ENDCHAR
STARTCHAR 2211
ENCODING 8721
SWIDTH 720 0
DWIDTH 19 0
BBX 15 24 2 -6
BITMAP
FFFC
FFFC
FFFC
7800
3C00
1E00
1E00
0F00
0780
03C0
03C0
01E0
01E0
03C0
0780
0780
0F00
1E00
3C00
7C00
7800
FFFE
FFFE
FFFE
ENDCHAR
STARTCHAR 2212
ENCODING 8722
SWIDTH 454 0
DWIDTH 12 0
BBX 11 3 1 7
BITMAP
FFE0
FFE0
FFE0
ENDCHAR
STARTCHAR 2215
ENCODING 8725
SWIDTH 151 0
DWIDTH 4 0
BBX 11 18 -4 0
BITMAP
0060
0060
00C0
00C0
0180
0180
0300
0300
0600
0E00
0C00
1C00
1800
3800
3000
6000
6000
C000
ENDCHAR
STARTCHAR 2219
ENCODING 8729
SWIDTH 265 0
DWIDTH 7 0
BBX 3 4 2 7
BITMAP
E0
E0
E0
E0
ENDCHAR
STARTCHAR 221A
ENCODING 8730
SWIDTH 530 0
DWIDTH 14 0
BBX 14 21 0 0
BITMAP
000C
000C
001C
0018
0018
0038
0030
0030
0030
0070
F060
F060
18E0
18C0
1CC0
0DC0
0D80
0F80
0780
0700
0700
ENDCHAR
STARTCHAR 221E
ENCODING 8734
SWIDTH 720 0
DWIDTH 19 0
BBX 17 9 1 3
BITMAP
3C1C00
7E7F00
E3E700
E3C380
C1C380
C3C380
E3E300
7E7F00
3C3E00
ENDCHAR
STARTCHAR 221F
ENCODING 8735
SWIDTH 947 0
DWIDTH 25 0
BBX 16 15 5 0
BITMAP
8000
8000
8000
8000
8000
8000
8000
8000
8000
8000
8000
8000
8000
8000
FFFF
ENDCHAR
STARTCHAR 2229
ENCODING 8745
SWIDTH 720 0
DWIDTH 19 0
BBX 11 13 4 0
BITMAP
1F00
2180
4040
8060
8020
8020
8020
8020
8020
8020
8020
8020
8020
ENDCHAR
STARTCHAR 222B
ENCODING 8747
SWIDTH 265 0
DWIDTH 7 0
BBX 11 25 -2 -6
BITMAP
03E0
07E0
0FE0
0F00
0F00
0E00
0E00
0E00
0E00
0E00
0E00
0E00
0E00
0E00
0E00
0E00
0E00
0E00
0E00
0E00
0E00
1E00
FE00
FC00
F800
ENDCHAR
STARTCHAR 2248
ENCODING 8776
SWIDTH 530 0
DWIDTH 14 0
BBX 13 11 1 3
BITMAP
7800
FE18
FFF8
87F8
01F0
0000
7800
FE18
FFF8
87F8
01F0
ENDCHAR
STARTCHAR 2260
ENCODING 8800
SWIDTH 530 0
DWIDTH 14 0
BBX 14 16 0 1
BITMAP
0070
0070
00E0
FFFC
FFFC
FFFC
0380
0380
0700
0600
FFFC
FFFC
FFFC
1C00
3800
3000
ENDCHAR
STARTCHAR 2261
ENCODING 8801
SWIDTH 454 0
DWIDTH 12 0
BBX 10 11 1 3
BITMAP
FFC0
FFC0
0000
0000
FFC0
FFC0
0000
0000
0000
FFC0
FFC0
ENDCHAR
STARTCHAR 2264
ENCODING 8804
SWIDTH 530 0
DWIDTH 14 0
BBX 13 16 1 0
BITMAP
0038
01F8
0FF0
7F80
FC00
E000
F000
FE00
7FC0
0FF8
01F8
0038
0000
FFF8
FFF8
FFF8
ENDCHAR
STARTCHAR 2265
ENCODING 8805
SWIDTH 530 0
DWIDTH 14 0
BBX 13 16 1 0
BITMAP
E000
FC00
FF80
1FE0
03F8
0078
0078
03F8
1FE0
FF00
F800
C000
0000
FFF8
FFF8
FFF8
ENDCHAR
STARTCHAR 2302
ENCODING 8962
SWIDTH 606 0
DWIDTH 16 0
BBX 12 14 2 1
BITMAP
0600
0B00
1180
30C0
6040
C020
8010
8010
8010
8010
8010
8010
8010
FFF0
ENDCHAR
STARTCHAR 2310
ENCODING 8976
SWIDTH 454 0
DWIDTH 12 0
BBX 10 7 1 3
BITMAP
FFC0
FFC0
C000
C000
C000
C000
C000
ENDCHAR
STARTCHAR 2320
ENCODING 8992
SWIDTH 606 0
DWIDTH 16 0
BBX 5 29 7 -8
BITMAP
38
58
C0
C0
C0
C0
C0
C0
C0
C0
C0
C0
C0
C0
C0
C0
C0
C0
C0
C0
C0
C0
C0
C0
C0
C0
C0
C0
C0
ENDCHAR
STARTCHAR 2321
ENCODING 8993
SWIDTH 606 0
DWIDTH 16 0
BBX 6 29 3 -8
BITMAP
0C
0C
0C
0C
0C
0C
0C
0C
0C
0C
0C
0C
0C
0C
0C
0C
0C
0C
0C
0C
0C
0C
0C
0C
0C
0C
08
E8
70
ENDCHAR
STARTCHAR 2500
ENCODING 9472
SWIDTH 682 0
DWIDTH 18 0
BBX 19 2 0 7
BITMAP
FFFFE0
FFFFE0
ENDCHAR
STARTCHAR 2502
ENCODING 9474
SWIDTH 606 0
DWIDTH 16 0
BBX 2 32 6 -8
BITMAP
C0
C0
C0
C0
C0
C0
C0
C0
C0
C0
C0
C0
C0
C0
C0
C0
C0
C0
C0
C0
C0
C0
C0
C0
C0
C0
C0
C0
C0
C0
C0
C0
ENDCHAR
STARTCHAR 250C
ENCODING 9484
SWIDTH 682 0
DWIDTH 18 0
BBX 11 16 8 -7
BITMAP
FFE0
FFE0
C000
C000
C000
C000
C000
C000
C000
C000
C000
C000
C000
C000
C000
C000
ENDCHAR
STARTCHAR 2510
ENCODING 9488
SWIDTH 682 0
DWIDTH 18 0
BBX 10 16 0 -7
BITMAP
FFC0
FFC0
00C0
00C0
00C0
00C0
00C0
00C0
00C0
00C0
00C0
00C0
00C0
00C0
00C0
00C0
ENDCHAR
STARTCHAR 2514
ENCODING 9492
SWIDTH 682 0
DWIDTH 18 0
BBX 11 16 8 7
BITMAP
C000
C000
C000
C000
C000
C000
C000
C000
C000
C000
C000
C000
C000
C000
FFE0
FFE0
ENDCHAR
STARTCHAR 2518
ENCODING 9496
SWIDTH 682 0
DWIDTH 18 0
BBX 10 16 0 7
BITMAP
00C0
00C0
00C0
00C0
00C0
00C0
00C0
00C0
00C0
00C0
00C0
00C0
00C0
00C0
FFC0
FFC0
ENDCHAR
STARTCHAR 251C
ENCODING 9500
SWIDTH 682 0
DWIDTH 18 0
BBX 11 30 8 -7
BITMAP
C000
C000
C000
C000
C000
C000
C000
C000
C000
C000
C000
C000
C000
C000
FFE0
FFE0
C000
C000
C000
C000
C000
C000
C000
C000
C000
C000
C000
C000
C000
C000
ENDCHAR
STARTCHAR 2524
ENCODING 9508
SWIDTH 682 0
DWIDTH 18 0
BBX 10 30 0 -7
BITMAP
00C0
00C0
00C0
00C0
00C0
00C0
00C0
00C0
00C0
00C0
00C0
00C0
00C0
00C0
FFC0
FFC0
00C0
00C0
00C0
00C0
00C0
00C0
00C0
00C0
00C0
00C0
00C0
00C0
00C0
00C0
ENDCHAR
STARTCHAR 252C
ENCODING 9516
SWIDTH 682 0
DWIDTH 18 0
BBX 19 16 0 -7
BITMAP
FFFFE0
FFFFE0
00C000
00C000
00C000
00C000
00C000
00C000
00C000
00C000
00C000
00C000
00C000
00C000
00C000
00C000
ENDCHAR
STARTCHAR 2534
ENCODING 9524
SWIDTH 682 0
DWIDTH 18 0
BBX 19 16 0 7
BITMAP
00C000
00C000
00C000
00C000
00C000
00C000
00C000
00C000
00C000
00C000
00C000
00C000
00C000
00C000
FFFFE0
FFFFE0
ENDCHAR
STARTCHAR 253C
ENCODING 9532
SWIDTH 682 0
DWIDTH 18 0
BBX 19 30 0 -7
BITMAP
00C000
00C000
00C000
00C000
00C000
00C000
00C000
00C000
00C000
00C000
00C000
00C000
00C000
00C000
FFFFE0
FFFFE0
00C000
00C000
00C000
00C000
00C000
00C000
00C000
00C000
00C000
00C000
00C000
00C000
00C000
00C000
ENDCHAR
STARTCHAR 2550
ENCODING 9552
SWIDTH 682 0
DWIDTH 18 0
BBX 19 6 0 5
BITMAP
FFFFE0
FFFFE0
000000
000000
FFFFE0
FFFFE0
ENDCHAR
STARTCHAR 2551
ENCODING 9553
SWIDTH 682 0
DWIDTH 18 0
BBX 6 32 6 -8
BITMAP
C4
C4
C4
C4
C4
C4
C4
C4
C4
C4
C4
C4
C4
C4
C4
C4
C4
C4
C4
C4
C4
C4
C4
C4
C4
C4
C4
C4
C4
C4
C4
C4
ENDCHAR
STARTCHAR 2552
ENCODING 9554
SWIDTH 682 0
DWIDTH 18 0
BBX 11 18 8 -7
BITMAP
FFE0
FFE0
C000
C000
FFE0
FFE0
C000
C000
C000
C000
C000
C000
C000
C000
C000
C000
C000
C000
ENDCHAR
STARTCHAR 2553
ENCODING 9555
SWIDTH 682 0
DWIDTH 18 0
BBX 13 16 6 -7
BITMAP
FFF8
FFF8
C400
C400
C400
C400
C400
C400
C400
C400
C400
C400
C400
C400
C400
C400
ENDCHAR
STARTCHAR 2554
ENCODING 9556
SWIDTH 682 0
DWIDTH 18 0
BBX 13 18 6 -7
BITMAP
FFF8
FFF8
C000
C000
C7F8
C7F8
C400
C400
C400
C400
C400
C400
C400
C400
C400
C400
C400
C400
ENDCHAR
STARTCHAR 2555
ENCODING 9557
SWIDTH 682 0
DWIDTH 18 0
BBX 10 18 0 -7
BITMAP
FFC0
FFC0
00C0
00C0
FFC0
FFC0
00C0
00C0
00C0
00C0
00C0
00C0
00C0
00C0
00C0
00C0
00C0
00C0
ENDCHAR
STARTCHAR 2556
ENCODING 9558
SWIDTH 682 0
DWIDTH 18 0
BBX 12 16 0 -7
BITMAP
FFF0
FFF0
0310
0310
0310
0310
0310
0310
0310
0310
0310
0310
0310
0310
0310
0310
ENDCHAR
STARTCHAR 2557
ENCODING 9559
SWIDTH 682 0
DWIDTH 18 0
BBX 12 18 0 -7
BITMAP
FFF0
FFF0
0010
0010
FF10
FF10
0310
0310
0310
0310
0310
0310
0310
0310
0310
0310
0310
0310
ENDCHAR
STARTCHAR 2558
ENCODING 9560
SWIDTH 682 0
DWIDTH 18 0
BBX 11 18 8 5
BITMAP
C000
C000
C000
C000
C000
C000
C000
C000
C000
C000
C000
C000
FFE0
FFE0
C000
C000
FFE0
FFE0
ENDCHAR
STARTCHAR 2559
ENCODING 9561
SWIDTH 682 0
DWIDTH 18 0
BBX 13 16 6 7
BITMAP
C400
C400
C400
C400
C400
C400
C400
C400
C400
C400
C400
C400
C400
C400
FFF8
FFF8
ENDCHAR
STARTCHAR 255A
ENCODING 9562
SWIDTH 682 0
DWIDTH 18 0
BBX 13 18 6 5
BITMAP
C400
C400
C400
C400
C400
C400
C400
C400
C400
C400
C400
C400
C7F8
C7F8
C000
C000
FFF8
FFF8
ENDCHAR
STARTCHAR 255B
ENCODING 9563
SWIDTH 682 0
DWIDTH 18 0
BBX 10 18 0 5
BITMAP
00C0
00C0
00C0
00C0
00C0
00C0
00C0
00C0
00C0
00C0
00C0
00C0
FFC0
FFC0
00C0
00C0
FFC0
FFC0
ENDCHAR
STARTCHAR 255C
ENCODING 9564
SWIDTH 682 0
DWIDTH 18 0
BBX 12 16 0 7
BITMAP
0310
0310
0310
0310
0310
0310
0310
0310
0310
0310
0310
0310
0310
0310
FFF0
FFF0
ENDCHAR
STARTCHAR 255D
ENCODING 9565
SWIDTH 682 0
DWIDTH 18 0
BBX 12 18 0 5
BITMAP
0310
0310
0310
0310
0310
0310
0310
0310
0310
0310
0310
0310
FF10
FF10
0010
0010
FFF0
FFF0
ENDCHAR
STARTCHAR 255E
ENCODING 9566
SWIDTH 682 0
DWIDTH 18 0
BBX 11 30 8 -7
BITMAP
C000
C000
C000
C000
C000
C000
C000
C000
C000
C000
C000
C000
FFE0
FFE0
C000
C000
FFE0
FFE0
C000
C000
C000
C000
C000
C000
C000
C000
C000
C000
C000
C000
ENDCHAR
STARTCHAR 255F
ENCODING 9567
SWIDTH 682 0
DWIDTH 18 0
BBX 13 30 6 -7
BITMAP
C400
C400
C400
C400
C400
C400
C400
C400
C400
C400
C400
C400
C400
C400
C7F8
C7F8
C400
C400
C400
C400
C400
C400
C400
C400
C400
C400
C400
C400
C400
C400
ENDCHAR
STARTCHAR 2560
ENCODING 9568
SWIDTH 682 0
DWIDTH 18 0
BBX 13 30 6 -7
BITMAP
C400
C400
C400
C400
C400
C400
C400
C400
C400
C400
C400
C400
C7F8
C7F8
C000
C000
C7F8
C7F8
C400
C400
C400
C400
C400
C400
C400
C400
C400
C400
C400
C400
ENDCHAR
STARTCHAR 2561
ENCODING 9569
SWIDTH 682 0
DWIDTH 18 0
BBX 10 30 0 -7
BITMAP
00C0
00C0
00C0
00C0
00C0
00C0
00C0
00C0
00C0
00C0
00C0
00C0
FFC0
FFC0
00C0
00C0
FFC0
FFC0
00C0
00C0
00C0
00C0
00C0
00C0
00C0
00C0
00C0
00C0
00C0
00C0
ENDCHAR
STARTCHAR 2562
ENCODING 9570
SWIDTH 682 0
DWIDTH 18 0
BBX 12 30 0 -7
BITMAP
0310
0310
0310
0310
0310
0310
0310
0310
0310
0310
0310
0310
0310
0310
FF10
FF10
0310
0310
0310
0310
0310
0310
0310
0310
0310
0310
0310
0310
0310
0310
ENDCHAR
STARTCHAR 2563
ENCODING 9571
SWIDTH 682 0
DWIDTH 18 0
BBX 12 30 0 -7
BITMAP
0310
0310
0310
0310
0310
0310
0310
0310
0310
0310
0310
0310
FF10
FF10
0010
0010
FF10
FF10
0310
0310
0310
0310
0310
0310
0310
0310
0310
0310
0310
0310
ENDCHAR
STARTCHAR 2564
ENCODING 9572
SWIDTH 682 0
DWIDTH 18 0
BBX 19 18 0 -7
BITMAP
FFFFE0
FFFFE0
000000
000000
FFFFE0
FFFFE0
00C000
00C000
00C000
00C000
00C000
00C000
00C000
00C000
00C000
00C000
00C000
00C000
ENDCHAR
STARTCHAR 2565
ENCODING 9573
SWIDTH 682 0
DWIDTH 18 0
BBX 19 16 0 -7
BITMAP
FFFFE0
FFFFE0
031000
031000
031000
031000
031000
031000
031000
031000
031000
031000
031000
031000
031000
031000
ENDCHAR
STARTCHAR 2566
ENCODING 9574
SWIDTH 682 0
DWIDTH 18 0
BBX 19 18 0 -7
BITMAP
FFFFE0
FFFFE0
000000
000000
FF1FE0
FF1FE0
031000
031000
031000
031000
031000
031000
031000
031000
031000
031000
031000
031000
ENDCHAR
STARTCHAR 2567
ENCODING 9575
SWIDTH 682 0
DWIDTH 18 0
BBX 19 18 0 5
BITMAP
00C000
00C000
00C000
00C000
00C000
00C000
00C000
00C000
00C000
00C000
00C000
00C000
FFFFE0
FFFFE0
000000
000000
FFFFE0
FFFFE0
ENDCHAR
STARTCHAR 2568
ENCODING 9576
SWIDTH 682 0
DWIDTH 18 0
BBX 19 16 0 7
BITMAP
031000
031000
031000
031000
031000
031000
031000
031000
031000
031000
031000
031000
031000
031000
FFFFE0
FFFFE0
ENDCHAR
STARTCHAR 2569
ENCODING 9577
SWIDTH 682 0
DWIDTH 18 0
BBX 19 18 0 5
BITMAP
031000
031000
031000
031000
031000
031000
031000
031000
031000
031000
031000
031000
FF1FE0
FF1FE0
000000
000000
FFFFE0
FFFFE0
ENDCHAR
STARTCHAR 256A
ENCODING 9578
SWIDTH 682 0
DWIDTH 18 0
BBX 19 30 0 -7
BITMAP
00C000
00C000
00C000
00C000
00C000
00C000
00C000
00C000
00C000
00C000
00C000
00C000
FFFFE0
FFFFE0
00C000
00C000
FFFFE0
FFFFE0
00C000
00C000
00C000
00C000
00C000
00C000
00C000
00C000
00C000
00C000
00C000
00C000
ENDCHAR
STARTCHAR 256B
ENCODING 9579
SWIDTH 682 0
DWIDTH 18 0
BBX 19 30 0 -7
BITMAP
031000
031000
031000
031000
031000
031000
031000
031000
031000
031000
031000
031000
031000
031000
FFFFE0
FFFFE0
031000
031000
031000
031000
031000
031000
031000
031000
031000
031000
031000
031000
031000
031000
ENDCHAR
STARTCHAR 256C
ENCODING 9580
SWIDTH 682 0
DWIDTH 18 0
BBX 19 30 0 -7
BITMAP
031000
031000
031000
031000
031000
031000
031000
031000
031000
031000
031000
031000
FF1FE0
FF1FE0
000000
000000
FF1FE0
FF1FE0
031000
031000
031000
031000
031000
031000
031000
031000
031000
031000
031000
031000
ENDCHAR
STARTCHAR 2580
ENCODING 9600
SWIDTH 682 0
DWIDTH 18 0
BBX 18 16 0 8
BITMAP
FFFFC0
FFFFC0
FFFFC0
FFFFC0
FFFFC0
FFFFC0
FFFFC0
FFFFC0
FFFFC0
FFFFC0
FFFFC0
FFFFC0
FFFFC0
FFFFC0
FFFFC0
FFFFC0
ENDCHAR
STARTCHAR 2584
ENCODING 9604
SWIDTH 682 0
DWIDTH 18 0
BBX 18 16 0 -8
BITMAP
FFFFC0
FFFFC0
FFFFC0
FFFFC0
FFFFC0
FFFFC0
FFFFC0
FFFFC0
FFFFC0
FFFFC0
FFFFC0
FFFFC0
FFFFC0
FFFFC0
FFFFC0
FFFFC0
ENDCHAR
STARTCHAR 2588
ENCODING 9608
SWIDTH 682 0
DWIDTH 18 0
BBX 18 32 0 -8
BITMAP
FFFFC0
FFFFC0
FFFFC0
FFFFC0
FFFFC0
FFFFC0
FFFFC0
FFFFC0
FFFFC0
FFFFC0
FFFFC0
FFFFC0
FFFFC0
FFFFC0
FFFFC0
FFFFC0
FFFFC0
FFFFC0
FFFFC0
FFFFC0
FFFFC0
FFFFC0
FFFFC0
FFFFC0
FFFFC0
FFFFC0
FFFFC0
FFFFC0
FFFFC0
FFFFC0
FFFFC0
FFFFC0
ENDCHAR
STARTCHAR 258C
ENCODING 9612
SWIDTH 682 0
DWIDTH 18 0
BBX 9 32 0 -8
BITMAP
FF80
FF80
FF80
FF80
FF80
FF80
FF80
FF80
FF80
FF80
FF80
FF80
FF80
FF80
FF80
FF80
FF80
FF80
FF80
FF80
FF80
FF80
FF80
FF80
FF80
FF80
FF80
FF80
FF80
FF80
FF80
FF80
ENDCHAR
STARTCHAR 2590
ENCODING 9616
SWIDTH 682 0
DWIDTH 18 0
BBX 9 32 9 -8
BITMAP
FF80
FF80
FF80
FF80
FF80
FF80
FF80
FF80
FF80
FF80
FF80
FF80
FF80
FF80
FF80
FF80
FF80
FF80
FF80
FF80
FF80
FF80
FF80
FF80
FF80
FF80
FF80
FF80
FF80
FF80
FF80
FF80
ENDCHAR
STARTCHAR 2591
ENCODING 9617
SWIDTH 682 0
DWIDTH 18 0
BBX 17 28 1 -7
BITMAP
C21080
000000
10C600
000000
000000
C21080
000000
10C600
000000
C21080
000000
000000
10C600
000000
C21080
000000
000000
10C600
000000
C21080
000000
000000
10C600
000000
C21080
000000
000000
10C600
ENDCHAR
STARTCHAR 2592
ENCODING 9618
SWIDTH 682 0
DWIDTH 18 0
BBX 18 28 0 -7
BITMAP
696B40
000000
969480
000000
000000
696B40
000000
969480
000000
696B40
000000
000000
969480
000000
696B40
000000
000000
969480
000000
696B40
000000
000000
969480
000000
696B40
000000
000000
969480
ENDCHAR
STARTCHAR 2593
ENCODING 9619
SWIDTH 720 0
DWIDTH 19 0
BBX 19 29 0 -8
BITMAP
696D20
FFFFE0
9692C0
FFFFE0
FFFFE0
FFFFE0
FFFFE0
9692C0
FFFFE0
696D20
FFFFE0
FFFFE0
9692C0
FFFFE0
696D20
FFFFE0
FFFFE0
9692C0
FFFFE0
FFFFE0
FFFFE0
FFFFE0
FFFFE0
696D20
696D20
FFFFE0
9692C0
9692C0
FFFFE0
ENDCHAR
STARTCHAR 25A0
ENCODING 9632
SWIDTH 606 0
DWIDTH 16 0
BBX 12 13 2 1
BITMAP
FFF0
FFF0
FFF0
FFF0
FFF0
FFF0
FFF0
FFF0
FFF0
FFF0
FFF0
FFF0
FFF0
ENDCHAR
STARTCHAR 25A1
ENCODING 9633
SWIDTH 606 0
DWIDTH 16 0
BBX 16 16 0 0
BITMAP
FFFF
8001
8001
8001
8001
8001
8001
8001
8001
8001
8001
8001
8001
8001
8001
FFFF
ENDCHAR
STARTCHAR 25AA
ENCODING 9642
SWIDTH 341 0
DWIDTH 9 0
BBX 7 6 1 5
BITMAP
FE
FE
FE
FE
FE
FE
ENDCHAR
STARTCHAR 25AB
ENCODING 9643
SWIDTH 341 0
DWIDTH 9 0
BBX 7 6 1 5
BITMAP
FE
82
82
82
82
FE
ENDCHAR
STARTCHAR 25AC
ENCODING 9644
SWIDTH 985 0
DWIDTH 26 0
BBX 26 8 0 0
BITMAP
FFFFFFC0
FFFFFFC0
FFFFFFC0
FFFFFFC0
FFFFFFC0
FFFFFFC0
FFFFFFC0
FFFFFFC0
ENDCHAR
STARTCHAR 25B2
ENCODING 9650
SWIDTH 985 0
DWIDTH 26 0
BBX 15 15 5 0
BITMAP
0100
0180
0180
03C0
07C0
07E0
0FE0
0FF0
1FF0
1FF8
3FF8
3FFC
7FFC
7FFE
FFFE
ENDCHAR
STARTCHAR 25BA
ENCODING 9658
SWIDTH 985 0
DWIDTH 26 0
BBX 16 15 5 0
BITMAP
C000
F000
FC00
FF00
FFC0
FFE0
FFFC
FFFF
FFFC
FFF0
FFC0
FF00
FC00
F000
C000
ENDCHAR
STARTCHAR 25BC
ENCODING 9660
SWIDTH 985 0
DWIDTH 26 0
BBX 15 15 5 0
BITMAP
FFFE
7FFE
7FFC
3FFC
3FF8
1FF8
1FF0
0FF0
0FE0
07E0
07C0
03C0
0380
0180
0100
ENDCHAR
STARTCHAR 25C4
ENCODING 9668
SWIDTH 985 0
DWIDTH 26 0
BBX 16 15 5 0
BITMAP
0003
000F
003F
00FF
03FF
0FFF
3FFF
FFFF
3FFF
0FFF
03FF
00FF
003F
000F
0003
ENDCHAR
STARTCHAR 25CA
ENCODING 9674
SWIDTH 492 0
DWIDTH 13 0
BBX 13 18 0 0
BITMAP
0700
0700
0F80
1DC0
19C0
38E0
7060
7070
E038
E030
7070
3060
38E0
1DC0
0D80
0F80
0700
0600
ENDCHAR
STARTCHAR 25CB
ENCODING 9675
SWIDTH 606 0
DWIDTH 16 0
BBX 12 11 2 2
BITMAP
1F00
30C0
4060
C020
8020
8030
8020
C020
4060
30C0
1F00
ENDCHAR
STARTCHAR 25CF
ENCODING 9679
SWIDTH 606 0
DWIDTH 16 0
BBX 11 11 2 2
BITMAP
0F00
3FC0
7FE0
7FE0
FFE0
FFE0
FFE0
7FE0
7FE0
3FC0
1F00
ENDCHAR
STARTCHAR 25D8
ENCODING 9688
SWIDTH 606 0
DWIDTH 16 0
BBX 14 15 1 0
BITMAP
FFFC
FFFC
F87C
E01C
C01C
C00C
800C
800C
800C
C00C
C01C
E01C
F87C
FFFC
FFFC
ENDCHAR
STARTCHAR 25D9
ENCODING 9689
SWIDTH 606 0
DWIDTH 16 0
BBX 14 15 1 0
BITMAP
FFFC
FFFC
F87C
E79C
DFCC
DFEC
BFEC
BFEC
BFEC
DFEC
DFDC
E79C
F87C
FFFC
FFFC
ENDCHAR
STARTCHAR 25E6
ENCODING 9702
SWIDTH 341 0
DWIDTH 9 0
BBX 7 6 1 5
BITMAP
38
44
C2
82
44
38
ENDCHAR
STARTCHAR 263A
ENCODING 9786
SWIDTH 1023 0
DWIDTH 27 0
BBX 16 15 5 0
BITMAP
07E0
0C18
300C
2006
4002
4C31
4C31
C001
4001
4001
4422
23C6
3004
0C18
07E0
ENDCHAR
STARTCHAR 263B
ENCODING 9787
SWIDTH 1023 0
DWIDTH 27 0
BBX 15 15 6 0
BITMAP
07E0
1FF0
3FF8
7FFC
7FFE
F3CE
F7DE
FFFE
FFFE
FFDE
7B9E
7C3C
3FF8
1FF0
07C0
ENDCHAR
STARTCHAR 263C
ENCODING 9788
SWIDTH 909 0
DWIDTH 24 0
BBX 16 16 4 -2
BITMAP
0100
0100
2104
13C8
0C30
1010
1008
F00F
1008
1008
0810
0C30
13C8
2104
0100
0100
ENDCHAR
STARTCHAR 2640
ENCODING 9792
SWIDTH 757 0
DWIDTH 20 0
BBX 7 14 6 1
BITMAP
3C
46
82
82
82
C2
6C
18
10
10
FE
10
10
10
ENDCHAR
STARTCHAR 2642
ENCODING 9794
SWIDTH 757 0
DWIDTH 20 0
BBX 11 12 4 3
BITMAP
0020
01E0
00E0
01A0
3B00
4600
4200
8100
8100
4200
4600
3C00
ENDCHAR
STARTCHAR 2660
ENCODING 9824
SWIDTH 530 0
DWIDTH 14 0
BBX 12 15 1 1
BITMAP
0600
0600
0F00
1F80
3FC0
7FE0
FFF0
FFF0
FFF0
FDF0
74E0
0600
0600
1F80
7FE0
ENDCHAR
STARTCHAR 2663
ENCODING 9827
SWIDTH 644 0
DWIDTH 17 0
BBX 15 15 1 0
BITMAP
0380
07C0
0FE0
0FE0
0FE0
7FFC
FFFE
FFFE
FFFE
FFFE
FD7E
793C
0380
0FE0
3FF8
ENDCHAR
STARTCHAR 2665
ENCODING 9829
SWIDTH 568 0
DWIDTH 15 0
BBX 13 15 1 0
BITMAP
0020
7CF0
FDF8
FFF8
FFF8
7FF8
7FF0
3FF0
1FE0
0FC0
0F80
0780
0300
0200
0200
ENDCHAR
STARTCHAR 2666
ENCODING 9830
SWIDTH 492 0
DWIDTH 13 0
BBX 11 15 1 1
BITMAP
0400
0E00
0F00
1F00
3F80
7FC0
7FE0
FFE0
7FC0
3FC0
3F80
1F00
0E00
0E00
0400
ENDCHAR
STARTCHAR 266A
ENCODING 9834
SWIDTH 492 0
DWIDTH 13 0
BBX 8 15 2 0
BITMAP
08
08
0C
0E
0E
0B
09
09
09
09
09
38
78
F8
70
ENDCHAR
STARTCHAR 266B
ENCODING 9835
SWIDTH 757 0
DWIDTH 20 0
BBX 13 16 3 -1
BITMAP
0008
00F8
0FE8
0E08
0878
0FE8
0E08
0808
0808
0808
0808
0878
3878
78F0
F870
7000
ENDCHAR
STARTCHAR F001
ENCODING 61441
SWIDTH 492 0
DWIDTH 13 0
BBX 12 19 0 0
BITMAP
1E70
3E70
3870
3800
3800
FE70
FE70
3870
3870
3870
3870
3870
3870
3870
3870
3870
3870
3870
3870
ENDCHAR
STARTCHAR F002
ENCODING 61442
SWIDTH 492 0
DWIDTH 13 0
BBX 12 19 0 0
BITMAP
1E70
3E70
3870
3870
3870
FE70
FE70
3870
3870
3870
3870
3870
3870
3870
3870
3870
3870
3870
3870
ENDCHAR
STARTCHAR F005
ENCODING 61445
SWIDTH 265 0
DWIDTH 7 0
BBX 5 5 1 -6
BITMAP
70
38
18
30
F0
ENDCHAR
STARTCHAR FB01
ENCODING 64257
SWIDTH 492 0
DWIDTH 13 0
BBX 12 19 0 0
BITMAP
1E70
3E70
3870
3800
3800
FE70
FE70
3870
3870
3870
3870
3870
3870
3870
3870
3870
3870
3870
3870
ENDCHAR
STARTCHAR FB02
ENCODING 64258
SWIDTH 492 0
DWIDTH 13 0
BBX 12 19 0 0
BITMAP
1E70
3E70
3870
3870
3870
FE70
FE70
3870
3870
3870
3870
3870
3870
3870
3870
3870
3870
3870
3870
ENDCHAR
ENDFONT
